G04 #@! TF.GenerationSoftware,KiCad,Pcbnew,5.1.5+dfsg1-2build2*
G04 #@! TF.CreationDate,2023-01-08T20:57:23+00:00*
G04 #@! TF.ProjectId,rom-reader,726f6d2d-7265-4616-9465-722e6b696361,rev?*
G04 #@! TF.SameCoordinates,Original*
G04 #@! TF.FileFunction,Soldermask,Top*
G04 #@! TF.FilePolarity,Negative*
%FSLAX46Y46*%
G04 Gerber Fmt 4.6, Leading zero omitted, Abs format (unit mm)*
G04 Created by KiCad (PCBNEW 5.1.5+dfsg1-2build2) date 2023-01-08 20:57:23*
%MOMM*%
%LPD*%
G04 APERTURE LIST*
%ADD10C,0.100000*%
G04 APERTURE END LIST*
D10*
G36*
X55511000Y-38386600D02*
G01*
X53709000Y-38386600D01*
X53709000Y-34784600D01*
X55511000Y-34784600D01*
X55511000Y-38386600D01*
G37*
G36*
X58051000Y-38386600D02*
G01*
X56249000Y-38386600D01*
X56249000Y-34784600D01*
X58051000Y-34784600D01*
X58051000Y-38386600D01*
G37*
G36*
X60591000Y-38386600D02*
G01*
X58789000Y-38386600D01*
X58789000Y-34784600D01*
X60591000Y-34784600D01*
X60591000Y-38386600D01*
G37*
G36*
X49161000Y-36816600D02*
G01*
X45559000Y-36816600D01*
X45559000Y-35014600D01*
X49161000Y-35014600D01*
X49161000Y-36816600D01*
G37*
G36*
X68741000Y-36816600D02*
G01*
X65139000Y-36816600D01*
X65139000Y-35014600D01*
X68741000Y-35014600D01*
X68741000Y-36816600D01*
G37*
G36*
X30111000Y-35445000D02*
G01*
X28309000Y-35445000D01*
X28309000Y-33643000D01*
X30111000Y-33643000D01*
X30111000Y-35445000D01*
G37*
G36*
X31863512Y-33647927D02*
G01*
X32012812Y-33677624D01*
X32176784Y-33745544D01*
X32324354Y-33844147D01*
X32449853Y-33969646D01*
X32548456Y-34117216D01*
X32616376Y-34281188D01*
X32651000Y-34455259D01*
X32651000Y-34632741D01*
X32616376Y-34806812D01*
X32548456Y-34970784D01*
X32449853Y-35118354D01*
X32324354Y-35243853D01*
X32176784Y-35342456D01*
X32012812Y-35410376D01*
X31863512Y-35440073D01*
X31838742Y-35445000D01*
X31661258Y-35445000D01*
X31636488Y-35440073D01*
X31487188Y-35410376D01*
X31323216Y-35342456D01*
X31175646Y-35243853D01*
X31050147Y-35118354D01*
X30951544Y-34970784D01*
X30883624Y-34806812D01*
X30849000Y-34632741D01*
X30849000Y-34455259D01*
X30883624Y-34281188D01*
X30951544Y-34117216D01*
X31050147Y-33969646D01*
X31175646Y-33844147D01*
X31323216Y-33745544D01*
X31487188Y-33677624D01*
X31636488Y-33647927D01*
X31661258Y-33643000D01*
X31838742Y-33643000D01*
X31863512Y-33647927D01*
G37*
G36*
X34403512Y-33647927D02*
G01*
X34552812Y-33677624D01*
X34716784Y-33745544D01*
X34864354Y-33844147D01*
X34989853Y-33969646D01*
X35088456Y-34117216D01*
X35156376Y-34281188D01*
X35191000Y-34455259D01*
X35191000Y-34632741D01*
X35156376Y-34806812D01*
X35088456Y-34970784D01*
X34989853Y-35118354D01*
X34864354Y-35243853D01*
X34716784Y-35342456D01*
X34552812Y-35410376D01*
X34403512Y-35440073D01*
X34378742Y-35445000D01*
X34201258Y-35445000D01*
X34176488Y-35440073D01*
X34027188Y-35410376D01*
X33863216Y-35342456D01*
X33715646Y-35243853D01*
X33590147Y-35118354D01*
X33491544Y-34970784D01*
X33423624Y-34806812D01*
X33389000Y-34632741D01*
X33389000Y-34455259D01*
X33423624Y-34281188D01*
X33491544Y-34117216D01*
X33590147Y-33969646D01*
X33715646Y-33844147D01*
X33863216Y-33745544D01*
X34027188Y-33677624D01*
X34176488Y-33647927D01*
X34201258Y-33643000D01*
X34378742Y-33643000D01*
X34403512Y-33647927D01*
G37*
G36*
X49161000Y-34276600D02*
G01*
X45559000Y-34276600D01*
X45559000Y-32474600D01*
X49161000Y-32474600D01*
X49161000Y-34276600D01*
G37*
G36*
X68741000Y-34276600D02*
G01*
X65139000Y-34276600D01*
X65139000Y-32474600D01*
X68741000Y-32474600D01*
X68741000Y-34276600D01*
G37*
G36*
X49161000Y-31736600D02*
G01*
X45559000Y-31736600D01*
X45559000Y-29934600D01*
X49161000Y-29934600D01*
X49161000Y-31736600D01*
G37*
G36*
X68741000Y-31736600D02*
G01*
X65139000Y-31736600D01*
X65139000Y-29934600D01*
X68741000Y-29934600D01*
X68741000Y-31736600D01*
G37*
G36*
X49161000Y-29196600D02*
G01*
X45559000Y-29196600D01*
X45559000Y-27394600D01*
X49161000Y-27394600D01*
X49161000Y-29196600D01*
G37*
G36*
X68741000Y-29196600D02*
G01*
X65139000Y-29196600D01*
X65139000Y-27394600D01*
X68741000Y-27394600D01*
X68741000Y-29196600D01*
G37*
G36*
X68741000Y-26656600D02*
G01*
X65139000Y-26656600D01*
X65139000Y-24854600D01*
X68741000Y-24854600D01*
X68741000Y-26656600D01*
G37*
G36*
X49161000Y-26656600D02*
G01*
X45559000Y-26656600D01*
X45559000Y-24854600D01*
X49161000Y-24854600D01*
X49161000Y-26656600D01*
G37*
G36*
X68741000Y-24116600D02*
G01*
X65139000Y-24116600D01*
X65139000Y-22314600D01*
X68741000Y-22314600D01*
X68741000Y-24116600D01*
G37*
G36*
X49161000Y-24116600D02*
G01*
X45559000Y-24116600D01*
X45559000Y-22314600D01*
X49161000Y-22314600D01*
X49161000Y-24116600D01*
G37*
G36*
X15191629Y-22346704D02*
G01*
X15346501Y-22410854D01*
X15485882Y-22503986D01*
X15604416Y-22622520D01*
X15697548Y-22761901D01*
X15761698Y-22916773D01*
X15794401Y-23081185D01*
X15794401Y-23248817D01*
X15761698Y-23413229D01*
X15697548Y-23568101D01*
X15604416Y-23707482D01*
X15485882Y-23826016D01*
X15346501Y-23919148D01*
X15191629Y-23983298D01*
X15027217Y-24016001D01*
X14859585Y-24016001D01*
X14695173Y-23983298D01*
X14540301Y-23919148D01*
X14400920Y-23826016D01*
X14282386Y-23707482D01*
X14189254Y-23568101D01*
X14125104Y-23413229D01*
X14092401Y-23248817D01*
X14092401Y-23081185D01*
X14125104Y-22916773D01*
X14189254Y-22761901D01*
X14282386Y-22622520D01*
X14400920Y-22503986D01*
X14540301Y-22410854D01*
X14695173Y-22346704D01*
X14859585Y-22314001D01*
X15027217Y-22314001D01*
X15191629Y-22346704D01*
G37*
G36*
X30431629Y-22346704D02*
G01*
X30586501Y-22410854D01*
X30725882Y-22503986D01*
X30844416Y-22622520D01*
X30937548Y-22761901D01*
X31001698Y-22916773D01*
X31034401Y-23081185D01*
X31034401Y-23248817D01*
X31001698Y-23413229D01*
X30937548Y-23568101D01*
X30844416Y-23707482D01*
X30725882Y-23826016D01*
X30586501Y-23919148D01*
X30431629Y-23983298D01*
X30267217Y-24016001D01*
X30099585Y-24016001D01*
X29935173Y-23983298D01*
X29780301Y-23919148D01*
X29640920Y-23826016D01*
X29522386Y-23707482D01*
X29429254Y-23568101D01*
X29365104Y-23413229D01*
X29332401Y-23248817D01*
X29332401Y-23081185D01*
X29365104Y-22916773D01*
X29429254Y-22761901D01*
X29522386Y-22622520D01*
X29640920Y-22503986D01*
X29780301Y-22410854D01*
X29935173Y-22346704D01*
X30099585Y-22314001D01*
X30267217Y-22314001D01*
X30431629Y-22346704D01*
G37*
G36*
X34543242Y-22367404D02*
G01*
X34580337Y-22378657D01*
X34614515Y-22396925D01*
X34644481Y-22421519D01*
X34669075Y-22451485D01*
X34687343Y-22485663D01*
X34698596Y-22522758D01*
X34703000Y-22567474D01*
X34703000Y-23660526D01*
X34698596Y-23705242D01*
X34687343Y-23742337D01*
X34669075Y-23776515D01*
X34644481Y-23806481D01*
X34614515Y-23831075D01*
X34580337Y-23849343D01*
X34543242Y-23860596D01*
X34498526Y-23865000D01*
X33605474Y-23865000D01*
X33560758Y-23860596D01*
X33523663Y-23849343D01*
X33489485Y-23831075D01*
X33459519Y-23806481D01*
X33434925Y-23776515D01*
X33416657Y-23742337D01*
X33405404Y-23705242D01*
X33401000Y-23660526D01*
X33401000Y-22567474D01*
X33405404Y-22522758D01*
X33416657Y-22485663D01*
X33434925Y-22451485D01*
X33459519Y-22421519D01*
X33489485Y-22396925D01*
X33523663Y-22378657D01*
X33560758Y-22367404D01*
X33605474Y-22363000D01*
X34498526Y-22363000D01*
X34543242Y-22367404D01*
G37*
G36*
X36543242Y-22367404D02*
G01*
X36580337Y-22378657D01*
X36614515Y-22396925D01*
X36644481Y-22421519D01*
X36669075Y-22451485D01*
X36687343Y-22485663D01*
X36698596Y-22522758D01*
X36703000Y-22567474D01*
X36703000Y-23660526D01*
X36698596Y-23705242D01*
X36687343Y-23742337D01*
X36669075Y-23776515D01*
X36644481Y-23806481D01*
X36614515Y-23831075D01*
X36580337Y-23849343D01*
X36543242Y-23860596D01*
X36498526Y-23865000D01*
X35605474Y-23865000D01*
X35560758Y-23860596D01*
X35523663Y-23849343D01*
X35489485Y-23831075D01*
X35459519Y-23806481D01*
X35434925Y-23776515D01*
X35416657Y-23742337D01*
X35405404Y-23705242D01*
X35401000Y-23660526D01*
X35401000Y-22567474D01*
X35405404Y-22522758D01*
X35416657Y-22485663D01*
X35434925Y-22451485D01*
X35459519Y-22421519D01*
X35489485Y-22396925D01*
X35523663Y-22378657D01*
X35560758Y-22367404D01*
X35605474Y-22363000D01*
X36498526Y-22363000D01*
X36543242Y-22367404D01*
G37*
G36*
X49161000Y-21576600D02*
G01*
X45559000Y-21576600D01*
X45559000Y-19774600D01*
X49161000Y-19774600D01*
X49161000Y-21576600D01*
G37*
G36*
X68741000Y-21576600D02*
G01*
X65139000Y-21576600D01*
X65139000Y-19774600D01*
X68741000Y-19774600D01*
X68741000Y-21576600D01*
G37*
G36*
X15191629Y-19806704D02*
G01*
X15346501Y-19870854D01*
X15485882Y-19963986D01*
X15604416Y-20082520D01*
X15697548Y-20221901D01*
X15761698Y-20376773D01*
X15794401Y-20541185D01*
X15794401Y-20708817D01*
X15761698Y-20873229D01*
X15697548Y-21028101D01*
X15604416Y-21167482D01*
X15485882Y-21286016D01*
X15346501Y-21379148D01*
X15191629Y-21443298D01*
X15027217Y-21476001D01*
X14859585Y-21476001D01*
X14695173Y-21443298D01*
X14540301Y-21379148D01*
X14400920Y-21286016D01*
X14282386Y-21167482D01*
X14189254Y-21028101D01*
X14125104Y-20873229D01*
X14092401Y-20708817D01*
X14092401Y-20541185D01*
X14125104Y-20376773D01*
X14189254Y-20221901D01*
X14282386Y-20082520D01*
X14400920Y-19963986D01*
X14540301Y-19870854D01*
X14695173Y-19806704D01*
X14859585Y-19774001D01*
X15027217Y-19774001D01*
X15191629Y-19806704D01*
G37*
G36*
X30431629Y-19806704D02*
G01*
X30586501Y-19870854D01*
X30725882Y-19963986D01*
X30844416Y-20082520D01*
X30937548Y-20221901D01*
X31001698Y-20376773D01*
X31034401Y-20541185D01*
X31034401Y-20708817D01*
X31001698Y-20873229D01*
X30937548Y-21028101D01*
X30844416Y-21167482D01*
X30725882Y-21286016D01*
X30586501Y-21379148D01*
X30431629Y-21443298D01*
X30267217Y-21476001D01*
X30099585Y-21476001D01*
X29935173Y-21443298D01*
X29780301Y-21379148D01*
X29640920Y-21286016D01*
X29522386Y-21167482D01*
X29429254Y-21028101D01*
X29365104Y-20873229D01*
X29332401Y-20708817D01*
X29332401Y-20541185D01*
X29365104Y-20376773D01*
X29429254Y-20221901D01*
X29522386Y-20082520D01*
X29640920Y-19963986D01*
X29780301Y-19870854D01*
X29935173Y-19806704D01*
X30099585Y-19774001D01*
X30267217Y-19774001D01*
X30431629Y-19806704D01*
G37*
G36*
X34543242Y-19827404D02*
G01*
X34580337Y-19838657D01*
X34614515Y-19856925D01*
X34644481Y-19881519D01*
X34669075Y-19911485D01*
X34687343Y-19945663D01*
X34698596Y-19982758D01*
X34703000Y-20027474D01*
X34703000Y-21120526D01*
X34698596Y-21165242D01*
X34687343Y-21202337D01*
X34669075Y-21236515D01*
X34644481Y-21266481D01*
X34614515Y-21291075D01*
X34580337Y-21309343D01*
X34543242Y-21320596D01*
X34498526Y-21325000D01*
X33605474Y-21325000D01*
X33560758Y-21320596D01*
X33523663Y-21309343D01*
X33489485Y-21291075D01*
X33459519Y-21266481D01*
X33434925Y-21236515D01*
X33416657Y-21202337D01*
X33405404Y-21165242D01*
X33401000Y-21120526D01*
X33401000Y-20027474D01*
X33405404Y-19982758D01*
X33416657Y-19945663D01*
X33434925Y-19911485D01*
X33459519Y-19881519D01*
X33489485Y-19856925D01*
X33523663Y-19838657D01*
X33560758Y-19827404D01*
X33605474Y-19823000D01*
X34498526Y-19823000D01*
X34543242Y-19827404D01*
G37*
G36*
X9905242Y-19827404D02*
G01*
X9942337Y-19838657D01*
X9976515Y-19856925D01*
X10006481Y-19881519D01*
X10031075Y-19911485D01*
X10049343Y-19945663D01*
X10060596Y-19982758D01*
X10065000Y-20027474D01*
X10065000Y-21120526D01*
X10060596Y-21165242D01*
X10049343Y-21202337D01*
X10031075Y-21236515D01*
X10006481Y-21266481D01*
X9976515Y-21291075D01*
X9942337Y-21309343D01*
X9905242Y-21320596D01*
X9860526Y-21325000D01*
X8967474Y-21325000D01*
X8922758Y-21320596D01*
X8885663Y-21309343D01*
X8851485Y-21291075D01*
X8821519Y-21266481D01*
X8796925Y-21236515D01*
X8778657Y-21202337D01*
X8767404Y-21165242D01*
X8763000Y-21120526D01*
X8763000Y-20027474D01*
X8767404Y-19982758D01*
X8778657Y-19945663D01*
X8796925Y-19911485D01*
X8821519Y-19881519D01*
X8851485Y-19856925D01*
X8885663Y-19838657D01*
X8922758Y-19827404D01*
X8967474Y-19823000D01*
X9860526Y-19823000D01*
X9905242Y-19827404D01*
G37*
G36*
X36543242Y-19827404D02*
G01*
X36580337Y-19838657D01*
X36614515Y-19856925D01*
X36644481Y-19881519D01*
X36669075Y-19911485D01*
X36687343Y-19945663D01*
X36698596Y-19982758D01*
X36703000Y-20027474D01*
X36703000Y-21120526D01*
X36698596Y-21165242D01*
X36687343Y-21202337D01*
X36669075Y-21236515D01*
X36644481Y-21266481D01*
X36614515Y-21291075D01*
X36580337Y-21309343D01*
X36543242Y-21320596D01*
X36498526Y-21325000D01*
X35605474Y-21325000D01*
X35560758Y-21320596D01*
X35523663Y-21309343D01*
X35489485Y-21291075D01*
X35459519Y-21266481D01*
X35434925Y-21236515D01*
X35416657Y-21202337D01*
X35405404Y-21165242D01*
X35401000Y-21120526D01*
X35401000Y-20027474D01*
X35405404Y-19982758D01*
X35416657Y-19945663D01*
X35434925Y-19911485D01*
X35459519Y-19881519D01*
X35489485Y-19856925D01*
X35523663Y-19838657D01*
X35560758Y-19827404D01*
X35605474Y-19823000D01*
X36498526Y-19823000D01*
X36543242Y-19827404D01*
G37*
G36*
X11905242Y-19827404D02*
G01*
X11942337Y-19838657D01*
X11976515Y-19856925D01*
X12006481Y-19881519D01*
X12031075Y-19911485D01*
X12049343Y-19945663D01*
X12060596Y-19982758D01*
X12065000Y-20027474D01*
X12065000Y-21120526D01*
X12060596Y-21165242D01*
X12049343Y-21202337D01*
X12031075Y-21236515D01*
X12006481Y-21266481D01*
X11976515Y-21291075D01*
X11942337Y-21309343D01*
X11905242Y-21320596D01*
X11860526Y-21325000D01*
X10967474Y-21325000D01*
X10922758Y-21320596D01*
X10885663Y-21309343D01*
X10851485Y-21291075D01*
X10821519Y-21266481D01*
X10796925Y-21236515D01*
X10778657Y-21202337D01*
X10767404Y-21165242D01*
X10763000Y-21120526D01*
X10763000Y-20027474D01*
X10767404Y-19982758D01*
X10778657Y-19945663D01*
X10796925Y-19911485D01*
X10821519Y-19881519D01*
X10851485Y-19856925D01*
X10885663Y-19838657D01*
X10922758Y-19827404D01*
X10967474Y-19823000D01*
X11860526Y-19823000D01*
X11905242Y-19827404D01*
G37*
G36*
X68741000Y-19036600D02*
G01*
X65139000Y-19036600D01*
X65139000Y-17234600D01*
X68741000Y-17234600D01*
X68741000Y-19036600D01*
G37*
G36*
X49161000Y-19036600D02*
G01*
X45559000Y-19036600D01*
X45559000Y-17234600D01*
X49161000Y-17234600D01*
X49161000Y-19036600D01*
G37*
G36*
X30431629Y-17266704D02*
G01*
X30586501Y-17330854D01*
X30725882Y-17423986D01*
X30844416Y-17542520D01*
X30937548Y-17681901D01*
X31001698Y-17836773D01*
X31034401Y-18001185D01*
X31034401Y-18168817D01*
X31001698Y-18333229D01*
X30937548Y-18488101D01*
X30844416Y-18627482D01*
X30725882Y-18746016D01*
X30586501Y-18839148D01*
X30431629Y-18903298D01*
X30267217Y-18936001D01*
X30099585Y-18936001D01*
X29935173Y-18903298D01*
X29780301Y-18839148D01*
X29640920Y-18746016D01*
X29522386Y-18627482D01*
X29429254Y-18488101D01*
X29365104Y-18333229D01*
X29332401Y-18168817D01*
X29332401Y-18001185D01*
X29365104Y-17836773D01*
X29429254Y-17681901D01*
X29522386Y-17542520D01*
X29640920Y-17423986D01*
X29780301Y-17330854D01*
X29935173Y-17266704D01*
X30099585Y-17234001D01*
X30267217Y-17234001D01*
X30431629Y-17266704D01*
G37*
G36*
X15191629Y-17266704D02*
G01*
X15346501Y-17330854D01*
X15485882Y-17423986D01*
X15604416Y-17542520D01*
X15697548Y-17681901D01*
X15761698Y-17836773D01*
X15794401Y-18001185D01*
X15794401Y-18168817D01*
X15761698Y-18333229D01*
X15697548Y-18488101D01*
X15604416Y-18627482D01*
X15485882Y-18746016D01*
X15346501Y-18839148D01*
X15191629Y-18903298D01*
X15027217Y-18936001D01*
X14859585Y-18936001D01*
X14695173Y-18903298D01*
X14540301Y-18839148D01*
X14400920Y-18746016D01*
X14282386Y-18627482D01*
X14189254Y-18488101D01*
X14125104Y-18333229D01*
X14092401Y-18168817D01*
X14092401Y-18001185D01*
X14125104Y-17836773D01*
X14189254Y-17681901D01*
X14282386Y-17542520D01*
X14400920Y-17423986D01*
X14540301Y-17330854D01*
X14695173Y-17266704D01*
X14859585Y-17234001D01*
X15027217Y-17234001D01*
X15191629Y-17266704D01*
G37*
G36*
X36543242Y-17287404D02*
G01*
X36580337Y-17298657D01*
X36614515Y-17316925D01*
X36644481Y-17341519D01*
X36669075Y-17371485D01*
X36687343Y-17405663D01*
X36698596Y-17442758D01*
X36703000Y-17487474D01*
X36703000Y-18580526D01*
X36698596Y-18625242D01*
X36687343Y-18662337D01*
X36669075Y-18696515D01*
X36644481Y-18726481D01*
X36614515Y-18751075D01*
X36580337Y-18769343D01*
X36543242Y-18780596D01*
X36498526Y-18785000D01*
X35605474Y-18785000D01*
X35560758Y-18780596D01*
X35523663Y-18769343D01*
X35489485Y-18751075D01*
X35459519Y-18726481D01*
X35434925Y-18696515D01*
X35416657Y-18662337D01*
X35405404Y-18625242D01*
X35401000Y-18580526D01*
X35401000Y-17487474D01*
X35405404Y-17442758D01*
X35416657Y-17405663D01*
X35434925Y-17371485D01*
X35459519Y-17341519D01*
X35489485Y-17316925D01*
X35523663Y-17298657D01*
X35560758Y-17287404D01*
X35605474Y-17283000D01*
X36498526Y-17283000D01*
X36543242Y-17287404D01*
G37*
G36*
X34543242Y-17287404D02*
G01*
X34580337Y-17298657D01*
X34614515Y-17316925D01*
X34644481Y-17341519D01*
X34669075Y-17371485D01*
X34687343Y-17405663D01*
X34698596Y-17442758D01*
X34703000Y-17487474D01*
X34703000Y-18580526D01*
X34698596Y-18625242D01*
X34687343Y-18662337D01*
X34669075Y-18696515D01*
X34644481Y-18726481D01*
X34614515Y-18751075D01*
X34580337Y-18769343D01*
X34543242Y-18780596D01*
X34498526Y-18785000D01*
X33605474Y-18785000D01*
X33560758Y-18780596D01*
X33523663Y-18769343D01*
X33489485Y-18751075D01*
X33459519Y-18726481D01*
X33434925Y-18696515D01*
X33416657Y-18662337D01*
X33405404Y-18625242D01*
X33401000Y-18580526D01*
X33401000Y-17487474D01*
X33405404Y-17442758D01*
X33416657Y-17405663D01*
X33434925Y-17371485D01*
X33459519Y-17341519D01*
X33489485Y-17316925D01*
X33523663Y-17298657D01*
X33560758Y-17287404D01*
X33605474Y-17283000D01*
X34498526Y-17283000D01*
X34543242Y-17287404D01*
G37*
G36*
X11905242Y-17287404D02*
G01*
X11942337Y-17298657D01*
X11976515Y-17316925D01*
X12006481Y-17341519D01*
X12031075Y-17371485D01*
X12049343Y-17405663D01*
X12060596Y-17442758D01*
X12065000Y-17487474D01*
X12065000Y-18580526D01*
X12060596Y-18625242D01*
X12049343Y-18662337D01*
X12031075Y-18696515D01*
X12006481Y-18726481D01*
X11976515Y-18751075D01*
X11942337Y-18769343D01*
X11905242Y-18780596D01*
X11860526Y-18785000D01*
X10967474Y-18785000D01*
X10922758Y-18780596D01*
X10885663Y-18769343D01*
X10851485Y-18751075D01*
X10821519Y-18726481D01*
X10796925Y-18696515D01*
X10778657Y-18662337D01*
X10767404Y-18625242D01*
X10763000Y-18580526D01*
X10763000Y-17487474D01*
X10767404Y-17442758D01*
X10778657Y-17405663D01*
X10796925Y-17371485D01*
X10821519Y-17341519D01*
X10851485Y-17316925D01*
X10885663Y-17298657D01*
X10922758Y-17287404D01*
X10967474Y-17283000D01*
X11860526Y-17283000D01*
X11905242Y-17287404D01*
G37*
G36*
X9905242Y-17287404D02*
G01*
X9942337Y-17298657D01*
X9976515Y-17316925D01*
X10006481Y-17341519D01*
X10031075Y-17371485D01*
X10049343Y-17405663D01*
X10060596Y-17442758D01*
X10065000Y-17487474D01*
X10065000Y-18580526D01*
X10060596Y-18625242D01*
X10049343Y-18662337D01*
X10031075Y-18696515D01*
X10006481Y-18726481D01*
X9976515Y-18751075D01*
X9942337Y-18769343D01*
X9905242Y-18780596D01*
X9860526Y-18785000D01*
X8967474Y-18785000D01*
X8922758Y-18780596D01*
X8885663Y-18769343D01*
X8851485Y-18751075D01*
X8821519Y-18726481D01*
X8796925Y-18696515D01*
X8778657Y-18662337D01*
X8767404Y-18625242D01*
X8763000Y-18580526D01*
X8763000Y-17487474D01*
X8767404Y-17442758D01*
X8778657Y-17405663D01*
X8796925Y-17371485D01*
X8821519Y-17341519D01*
X8851485Y-17316925D01*
X8885663Y-17298657D01*
X8922758Y-17287404D01*
X8967474Y-17283000D01*
X9860526Y-17283000D01*
X9905242Y-17287404D01*
G37*
G36*
X68741000Y-16496600D02*
G01*
X65139000Y-16496600D01*
X65139000Y-14694600D01*
X68741000Y-14694600D01*
X68741000Y-16496600D01*
G37*
G36*
X49161000Y-16496600D02*
G01*
X45559000Y-16496600D01*
X45559000Y-14694600D01*
X49161000Y-14694600D01*
X49161000Y-16496600D01*
G37*
G36*
X15191629Y-14726704D02*
G01*
X15346501Y-14790854D01*
X15485882Y-14883986D01*
X15604416Y-15002520D01*
X15697548Y-15141901D01*
X15761698Y-15296773D01*
X15794401Y-15461185D01*
X15794401Y-15628817D01*
X15761698Y-15793229D01*
X15697548Y-15948101D01*
X15604416Y-16087482D01*
X15485882Y-16206016D01*
X15346501Y-16299148D01*
X15191629Y-16363298D01*
X15027217Y-16396001D01*
X14859585Y-16396001D01*
X14695173Y-16363298D01*
X14540301Y-16299148D01*
X14400920Y-16206016D01*
X14282386Y-16087482D01*
X14189254Y-15948101D01*
X14125104Y-15793229D01*
X14092401Y-15628817D01*
X14092401Y-15461185D01*
X14125104Y-15296773D01*
X14189254Y-15141901D01*
X14282386Y-15002520D01*
X14400920Y-14883986D01*
X14540301Y-14790854D01*
X14695173Y-14726704D01*
X14859585Y-14694001D01*
X15027217Y-14694001D01*
X15191629Y-14726704D01*
G37*
G36*
X30431629Y-14726704D02*
G01*
X30586501Y-14790854D01*
X30725882Y-14883986D01*
X30844416Y-15002520D01*
X30937548Y-15141901D01*
X31001698Y-15296773D01*
X31034401Y-15461185D01*
X31034401Y-15628817D01*
X31001698Y-15793229D01*
X30937548Y-15948101D01*
X30844416Y-16087482D01*
X30725882Y-16206016D01*
X30586501Y-16299148D01*
X30431629Y-16363298D01*
X30267217Y-16396001D01*
X30099585Y-16396001D01*
X29935173Y-16363298D01*
X29780301Y-16299148D01*
X29640920Y-16206016D01*
X29522386Y-16087482D01*
X29429254Y-15948101D01*
X29365104Y-15793229D01*
X29332401Y-15628817D01*
X29332401Y-15461185D01*
X29365104Y-15296773D01*
X29429254Y-15141901D01*
X29522386Y-15002520D01*
X29640920Y-14883986D01*
X29780301Y-14790854D01*
X29935173Y-14726704D01*
X30099585Y-14694001D01*
X30267217Y-14694001D01*
X30431629Y-14726704D01*
G37*
G36*
X34543242Y-14747404D02*
G01*
X34580337Y-14758657D01*
X34614515Y-14776925D01*
X34644481Y-14801519D01*
X34669075Y-14831485D01*
X34687343Y-14865663D01*
X34698596Y-14902758D01*
X34703000Y-14947474D01*
X34703000Y-16040526D01*
X34698596Y-16085242D01*
X34687343Y-16122337D01*
X34669075Y-16156515D01*
X34644481Y-16186481D01*
X34614515Y-16211075D01*
X34580337Y-16229343D01*
X34543242Y-16240596D01*
X34498526Y-16245000D01*
X33605474Y-16245000D01*
X33560758Y-16240596D01*
X33523663Y-16229343D01*
X33489485Y-16211075D01*
X33459519Y-16186481D01*
X33434925Y-16156515D01*
X33416657Y-16122337D01*
X33405404Y-16085242D01*
X33401000Y-16040526D01*
X33401000Y-14947474D01*
X33405404Y-14902758D01*
X33416657Y-14865663D01*
X33434925Y-14831485D01*
X33459519Y-14801519D01*
X33489485Y-14776925D01*
X33523663Y-14758657D01*
X33560758Y-14747404D01*
X33605474Y-14743000D01*
X34498526Y-14743000D01*
X34543242Y-14747404D01*
G37*
G36*
X11905242Y-14747404D02*
G01*
X11942337Y-14758657D01*
X11976515Y-14776925D01*
X12006481Y-14801519D01*
X12031075Y-14831485D01*
X12049343Y-14865663D01*
X12060596Y-14902758D01*
X12065000Y-14947474D01*
X12065000Y-16040526D01*
X12060596Y-16085242D01*
X12049343Y-16122337D01*
X12031075Y-16156515D01*
X12006481Y-16186481D01*
X11976515Y-16211075D01*
X11942337Y-16229343D01*
X11905242Y-16240596D01*
X11860526Y-16245000D01*
X10967474Y-16245000D01*
X10922758Y-16240596D01*
X10885663Y-16229343D01*
X10851485Y-16211075D01*
X10821519Y-16186481D01*
X10796925Y-16156515D01*
X10778657Y-16122337D01*
X10767404Y-16085242D01*
X10763000Y-16040526D01*
X10763000Y-14947474D01*
X10767404Y-14902758D01*
X10778657Y-14865663D01*
X10796925Y-14831485D01*
X10821519Y-14801519D01*
X10851485Y-14776925D01*
X10885663Y-14758657D01*
X10922758Y-14747404D01*
X10967474Y-14743000D01*
X11860526Y-14743000D01*
X11905242Y-14747404D01*
G37*
G36*
X9905242Y-14747404D02*
G01*
X9942337Y-14758657D01*
X9976515Y-14776925D01*
X10006481Y-14801519D01*
X10031075Y-14831485D01*
X10049343Y-14865663D01*
X10060596Y-14902758D01*
X10065000Y-14947474D01*
X10065000Y-16040526D01*
X10060596Y-16085242D01*
X10049343Y-16122337D01*
X10031075Y-16156515D01*
X10006481Y-16186481D01*
X9976515Y-16211075D01*
X9942337Y-16229343D01*
X9905242Y-16240596D01*
X9860526Y-16245000D01*
X8967474Y-16245000D01*
X8922758Y-16240596D01*
X8885663Y-16229343D01*
X8851485Y-16211075D01*
X8821519Y-16186481D01*
X8796925Y-16156515D01*
X8778657Y-16122337D01*
X8767404Y-16085242D01*
X8763000Y-16040526D01*
X8763000Y-14947474D01*
X8767404Y-14902758D01*
X8778657Y-14865663D01*
X8796925Y-14831485D01*
X8821519Y-14801519D01*
X8851485Y-14776925D01*
X8885663Y-14758657D01*
X8922758Y-14747404D01*
X8967474Y-14743000D01*
X9860526Y-14743000D01*
X9905242Y-14747404D01*
G37*
G36*
X36543242Y-14747404D02*
G01*
X36580337Y-14758657D01*
X36614515Y-14776925D01*
X36644481Y-14801519D01*
X36669075Y-14831485D01*
X36687343Y-14865663D01*
X36698596Y-14902758D01*
X36703000Y-14947474D01*
X36703000Y-16040526D01*
X36698596Y-16085242D01*
X36687343Y-16122337D01*
X36669075Y-16156515D01*
X36644481Y-16186481D01*
X36614515Y-16211075D01*
X36580337Y-16229343D01*
X36543242Y-16240596D01*
X36498526Y-16245000D01*
X35605474Y-16245000D01*
X35560758Y-16240596D01*
X35523663Y-16229343D01*
X35489485Y-16211075D01*
X35459519Y-16186481D01*
X35434925Y-16156515D01*
X35416657Y-16122337D01*
X35405404Y-16085242D01*
X35401000Y-16040526D01*
X35401000Y-14947474D01*
X35405404Y-14902758D01*
X35416657Y-14865663D01*
X35434925Y-14831485D01*
X35459519Y-14801519D01*
X35489485Y-14776925D01*
X35523663Y-14758657D01*
X35560758Y-14747404D01*
X35605474Y-14743000D01*
X36498526Y-14743000D01*
X36543242Y-14747404D01*
G37*
G36*
X68741000Y-13956600D02*
G01*
X65139000Y-13956600D01*
X65139000Y-12154600D01*
X68741000Y-12154600D01*
X68741000Y-13956600D01*
G37*
G36*
X49161000Y-13956600D02*
G01*
X45559000Y-13956600D01*
X45559000Y-12154600D01*
X49161000Y-12154600D01*
X49161000Y-13956600D01*
G37*
G36*
X15191629Y-12186704D02*
G01*
X15346501Y-12250854D01*
X15485882Y-12343986D01*
X15604416Y-12462520D01*
X15697548Y-12601901D01*
X15761698Y-12756773D01*
X15794401Y-12921185D01*
X15794401Y-13088817D01*
X15761698Y-13253229D01*
X15697548Y-13408101D01*
X15604416Y-13547482D01*
X15485882Y-13666016D01*
X15346501Y-13759148D01*
X15191629Y-13823298D01*
X15027217Y-13856001D01*
X14859585Y-13856001D01*
X14695173Y-13823298D01*
X14540301Y-13759148D01*
X14400920Y-13666016D01*
X14282386Y-13547482D01*
X14189254Y-13408101D01*
X14125104Y-13253229D01*
X14092401Y-13088817D01*
X14092401Y-12921185D01*
X14125104Y-12756773D01*
X14189254Y-12601901D01*
X14282386Y-12462520D01*
X14400920Y-12343986D01*
X14540301Y-12250854D01*
X14695173Y-12186704D01*
X14859585Y-12154001D01*
X15027217Y-12154001D01*
X15191629Y-12186704D01*
G37*
G36*
X30431629Y-12186704D02*
G01*
X30586501Y-12250854D01*
X30725882Y-12343986D01*
X30844416Y-12462520D01*
X30937548Y-12601901D01*
X31001698Y-12756773D01*
X31034401Y-12921185D01*
X31034401Y-13088817D01*
X31001698Y-13253229D01*
X30937548Y-13408101D01*
X30844416Y-13547482D01*
X30725882Y-13666016D01*
X30586501Y-13759148D01*
X30431629Y-13823298D01*
X30267217Y-13856001D01*
X30099585Y-13856001D01*
X29935173Y-13823298D01*
X29780301Y-13759148D01*
X29640920Y-13666016D01*
X29522386Y-13547482D01*
X29429254Y-13408101D01*
X29365104Y-13253229D01*
X29332401Y-13088817D01*
X29332401Y-12921185D01*
X29365104Y-12756773D01*
X29429254Y-12601901D01*
X29522386Y-12462520D01*
X29640920Y-12343986D01*
X29780301Y-12250854D01*
X29935173Y-12186704D01*
X30099585Y-12154001D01*
X30267217Y-12154001D01*
X30431629Y-12186704D01*
G37*
G36*
X34289242Y-12207404D02*
G01*
X34326337Y-12218657D01*
X34360515Y-12236925D01*
X34390481Y-12261519D01*
X34415075Y-12291485D01*
X34433343Y-12325663D01*
X34444596Y-12362758D01*
X34449000Y-12407474D01*
X34449000Y-13500526D01*
X34444596Y-13545242D01*
X34433343Y-13582337D01*
X34415075Y-13616515D01*
X34390481Y-13646481D01*
X34360515Y-13671075D01*
X34326337Y-13689343D01*
X34289242Y-13700596D01*
X34244526Y-13705000D01*
X33351474Y-13705000D01*
X33306758Y-13700596D01*
X33269663Y-13689343D01*
X33235485Y-13671075D01*
X33205519Y-13646481D01*
X33180925Y-13616515D01*
X33162657Y-13582337D01*
X33151404Y-13545242D01*
X33147000Y-13500526D01*
X33147000Y-12407474D01*
X33151404Y-12362758D01*
X33162657Y-12325663D01*
X33180925Y-12291485D01*
X33205519Y-12261519D01*
X33235485Y-12236925D01*
X33269663Y-12218657D01*
X33306758Y-12207404D01*
X33351474Y-12203000D01*
X34244526Y-12203000D01*
X34289242Y-12207404D01*
G37*
G36*
X9905242Y-12207404D02*
G01*
X9942337Y-12218657D01*
X9976515Y-12236925D01*
X10006481Y-12261519D01*
X10031075Y-12291485D01*
X10049343Y-12325663D01*
X10060596Y-12362758D01*
X10065000Y-12407474D01*
X10065000Y-13500526D01*
X10060596Y-13545242D01*
X10049343Y-13582337D01*
X10031075Y-13616515D01*
X10006481Y-13646481D01*
X9976515Y-13671075D01*
X9942337Y-13689343D01*
X9905242Y-13700596D01*
X9860526Y-13705000D01*
X8967474Y-13705000D01*
X8922758Y-13700596D01*
X8885663Y-13689343D01*
X8851485Y-13671075D01*
X8821519Y-13646481D01*
X8796925Y-13616515D01*
X8778657Y-13582337D01*
X8767404Y-13545242D01*
X8763000Y-13500526D01*
X8763000Y-12407474D01*
X8767404Y-12362758D01*
X8778657Y-12325663D01*
X8796925Y-12291485D01*
X8821519Y-12261519D01*
X8851485Y-12236925D01*
X8885663Y-12218657D01*
X8922758Y-12207404D01*
X8967474Y-12203000D01*
X9860526Y-12203000D01*
X9905242Y-12207404D01*
G37*
G36*
X11905242Y-12207404D02*
G01*
X11942337Y-12218657D01*
X11976515Y-12236925D01*
X12006481Y-12261519D01*
X12031075Y-12291485D01*
X12049343Y-12325663D01*
X12060596Y-12362758D01*
X12065000Y-12407474D01*
X12065000Y-13500526D01*
X12060596Y-13545242D01*
X12049343Y-13582337D01*
X12031075Y-13616515D01*
X12006481Y-13646481D01*
X11976515Y-13671075D01*
X11942337Y-13689343D01*
X11905242Y-13700596D01*
X11860526Y-13705000D01*
X10967474Y-13705000D01*
X10922758Y-13700596D01*
X10885663Y-13689343D01*
X10851485Y-13671075D01*
X10821519Y-13646481D01*
X10796925Y-13616515D01*
X10778657Y-13582337D01*
X10767404Y-13545242D01*
X10763000Y-13500526D01*
X10763000Y-12407474D01*
X10767404Y-12362758D01*
X10778657Y-12325663D01*
X10796925Y-12291485D01*
X10821519Y-12261519D01*
X10851485Y-12236925D01*
X10885663Y-12218657D01*
X10922758Y-12207404D01*
X10967474Y-12203000D01*
X11860526Y-12203000D01*
X11905242Y-12207404D01*
G37*
G36*
X36289242Y-12207404D02*
G01*
X36326337Y-12218657D01*
X36360515Y-12236925D01*
X36390481Y-12261519D01*
X36415075Y-12291485D01*
X36433343Y-12325663D01*
X36444596Y-12362758D01*
X36449000Y-12407474D01*
X36449000Y-13500526D01*
X36444596Y-13545242D01*
X36433343Y-13582337D01*
X36415075Y-13616515D01*
X36390481Y-13646481D01*
X36360515Y-13671075D01*
X36326337Y-13689343D01*
X36289242Y-13700596D01*
X36244526Y-13705000D01*
X35351474Y-13705000D01*
X35306758Y-13700596D01*
X35269663Y-13689343D01*
X35235485Y-13671075D01*
X35205519Y-13646481D01*
X35180925Y-13616515D01*
X35162657Y-13582337D01*
X35151404Y-13545242D01*
X35147000Y-13500526D01*
X35147000Y-12407474D01*
X35151404Y-12362758D01*
X35162657Y-12325663D01*
X35180925Y-12291485D01*
X35205519Y-12261519D01*
X35235485Y-12236925D01*
X35269663Y-12218657D01*
X35306758Y-12207404D01*
X35351474Y-12203000D01*
X36244526Y-12203000D01*
X36289242Y-12207404D01*
G37*
G36*
X49161000Y-11416600D02*
G01*
X45559000Y-11416600D01*
X45559000Y-9614600D01*
X49161000Y-9614600D01*
X49161000Y-11416600D01*
G37*
G36*
X68741000Y-11416600D02*
G01*
X65139000Y-11416600D01*
X65139000Y-9614600D01*
X68741000Y-9614600D01*
X68741000Y-11416600D01*
G37*
G36*
X30431629Y-9646704D02*
G01*
X30586501Y-9710854D01*
X30725882Y-9803986D01*
X30844416Y-9922520D01*
X30937548Y-10061901D01*
X31001698Y-10216773D01*
X31034401Y-10381185D01*
X31034401Y-10548817D01*
X31001698Y-10713229D01*
X30937548Y-10868101D01*
X30844416Y-11007482D01*
X30725882Y-11126016D01*
X30586501Y-11219148D01*
X30431629Y-11283298D01*
X30267217Y-11316001D01*
X30099585Y-11316001D01*
X29935173Y-11283298D01*
X29780301Y-11219148D01*
X29640920Y-11126016D01*
X29522386Y-11007482D01*
X29429254Y-10868101D01*
X29365104Y-10713229D01*
X29332401Y-10548817D01*
X29332401Y-10381185D01*
X29365104Y-10216773D01*
X29429254Y-10061901D01*
X29522386Y-9922520D01*
X29640920Y-9803986D01*
X29780301Y-9710854D01*
X29935173Y-9646704D01*
X30099585Y-9614001D01*
X30267217Y-9614001D01*
X30431629Y-9646704D01*
G37*
G36*
X15191629Y-9646704D02*
G01*
X15346501Y-9710854D01*
X15485882Y-9803986D01*
X15604416Y-9922520D01*
X15697548Y-10061901D01*
X15761698Y-10216773D01*
X15794401Y-10381185D01*
X15794401Y-10548817D01*
X15761698Y-10713229D01*
X15697548Y-10868101D01*
X15604416Y-11007482D01*
X15485882Y-11126016D01*
X15346501Y-11219148D01*
X15191629Y-11283298D01*
X15027217Y-11316001D01*
X14859585Y-11316001D01*
X14695173Y-11283298D01*
X14540301Y-11219148D01*
X14400920Y-11126016D01*
X14282386Y-11007482D01*
X14189254Y-10868101D01*
X14125104Y-10713229D01*
X14092401Y-10548817D01*
X14092401Y-10381185D01*
X14125104Y-10216773D01*
X14189254Y-10061901D01*
X14282386Y-9922520D01*
X14400920Y-9803986D01*
X14540301Y-9710854D01*
X14695173Y-9646704D01*
X14859585Y-9614001D01*
X15027217Y-9614001D01*
X15191629Y-9646704D01*
G37*
G36*
X11905242Y-9667404D02*
G01*
X11942337Y-9678657D01*
X11976515Y-9696925D01*
X12006481Y-9721519D01*
X12031075Y-9751485D01*
X12049343Y-9785663D01*
X12060596Y-9822758D01*
X12065000Y-9867474D01*
X12065000Y-10960526D01*
X12060596Y-11005242D01*
X12049343Y-11042337D01*
X12031075Y-11076515D01*
X12006481Y-11106481D01*
X11976515Y-11131075D01*
X11942337Y-11149343D01*
X11905242Y-11160596D01*
X11860526Y-11165000D01*
X10967474Y-11165000D01*
X10922758Y-11160596D01*
X10885663Y-11149343D01*
X10851485Y-11131075D01*
X10821519Y-11106481D01*
X10796925Y-11076515D01*
X10778657Y-11042337D01*
X10767404Y-11005242D01*
X10763000Y-10960526D01*
X10763000Y-9867474D01*
X10767404Y-9822758D01*
X10778657Y-9785663D01*
X10796925Y-9751485D01*
X10821519Y-9721519D01*
X10851485Y-9696925D01*
X10885663Y-9678657D01*
X10922758Y-9667404D01*
X10967474Y-9663000D01*
X11860526Y-9663000D01*
X11905242Y-9667404D01*
G37*
G36*
X36289242Y-9667404D02*
G01*
X36326337Y-9678657D01*
X36360515Y-9696925D01*
X36390481Y-9721519D01*
X36415075Y-9751485D01*
X36433343Y-9785663D01*
X36444596Y-9822758D01*
X36449000Y-9867474D01*
X36449000Y-10960526D01*
X36444596Y-11005242D01*
X36433343Y-11042337D01*
X36415075Y-11076515D01*
X36390481Y-11106481D01*
X36360515Y-11131075D01*
X36326337Y-11149343D01*
X36289242Y-11160596D01*
X36244526Y-11165000D01*
X35351474Y-11165000D01*
X35306758Y-11160596D01*
X35269663Y-11149343D01*
X35235485Y-11131075D01*
X35205519Y-11106481D01*
X35180925Y-11076515D01*
X35162657Y-11042337D01*
X35151404Y-11005242D01*
X35147000Y-10960526D01*
X35147000Y-9867474D01*
X35151404Y-9822758D01*
X35162657Y-9785663D01*
X35180925Y-9751485D01*
X35205519Y-9721519D01*
X35235485Y-9696925D01*
X35269663Y-9678657D01*
X35306758Y-9667404D01*
X35351474Y-9663000D01*
X36244526Y-9663000D01*
X36289242Y-9667404D01*
G37*
G36*
X34289242Y-9667404D02*
G01*
X34326337Y-9678657D01*
X34360515Y-9696925D01*
X34390481Y-9721519D01*
X34415075Y-9751485D01*
X34433343Y-9785663D01*
X34444596Y-9822758D01*
X34449000Y-9867474D01*
X34449000Y-10960526D01*
X34444596Y-11005242D01*
X34433343Y-11042337D01*
X34415075Y-11076515D01*
X34390481Y-11106481D01*
X34360515Y-11131075D01*
X34326337Y-11149343D01*
X34289242Y-11160596D01*
X34244526Y-11165000D01*
X33351474Y-11165000D01*
X33306758Y-11160596D01*
X33269663Y-11149343D01*
X33235485Y-11131075D01*
X33205519Y-11106481D01*
X33180925Y-11076515D01*
X33162657Y-11042337D01*
X33151404Y-11005242D01*
X33147000Y-10960526D01*
X33147000Y-9867474D01*
X33151404Y-9822758D01*
X33162657Y-9785663D01*
X33180925Y-9751485D01*
X33205519Y-9721519D01*
X33235485Y-9696925D01*
X33269663Y-9678657D01*
X33306758Y-9667404D01*
X33351474Y-9663000D01*
X34244526Y-9663000D01*
X34289242Y-9667404D01*
G37*
G36*
X9905242Y-9667404D02*
G01*
X9942337Y-9678657D01*
X9976515Y-9696925D01*
X10006481Y-9721519D01*
X10031075Y-9751485D01*
X10049343Y-9785663D01*
X10060596Y-9822758D01*
X10065000Y-9867474D01*
X10065000Y-10960526D01*
X10060596Y-11005242D01*
X10049343Y-11042337D01*
X10031075Y-11076515D01*
X10006481Y-11106481D01*
X9976515Y-11131075D01*
X9942337Y-11149343D01*
X9905242Y-11160596D01*
X9860526Y-11165000D01*
X8967474Y-11165000D01*
X8922758Y-11160596D01*
X8885663Y-11149343D01*
X8851485Y-11131075D01*
X8821519Y-11106481D01*
X8796925Y-11076515D01*
X8778657Y-11042337D01*
X8767404Y-11005242D01*
X8763000Y-10960526D01*
X8763000Y-9867474D01*
X8767404Y-9822758D01*
X8778657Y-9785663D01*
X8796925Y-9751485D01*
X8821519Y-9721519D01*
X8851485Y-9696925D01*
X8885663Y-9678657D01*
X8922758Y-9667404D01*
X8967474Y-9663000D01*
X9860526Y-9663000D01*
X9905242Y-9667404D01*
G37*
G36*
X68741000Y-8876600D02*
G01*
X65139000Y-8876600D01*
X65139000Y-7074600D01*
X68741000Y-7074600D01*
X68741000Y-8876600D01*
G37*
G36*
X49161000Y-8876600D02*
G01*
X45559000Y-8876600D01*
X45559000Y-7074600D01*
X49161000Y-7074600D01*
X49161000Y-8876600D01*
G37*
G36*
X30431629Y-7106704D02*
G01*
X30586501Y-7170854D01*
X30725882Y-7263986D01*
X30844416Y-7382520D01*
X30937548Y-7521901D01*
X31001698Y-7676773D01*
X31034401Y-7841185D01*
X31034401Y-8008817D01*
X31001698Y-8173229D01*
X30937548Y-8328101D01*
X30844416Y-8467482D01*
X30725882Y-8586016D01*
X30586501Y-8679148D01*
X30431629Y-8743298D01*
X30267217Y-8776001D01*
X30099585Y-8776001D01*
X29935173Y-8743298D01*
X29780301Y-8679148D01*
X29640920Y-8586016D01*
X29522386Y-8467482D01*
X29429254Y-8328101D01*
X29365104Y-8173229D01*
X29332401Y-8008817D01*
X29332401Y-7841185D01*
X29365104Y-7676773D01*
X29429254Y-7521901D01*
X29522386Y-7382520D01*
X29640920Y-7263986D01*
X29780301Y-7170854D01*
X29935173Y-7106704D01*
X30099585Y-7074001D01*
X30267217Y-7074001D01*
X30431629Y-7106704D01*
G37*
G36*
X15191629Y-7106704D02*
G01*
X15346501Y-7170854D01*
X15485882Y-7263986D01*
X15604416Y-7382520D01*
X15697548Y-7521901D01*
X15761698Y-7676773D01*
X15794401Y-7841185D01*
X15794401Y-8008817D01*
X15761698Y-8173229D01*
X15697548Y-8328101D01*
X15604416Y-8467482D01*
X15485882Y-8586016D01*
X15346501Y-8679148D01*
X15191629Y-8743298D01*
X15027217Y-8776001D01*
X14859585Y-8776001D01*
X14695173Y-8743298D01*
X14540301Y-8679148D01*
X14400920Y-8586016D01*
X14282386Y-8467482D01*
X14189254Y-8328101D01*
X14125104Y-8173229D01*
X14092401Y-8008817D01*
X14092401Y-7841185D01*
X14125104Y-7676773D01*
X14189254Y-7521901D01*
X14282386Y-7382520D01*
X14400920Y-7263986D01*
X14540301Y-7170854D01*
X14695173Y-7106704D01*
X14859585Y-7074001D01*
X15027217Y-7074001D01*
X15191629Y-7106704D01*
G37*
G36*
X36289242Y-7127404D02*
G01*
X36326337Y-7138657D01*
X36360515Y-7156925D01*
X36390481Y-7181519D01*
X36415075Y-7211485D01*
X36433343Y-7245663D01*
X36444596Y-7282758D01*
X36449000Y-7327474D01*
X36449000Y-8420526D01*
X36444596Y-8465242D01*
X36433343Y-8502337D01*
X36415075Y-8536515D01*
X36390481Y-8566481D01*
X36360515Y-8591075D01*
X36326337Y-8609343D01*
X36289242Y-8620596D01*
X36244526Y-8625000D01*
X35351474Y-8625000D01*
X35306758Y-8620596D01*
X35269663Y-8609343D01*
X35235485Y-8591075D01*
X35205519Y-8566481D01*
X35180925Y-8536515D01*
X35162657Y-8502337D01*
X35151404Y-8465242D01*
X35147000Y-8420526D01*
X35147000Y-7327474D01*
X35151404Y-7282758D01*
X35162657Y-7245663D01*
X35180925Y-7211485D01*
X35205519Y-7181519D01*
X35235485Y-7156925D01*
X35269663Y-7138657D01*
X35306758Y-7127404D01*
X35351474Y-7123000D01*
X36244526Y-7123000D01*
X36289242Y-7127404D01*
G37*
G36*
X11905242Y-7127404D02*
G01*
X11942337Y-7138657D01*
X11976515Y-7156925D01*
X12006481Y-7181519D01*
X12031075Y-7211485D01*
X12049343Y-7245663D01*
X12060596Y-7282758D01*
X12065000Y-7327474D01*
X12065000Y-8420526D01*
X12060596Y-8465242D01*
X12049343Y-8502337D01*
X12031075Y-8536515D01*
X12006481Y-8566481D01*
X11976515Y-8591075D01*
X11942337Y-8609343D01*
X11905242Y-8620596D01*
X11860526Y-8625000D01*
X10967474Y-8625000D01*
X10922758Y-8620596D01*
X10885663Y-8609343D01*
X10851485Y-8591075D01*
X10821519Y-8566481D01*
X10796925Y-8536515D01*
X10778657Y-8502337D01*
X10767404Y-8465242D01*
X10763000Y-8420526D01*
X10763000Y-7327474D01*
X10767404Y-7282758D01*
X10778657Y-7245663D01*
X10796925Y-7211485D01*
X10821519Y-7181519D01*
X10851485Y-7156925D01*
X10885663Y-7138657D01*
X10922758Y-7127404D01*
X10967474Y-7123000D01*
X11860526Y-7123000D01*
X11905242Y-7127404D01*
G37*
G36*
X9905242Y-7127404D02*
G01*
X9942337Y-7138657D01*
X9976515Y-7156925D01*
X10006481Y-7181519D01*
X10031075Y-7211485D01*
X10049343Y-7245663D01*
X10060596Y-7282758D01*
X10065000Y-7327474D01*
X10065000Y-8420526D01*
X10060596Y-8465242D01*
X10049343Y-8502337D01*
X10031075Y-8536515D01*
X10006481Y-8566481D01*
X9976515Y-8591075D01*
X9942337Y-8609343D01*
X9905242Y-8620596D01*
X9860526Y-8625000D01*
X8967474Y-8625000D01*
X8922758Y-8620596D01*
X8885663Y-8609343D01*
X8851485Y-8591075D01*
X8821519Y-8566481D01*
X8796925Y-8536515D01*
X8778657Y-8502337D01*
X8767404Y-8465242D01*
X8763000Y-8420526D01*
X8763000Y-7327474D01*
X8767404Y-7282758D01*
X8778657Y-7245663D01*
X8796925Y-7211485D01*
X8821519Y-7181519D01*
X8851485Y-7156925D01*
X8885663Y-7138657D01*
X8922758Y-7127404D01*
X8967474Y-7123000D01*
X9860526Y-7123000D01*
X9905242Y-7127404D01*
G37*
G36*
X34289242Y-7127404D02*
G01*
X34326337Y-7138657D01*
X34360515Y-7156925D01*
X34390481Y-7181519D01*
X34415075Y-7211485D01*
X34433343Y-7245663D01*
X34444596Y-7282758D01*
X34449000Y-7327474D01*
X34449000Y-8420526D01*
X34444596Y-8465242D01*
X34433343Y-8502337D01*
X34415075Y-8536515D01*
X34390481Y-8566481D01*
X34360515Y-8591075D01*
X34326337Y-8609343D01*
X34289242Y-8620596D01*
X34244526Y-8625000D01*
X33351474Y-8625000D01*
X33306758Y-8620596D01*
X33269663Y-8609343D01*
X33235485Y-8591075D01*
X33205519Y-8566481D01*
X33180925Y-8536515D01*
X33162657Y-8502337D01*
X33151404Y-8465242D01*
X33147000Y-8420526D01*
X33147000Y-7327474D01*
X33151404Y-7282758D01*
X33162657Y-7245663D01*
X33180925Y-7211485D01*
X33205519Y-7181519D01*
X33235485Y-7156925D01*
X33269663Y-7138657D01*
X33306758Y-7127404D01*
X33351474Y-7123000D01*
X34244526Y-7123000D01*
X34289242Y-7127404D01*
G37*
G36*
X68741000Y-6336600D02*
G01*
X65139000Y-6336600D01*
X65139000Y-4534600D01*
X68741000Y-4534600D01*
X68741000Y-6336600D01*
G37*
G36*
X49161000Y-6336600D02*
G01*
X45559000Y-6336600D01*
X45559000Y-4534600D01*
X49161000Y-4534600D01*
X49161000Y-6336600D01*
G37*
G36*
X30431629Y-4566704D02*
G01*
X30586501Y-4630854D01*
X30725882Y-4723986D01*
X30844416Y-4842520D01*
X30937548Y-4981901D01*
X31001698Y-5136773D01*
X31034401Y-5301185D01*
X31034401Y-5468817D01*
X31001698Y-5633229D01*
X30937548Y-5788101D01*
X30844416Y-5927482D01*
X30725882Y-6046016D01*
X30586501Y-6139148D01*
X30431629Y-6203298D01*
X30267217Y-6236001D01*
X30099585Y-6236001D01*
X29935173Y-6203298D01*
X29780301Y-6139148D01*
X29640920Y-6046016D01*
X29522386Y-5927482D01*
X29429254Y-5788101D01*
X29365104Y-5633229D01*
X29332401Y-5468817D01*
X29332401Y-5301185D01*
X29365104Y-5136773D01*
X29429254Y-4981901D01*
X29522386Y-4842520D01*
X29640920Y-4723986D01*
X29780301Y-4630854D01*
X29935173Y-4566704D01*
X30099585Y-4534001D01*
X30267217Y-4534001D01*
X30431629Y-4566704D01*
G37*
G36*
X15191629Y-4566704D02*
G01*
X15346501Y-4630854D01*
X15485882Y-4723986D01*
X15604416Y-4842520D01*
X15697548Y-4981901D01*
X15761698Y-5136773D01*
X15794401Y-5301185D01*
X15794401Y-5468817D01*
X15761698Y-5633229D01*
X15697548Y-5788101D01*
X15604416Y-5927482D01*
X15485882Y-6046016D01*
X15346501Y-6139148D01*
X15191629Y-6203298D01*
X15027217Y-6236001D01*
X14859585Y-6236001D01*
X14695173Y-6203298D01*
X14540301Y-6139148D01*
X14400920Y-6046016D01*
X14282386Y-5927482D01*
X14189254Y-5788101D01*
X14125104Y-5633229D01*
X14092401Y-5468817D01*
X14092401Y-5301185D01*
X14125104Y-5136773D01*
X14189254Y-4981901D01*
X14282386Y-4842520D01*
X14400920Y-4723986D01*
X14540301Y-4630854D01*
X14695173Y-4566704D01*
X14859585Y-4534001D01*
X15027217Y-4534001D01*
X15191629Y-4566704D01*
G37*
G36*
X34289242Y-4587404D02*
G01*
X34326337Y-4598657D01*
X34360515Y-4616925D01*
X34390481Y-4641519D01*
X34415075Y-4671485D01*
X34433343Y-4705663D01*
X34444596Y-4742758D01*
X34449000Y-4787474D01*
X34449000Y-5880526D01*
X34444596Y-5925242D01*
X34433343Y-5962337D01*
X34415075Y-5996515D01*
X34390481Y-6026481D01*
X34360515Y-6051075D01*
X34326337Y-6069343D01*
X34289242Y-6080596D01*
X34244526Y-6085000D01*
X33351474Y-6085000D01*
X33306758Y-6080596D01*
X33269663Y-6069343D01*
X33235485Y-6051075D01*
X33205519Y-6026481D01*
X33180925Y-5996515D01*
X33162657Y-5962337D01*
X33151404Y-5925242D01*
X33147000Y-5880526D01*
X33147000Y-4787474D01*
X33151404Y-4742758D01*
X33162657Y-4705663D01*
X33180925Y-4671485D01*
X33205519Y-4641519D01*
X33235485Y-4616925D01*
X33269663Y-4598657D01*
X33306758Y-4587404D01*
X33351474Y-4583000D01*
X34244526Y-4583000D01*
X34289242Y-4587404D01*
G37*
G36*
X11651242Y-4587404D02*
G01*
X11688337Y-4598657D01*
X11722515Y-4616925D01*
X11752481Y-4641519D01*
X11777075Y-4671485D01*
X11795343Y-4705663D01*
X11806596Y-4742758D01*
X11811000Y-4787474D01*
X11811000Y-5880526D01*
X11806596Y-5925242D01*
X11795343Y-5962337D01*
X11777075Y-5996515D01*
X11752481Y-6026481D01*
X11722515Y-6051075D01*
X11688337Y-6069343D01*
X11651242Y-6080596D01*
X11606526Y-6085000D01*
X10713474Y-6085000D01*
X10668758Y-6080596D01*
X10631663Y-6069343D01*
X10597485Y-6051075D01*
X10567519Y-6026481D01*
X10542925Y-5996515D01*
X10524657Y-5962337D01*
X10513404Y-5925242D01*
X10509000Y-5880526D01*
X10509000Y-4787474D01*
X10513404Y-4742758D01*
X10524657Y-4705663D01*
X10542925Y-4671485D01*
X10567519Y-4641519D01*
X10597485Y-4616925D01*
X10631663Y-4598657D01*
X10668758Y-4587404D01*
X10713474Y-4583000D01*
X11606526Y-4583000D01*
X11651242Y-4587404D01*
G37*
G36*
X9651242Y-4587404D02*
G01*
X9688337Y-4598657D01*
X9722515Y-4616925D01*
X9752481Y-4641519D01*
X9777075Y-4671485D01*
X9795343Y-4705663D01*
X9806596Y-4742758D01*
X9811000Y-4787474D01*
X9811000Y-5880526D01*
X9806596Y-5925242D01*
X9795343Y-5962337D01*
X9777075Y-5996515D01*
X9752481Y-6026481D01*
X9722515Y-6051075D01*
X9688337Y-6069343D01*
X9651242Y-6080596D01*
X9606526Y-6085000D01*
X8713474Y-6085000D01*
X8668758Y-6080596D01*
X8631663Y-6069343D01*
X8597485Y-6051075D01*
X8567519Y-6026481D01*
X8542925Y-5996515D01*
X8524657Y-5962337D01*
X8513404Y-5925242D01*
X8509000Y-5880526D01*
X8509000Y-4787474D01*
X8513404Y-4742758D01*
X8524657Y-4705663D01*
X8542925Y-4671485D01*
X8567519Y-4641519D01*
X8597485Y-4616925D01*
X8631663Y-4598657D01*
X8668758Y-4587404D01*
X8713474Y-4583000D01*
X9606526Y-4583000D01*
X9651242Y-4587404D01*
G37*
G36*
X36289242Y-4587404D02*
G01*
X36326337Y-4598657D01*
X36360515Y-4616925D01*
X36390481Y-4641519D01*
X36415075Y-4671485D01*
X36433343Y-4705663D01*
X36444596Y-4742758D01*
X36449000Y-4787474D01*
X36449000Y-5880526D01*
X36444596Y-5925242D01*
X36433343Y-5962337D01*
X36415075Y-5996515D01*
X36390481Y-6026481D01*
X36360515Y-6051075D01*
X36326337Y-6069343D01*
X36289242Y-6080596D01*
X36244526Y-6085000D01*
X35351474Y-6085000D01*
X35306758Y-6080596D01*
X35269663Y-6069343D01*
X35235485Y-6051075D01*
X35205519Y-6026481D01*
X35180925Y-5996515D01*
X35162657Y-5962337D01*
X35151404Y-5925242D01*
X35147000Y-5880526D01*
X35147000Y-4787474D01*
X35151404Y-4742758D01*
X35162657Y-4705663D01*
X35180925Y-4671485D01*
X35205519Y-4641519D01*
X35235485Y-4616925D01*
X35269663Y-4598657D01*
X35306758Y-4587404D01*
X35351474Y-4583000D01*
X36244526Y-4583000D01*
X36289242Y-4587404D01*
G37*
G36*
X68741000Y-3796600D02*
G01*
X65139000Y-3796600D01*
X65139000Y-1994600D01*
X68741000Y-1994600D01*
X68741000Y-3796600D01*
G37*
G36*
X49161000Y-3796600D02*
G01*
X45559000Y-3796600D01*
X45559000Y-1994600D01*
X49161000Y-1994600D01*
X49161000Y-3796600D01*
G37*
G36*
X15191629Y-2026704D02*
G01*
X15346501Y-2090854D01*
X15485882Y-2183986D01*
X15604416Y-2302520D01*
X15697548Y-2441901D01*
X15761698Y-2596773D01*
X15794401Y-2761185D01*
X15794401Y-2928817D01*
X15761698Y-3093229D01*
X15697548Y-3248101D01*
X15604416Y-3387482D01*
X15485882Y-3506016D01*
X15346501Y-3599148D01*
X15191629Y-3663298D01*
X15027217Y-3696001D01*
X14859585Y-3696001D01*
X14695173Y-3663298D01*
X14540301Y-3599148D01*
X14400920Y-3506016D01*
X14282386Y-3387482D01*
X14189254Y-3248101D01*
X14125104Y-3093229D01*
X14092401Y-2928817D01*
X14092401Y-2761185D01*
X14125104Y-2596773D01*
X14189254Y-2441901D01*
X14282386Y-2302520D01*
X14400920Y-2183986D01*
X14540301Y-2090854D01*
X14695173Y-2026704D01*
X14859585Y-1994001D01*
X15027217Y-1994001D01*
X15191629Y-2026704D01*
G37*
G36*
X30431629Y-2026704D02*
G01*
X30586501Y-2090854D01*
X30725882Y-2183986D01*
X30844416Y-2302520D01*
X30937548Y-2441901D01*
X31001698Y-2596773D01*
X31034401Y-2761185D01*
X31034401Y-2928817D01*
X31001698Y-3093229D01*
X30937548Y-3248101D01*
X30844416Y-3387482D01*
X30725882Y-3506016D01*
X30586501Y-3599148D01*
X30431629Y-3663298D01*
X30267217Y-3696001D01*
X30099585Y-3696001D01*
X29935173Y-3663298D01*
X29780301Y-3599148D01*
X29640920Y-3506016D01*
X29522386Y-3387482D01*
X29429254Y-3248101D01*
X29365104Y-3093229D01*
X29332401Y-2928817D01*
X29332401Y-2761185D01*
X29365104Y-2596773D01*
X29429254Y-2441901D01*
X29522386Y-2302520D01*
X29640920Y-2183986D01*
X29780301Y-2090854D01*
X29935173Y-2026704D01*
X30099585Y-1994001D01*
X30267217Y-1994001D01*
X30431629Y-2026704D01*
G37*
G36*
X34305242Y-2047404D02*
G01*
X34342337Y-2058657D01*
X34376515Y-2076925D01*
X34406481Y-2101519D01*
X34431075Y-2131485D01*
X34449343Y-2165663D01*
X34460596Y-2202758D01*
X34465000Y-2247474D01*
X34465000Y-3340526D01*
X34460596Y-3385242D01*
X34449343Y-3422337D01*
X34431075Y-3456515D01*
X34406481Y-3486481D01*
X34376515Y-3511075D01*
X34342337Y-3529343D01*
X34305242Y-3540596D01*
X34260526Y-3545000D01*
X33367474Y-3545000D01*
X33322758Y-3540596D01*
X33285663Y-3529343D01*
X33251485Y-3511075D01*
X33221519Y-3486481D01*
X33196925Y-3456515D01*
X33178657Y-3422337D01*
X33167404Y-3385242D01*
X33163000Y-3340526D01*
X33163000Y-2247474D01*
X33167404Y-2202758D01*
X33178657Y-2165663D01*
X33196925Y-2131485D01*
X33221519Y-2101519D01*
X33251485Y-2076925D01*
X33285663Y-2058657D01*
X33322758Y-2047404D01*
X33367474Y-2043000D01*
X34260526Y-2043000D01*
X34305242Y-2047404D01*
G37*
G36*
X36305242Y-2047404D02*
G01*
X36342337Y-2058657D01*
X36376515Y-2076925D01*
X36406481Y-2101519D01*
X36431075Y-2131485D01*
X36449343Y-2165663D01*
X36460596Y-2202758D01*
X36465000Y-2247474D01*
X36465000Y-3340526D01*
X36460596Y-3385242D01*
X36449343Y-3422337D01*
X36431075Y-3456515D01*
X36406481Y-3486481D01*
X36376515Y-3511075D01*
X36342337Y-3529343D01*
X36305242Y-3540596D01*
X36260526Y-3545000D01*
X35367474Y-3545000D01*
X35322758Y-3540596D01*
X35285663Y-3529343D01*
X35251485Y-3511075D01*
X35221519Y-3486481D01*
X35196925Y-3456515D01*
X35178657Y-3422337D01*
X35167404Y-3385242D01*
X35163000Y-3340526D01*
X35163000Y-2247474D01*
X35167404Y-2202758D01*
X35178657Y-2165663D01*
X35196925Y-2131485D01*
X35221519Y-2101519D01*
X35251485Y-2076925D01*
X35285663Y-2058657D01*
X35322758Y-2047404D01*
X35367474Y-2043000D01*
X36260526Y-2043000D01*
X36305242Y-2047404D01*
G37*
G36*
X9524242Y-2047404D02*
G01*
X9561337Y-2058657D01*
X9595515Y-2076925D01*
X9625481Y-2101519D01*
X9650075Y-2131485D01*
X9668343Y-2165663D01*
X9679596Y-2202758D01*
X9684000Y-2247474D01*
X9684000Y-3340526D01*
X9679596Y-3385242D01*
X9668343Y-3422337D01*
X9650075Y-3456515D01*
X9625481Y-3486481D01*
X9595515Y-3511075D01*
X9561337Y-3529343D01*
X9524242Y-3540596D01*
X9479526Y-3545000D01*
X8586474Y-3545000D01*
X8541758Y-3540596D01*
X8504663Y-3529343D01*
X8470485Y-3511075D01*
X8440519Y-3486481D01*
X8415925Y-3456515D01*
X8397657Y-3422337D01*
X8386404Y-3385242D01*
X8382000Y-3340526D01*
X8382000Y-2247474D01*
X8386404Y-2202758D01*
X8397657Y-2165663D01*
X8415925Y-2131485D01*
X8440519Y-2101519D01*
X8470485Y-2076925D01*
X8504663Y-2058657D01*
X8541758Y-2047404D01*
X8586474Y-2043000D01*
X9479526Y-2043000D01*
X9524242Y-2047404D01*
G37*
G36*
X11524242Y-2047404D02*
G01*
X11561337Y-2058657D01*
X11595515Y-2076925D01*
X11625481Y-2101519D01*
X11650075Y-2131485D01*
X11668343Y-2165663D01*
X11679596Y-2202758D01*
X11684000Y-2247474D01*
X11684000Y-3340526D01*
X11679596Y-3385242D01*
X11668343Y-3422337D01*
X11650075Y-3456515D01*
X11625481Y-3486481D01*
X11595515Y-3511075D01*
X11561337Y-3529343D01*
X11524242Y-3540596D01*
X11479526Y-3545000D01*
X10586474Y-3545000D01*
X10541758Y-3540596D01*
X10504663Y-3529343D01*
X10470485Y-3511075D01*
X10440519Y-3486481D01*
X10415925Y-3456515D01*
X10397657Y-3422337D01*
X10386404Y-3385242D01*
X10382000Y-3340526D01*
X10382000Y-2247474D01*
X10386404Y-2202758D01*
X10397657Y-2165663D01*
X10415925Y-2131485D01*
X10440519Y-2101519D01*
X10470485Y-2076925D01*
X10504663Y-2058657D01*
X10541758Y-2047404D01*
X10586474Y-2043000D01*
X11479526Y-2043000D01*
X11524242Y-2047404D01*
G37*
G36*
X49161000Y-1256600D02*
G01*
X45559000Y-1256600D01*
X45559000Y545400D01*
X49161000Y545400D01*
X49161000Y-1256600D01*
G37*
G36*
X68741000Y-1256600D02*
G01*
X65139000Y-1256600D01*
X65139000Y545400D01*
X68741000Y545400D01*
X68741000Y-1256600D01*
G37*
G36*
X15191629Y513296D02*
G01*
X15346501Y449146D01*
X15485882Y356014D01*
X15604416Y237480D01*
X15697548Y98099D01*
X15761698Y-56773D01*
X15794401Y-221185D01*
X15794401Y-388817D01*
X15761698Y-553229D01*
X15697548Y-708101D01*
X15604416Y-847482D01*
X15485882Y-966016D01*
X15346501Y-1059148D01*
X15191629Y-1123298D01*
X15027217Y-1156001D01*
X14859585Y-1156001D01*
X14695173Y-1123298D01*
X14540301Y-1059148D01*
X14400920Y-966016D01*
X14282386Y-847482D01*
X14189254Y-708101D01*
X14125104Y-553229D01*
X14092401Y-388817D01*
X14092401Y-221185D01*
X14125104Y-56773D01*
X14189254Y98099D01*
X14282386Y237480D01*
X14400920Y356014D01*
X14540301Y449146D01*
X14695173Y513296D01*
X14859585Y545999D01*
X15027217Y545999D01*
X15191629Y513296D01*
G37*
G36*
X30431629Y513296D02*
G01*
X30586501Y449146D01*
X30725882Y356014D01*
X30844416Y237480D01*
X30937548Y98099D01*
X31001698Y-56773D01*
X31034401Y-221185D01*
X31034401Y-388817D01*
X31001698Y-553229D01*
X30937548Y-708101D01*
X30844416Y-847482D01*
X30725882Y-966016D01*
X30586501Y-1059148D01*
X30431629Y-1123298D01*
X30267217Y-1156001D01*
X30099585Y-1156001D01*
X29935173Y-1123298D01*
X29780301Y-1059148D01*
X29640920Y-966016D01*
X29522386Y-847482D01*
X29429254Y-708101D01*
X29365104Y-553229D01*
X29332401Y-388817D01*
X29332401Y-221185D01*
X29365104Y-56773D01*
X29429254Y98099D01*
X29522386Y237480D01*
X29640920Y356014D01*
X29780301Y449146D01*
X29935173Y513296D01*
X30099585Y545999D01*
X30267217Y545999D01*
X30431629Y513296D01*
G37*
G36*
X9651242Y492596D02*
G01*
X9688337Y481343D01*
X9722515Y463075D01*
X9752481Y438481D01*
X9777075Y408515D01*
X9795343Y374337D01*
X9806596Y337242D01*
X9811000Y292526D01*
X9811000Y-800526D01*
X9806596Y-845242D01*
X9795343Y-882337D01*
X9777075Y-916515D01*
X9752481Y-946481D01*
X9722515Y-971075D01*
X9688337Y-989343D01*
X9651242Y-1000596D01*
X9606526Y-1005000D01*
X8713474Y-1005000D01*
X8668758Y-1000596D01*
X8631663Y-989343D01*
X8597485Y-971075D01*
X8567519Y-946481D01*
X8542925Y-916515D01*
X8524657Y-882337D01*
X8513404Y-845242D01*
X8509000Y-800526D01*
X8509000Y292526D01*
X8513404Y337242D01*
X8524657Y374337D01*
X8542925Y408515D01*
X8567519Y438481D01*
X8597485Y463075D01*
X8631663Y481343D01*
X8668758Y492596D01*
X8713474Y497000D01*
X9606526Y497000D01*
X9651242Y492596D01*
G37*
G36*
X36289242Y492596D02*
G01*
X36326337Y481343D01*
X36360515Y463075D01*
X36390481Y438481D01*
X36415075Y408515D01*
X36433343Y374337D01*
X36444596Y337242D01*
X36449000Y292526D01*
X36449000Y-800526D01*
X36444596Y-845242D01*
X36433343Y-882337D01*
X36415075Y-916515D01*
X36390481Y-946481D01*
X36360515Y-971075D01*
X36326337Y-989343D01*
X36289242Y-1000596D01*
X36244526Y-1005000D01*
X35351474Y-1005000D01*
X35306758Y-1000596D01*
X35269663Y-989343D01*
X35235485Y-971075D01*
X35205519Y-946481D01*
X35180925Y-916515D01*
X35162657Y-882337D01*
X35151404Y-845242D01*
X35147000Y-800526D01*
X35147000Y292526D01*
X35151404Y337242D01*
X35162657Y374337D01*
X35180925Y408515D01*
X35205519Y438481D01*
X35235485Y463075D01*
X35269663Y481343D01*
X35306758Y492596D01*
X35351474Y497000D01*
X36244526Y497000D01*
X36289242Y492596D01*
G37*
G36*
X34289242Y492596D02*
G01*
X34326337Y481343D01*
X34360515Y463075D01*
X34390481Y438481D01*
X34415075Y408515D01*
X34433343Y374337D01*
X34444596Y337242D01*
X34449000Y292526D01*
X34449000Y-800526D01*
X34444596Y-845242D01*
X34433343Y-882337D01*
X34415075Y-916515D01*
X34390481Y-946481D01*
X34360515Y-971075D01*
X34326337Y-989343D01*
X34289242Y-1000596D01*
X34244526Y-1005000D01*
X33351474Y-1005000D01*
X33306758Y-1000596D01*
X33269663Y-989343D01*
X33235485Y-971075D01*
X33205519Y-946481D01*
X33180925Y-916515D01*
X33162657Y-882337D01*
X33151404Y-845242D01*
X33147000Y-800526D01*
X33147000Y292526D01*
X33151404Y337242D01*
X33162657Y374337D01*
X33180925Y408515D01*
X33205519Y438481D01*
X33235485Y463075D01*
X33269663Y481343D01*
X33306758Y492596D01*
X33351474Y497000D01*
X34244526Y497000D01*
X34289242Y492596D01*
G37*
G36*
X11651242Y492596D02*
G01*
X11688337Y481343D01*
X11722515Y463075D01*
X11752481Y438481D01*
X11777075Y408515D01*
X11795343Y374337D01*
X11806596Y337242D01*
X11811000Y292526D01*
X11811000Y-800526D01*
X11806596Y-845242D01*
X11795343Y-882337D01*
X11777075Y-916515D01*
X11752481Y-946481D01*
X11722515Y-971075D01*
X11688337Y-989343D01*
X11651242Y-1000596D01*
X11606526Y-1005000D01*
X10713474Y-1005000D01*
X10668758Y-1000596D01*
X10631663Y-989343D01*
X10597485Y-971075D01*
X10567519Y-946481D01*
X10542925Y-916515D01*
X10524657Y-882337D01*
X10513404Y-845242D01*
X10509000Y-800526D01*
X10509000Y292526D01*
X10513404Y337242D01*
X10524657Y374337D01*
X10542925Y408515D01*
X10567519Y438481D01*
X10597485Y463075D01*
X10631663Y481343D01*
X10668758Y492596D01*
X10713474Y497000D01*
X11606526Y497000D01*
X11651242Y492596D01*
G37*
G36*
X68741000Y1283400D02*
G01*
X65139000Y1283400D01*
X65139000Y3085400D01*
X68741000Y3085400D01*
X68741000Y1283400D01*
G37*
G36*
X49161000Y1283400D02*
G01*
X45559000Y1283400D01*
X45559000Y3085400D01*
X49161000Y3085400D01*
X49161000Y1283400D01*
G37*
G36*
X15191629Y3053296D02*
G01*
X15346501Y2989146D01*
X15485882Y2896014D01*
X15604416Y2777480D01*
X15697548Y2638099D01*
X15761698Y2483227D01*
X15794401Y2318815D01*
X15794401Y2151183D01*
X15761698Y1986771D01*
X15697548Y1831899D01*
X15604416Y1692518D01*
X15485882Y1573984D01*
X15346501Y1480852D01*
X15191629Y1416702D01*
X15027217Y1383999D01*
X14859585Y1383999D01*
X14695173Y1416702D01*
X14540301Y1480852D01*
X14400920Y1573984D01*
X14282386Y1692518D01*
X14189254Y1831899D01*
X14125104Y1986771D01*
X14092401Y2151183D01*
X14092401Y2318815D01*
X14125104Y2483227D01*
X14189254Y2638099D01*
X14282386Y2777480D01*
X14400920Y2896014D01*
X14540301Y2989146D01*
X14695173Y3053296D01*
X14859585Y3085999D01*
X15027217Y3085999D01*
X15191629Y3053296D01*
G37*
G36*
X30431629Y3053296D02*
G01*
X30586501Y2989146D01*
X30725882Y2896014D01*
X30844416Y2777480D01*
X30937548Y2638099D01*
X31001698Y2483227D01*
X31034401Y2318815D01*
X31034401Y2151183D01*
X31001698Y1986771D01*
X30937548Y1831899D01*
X30844416Y1692518D01*
X30725882Y1573984D01*
X30586501Y1480852D01*
X30431629Y1416702D01*
X30267217Y1383999D01*
X30099585Y1383999D01*
X29935173Y1416702D01*
X29780301Y1480852D01*
X29640920Y1573984D01*
X29522386Y1692518D01*
X29429254Y1831899D01*
X29365104Y1986771D01*
X29332401Y2151183D01*
X29332401Y2318815D01*
X29365104Y2483227D01*
X29429254Y2638099D01*
X29522386Y2777480D01*
X29640920Y2896014D01*
X29780301Y2989146D01*
X29935173Y3053296D01*
X30099585Y3085999D01*
X30267217Y3085999D01*
X30431629Y3053296D01*
G37*
G36*
X11702042Y2981796D02*
G01*
X11739137Y2970543D01*
X11773315Y2952275D01*
X11803281Y2927681D01*
X11827875Y2897715D01*
X11846143Y2863537D01*
X11857396Y2826442D01*
X11861800Y2781726D01*
X11861800Y1688674D01*
X11857396Y1643958D01*
X11846143Y1606863D01*
X11827875Y1572685D01*
X11803281Y1542719D01*
X11773315Y1518125D01*
X11739137Y1499857D01*
X11702042Y1488604D01*
X11657326Y1484200D01*
X10764274Y1484200D01*
X10719558Y1488604D01*
X10682463Y1499857D01*
X10648285Y1518125D01*
X10618319Y1542719D01*
X10593725Y1572685D01*
X10575457Y1606863D01*
X10564204Y1643958D01*
X10559800Y1688674D01*
X10559800Y2781726D01*
X10564204Y2826442D01*
X10575457Y2863537D01*
X10593725Y2897715D01*
X10618319Y2927681D01*
X10648285Y2952275D01*
X10682463Y2970543D01*
X10719558Y2981796D01*
X10764274Y2986200D01*
X11657326Y2986200D01*
X11702042Y2981796D01*
G37*
G36*
X9702042Y2981796D02*
G01*
X9739137Y2970543D01*
X9773315Y2952275D01*
X9803281Y2927681D01*
X9827875Y2897715D01*
X9846143Y2863537D01*
X9857396Y2826442D01*
X9861800Y2781726D01*
X9861800Y1688674D01*
X9857396Y1643958D01*
X9846143Y1606863D01*
X9827875Y1572685D01*
X9803281Y1542719D01*
X9773315Y1518125D01*
X9739137Y1499857D01*
X9702042Y1488604D01*
X9657326Y1484200D01*
X8764274Y1484200D01*
X8719558Y1488604D01*
X8682463Y1499857D01*
X8648285Y1518125D01*
X8618319Y1542719D01*
X8593725Y1572685D01*
X8575457Y1606863D01*
X8564204Y1643958D01*
X8559800Y1688674D01*
X8559800Y2781726D01*
X8564204Y2826442D01*
X8575457Y2863537D01*
X8593725Y2897715D01*
X8618319Y2927681D01*
X8648285Y2952275D01*
X8682463Y2970543D01*
X8719558Y2981796D01*
X8764274Y2986200D01*
X9657326Y2986200D01*
X9702042Y2981796D01*
G37*
G36*
X36289242Y3032596D02*
G01*
X36326337Y3021343D01*
X36360515Y3003075D01*
X36390481Y2978481D01*
X36415075Y2948515D01*
X36433343Y2914337D01*
X36444596Y2877242D01*
X36449000Y2832526D01*
X36449000Y1739474D01*
X36444596Y1694758D01*
X36433343Y1657663D01*
X36415075Y1623485D01*
X36390481Y1593519D01*
X36360515Y1568925D01*
X36326337Y1550657D01*
X36289242Y1539404D01*
X36244526Y1535000D01*
X35351474Y1535000D01*
X35306758Y1539404D01*
X35269663Y1550657D01*
X35235485Y1568925D01*
X35205519Y1593519D01*
X35180925Y1623485D01*
X35162657Y1657663D01*
X35151404Y1694758D01*
X35147000Y1739474D01*
X35147000Y2832526D01*
X35151404Y2877242D01*
X35162657Y2914337D01*
X35180925Y2948515D01*
X35205519Y2978481D01*
X35235485Y3003075D01*
X35269663Y3021343D01*
X35306758Y3032596D01*
X35351474Y3037000D01*
X36244526Y3037000D01*
X36289242Y3032596D01*
G37*
G36*
X34289242Y3032596D02*
G01*
X34326337Y3021343D01*
X34360515Y3003075D01*
X34390481Y2978481D01*
X34415075Y2948515D01*
X34433343Y2914337D01*
X34444596Y2877242D01*
X34449000Y2832526D01*
X34449000Y1739474D01*
X34444596Y1694758D01*
X34433343Y1657663D01*
X34415075Y1623485D01*
X34390481Y1593519D01*
X34360515Y1568925D01*
X34326337Y1550657D01*
X34289242Y1539404D01*
X34244526Y1535000D01*
X33351474Y1535000D01*
X33306758Y1539404D01*
X33269663Y1550657D01*
X33235485Y1568925D01*
X33205519Y1593519D01*
X33180925Y1623485D01*
X33162657Y1657663D01*
X33151404Y1694758D01*
X33147000Y1739474D01*
X33147000Y2832526D01*
X33151404Y2877242D01*
X33162657Y2914337D01*
X33180925Y2948515D01*
X33205519Y2978481D01*
X33235485Y3003075D01*
X33269663Y3021343D01*
X33306758Y3032596D01*
X33351474Y3037000D01*
X34244526Y3037000D01*
X34289242Y3032596D01*
G37*
G36*
X68741000Y3823400D02*
G01*
X65139000Y3823400D01*
X65139000Y5625400D01*
X68741000Y5625400D01*
X68741000Y3823400D01*
G37*
G36*
X49161000Y3823400D02*
G01*
X45559000Y3823400D01*
X45559000Y5625400D01*
X49161000Y5625400D01*
X49161000Y3823400D01*
G37*
G36*
X30431629Y5593296D02*
G01*
X30586501Y5529146D01*
X30725882Y5436014D01*
X30844416Y5317480D01*
X30937548Y5178099D01*
X31001698Y5023227D01*
X31034401Y4858815D01*
X31034401Y4691183D01*
X31001698Y4526771D01*
X30937548Y4371899D01*
X30844416Y4232518D01*
X30725882Y4113984D01*
X30586501Y4020852D01*
X30431629Y3956702D01*
X30267217Y3923999D01*
X30099585Y3923999D01*
X29935173Y3956702D01*
X29780301Y4020852D01*
X29640920Y4113984D01*
X29522386Y4232518D01*
X29429254Y4371899D01*
X29365104Y4526771D01*
X29332401Y4691183D01*
X29332401Y4858815D01*
X29365104Y5023227D01*
X29429254Y5178099D01*
X29522386Y5317480D01*
X29640920Y5436014D01*
X29780301Y5529146D01*
X29935173Y5593296D01*
X30099585Y5625999D01*
X30267217Y5625999D01*
X30431629Y5593296D01*
G37*
G36*
X15794401Y3923999D02*
G01*
X14092401Y3923999D01*
X14092401Y5625999D01*
X15794401Y5625999D01*
X15794401Y3923999D01*
G37*
G36*
X11651242Y5572596D02*
G01*
X11688337Y5561343D01*
X11722515Y5543075D01*
X11752481Y5518481D01*
X11777075Y5488515D01*
X11795343Y5454337D01*
X11806596Y5417242D01*
X11811000Y5372526D01*
X11811000Y4279474D01*
X11806596Y4234758D01*
X11795343Y4197663D01*
X11777075Y4163485D01*
X11752481Y4133519D01*
X11722515Y4108925D01*
X11688337Y4090657D01*
X11651242Y4079404D01*
X11606526Y4075000D01*
X10713474Y4075000D01*
X10668758Y4079404D01*
X10631663Y4090657D01*
X10597485Y4108925D01*
X10567519Y4133519D01*
X10542925Y4163485D01*
X10524657Y4197663D01*
X10513404Y4234758D01*
X10509000Y4279474D01*
X10509000Y5372526D01*
X10513404Y5417242D01*
X10524657Y5454337D01*
X10542925Y5488515D01*
X10567519Y5518481D01*
X10597485Y5543075D01*
X10631663Y5561343D01*
X10668758Y5572596D01*
X10713474Y5577000D01*
X11606526Y5577000D01*
X11651242Y5572596D01*
G37*
G36*
X9651242Y5572596D02*
G01*
X9688337Y5561343D01*
X9722515Y5543075D01*
X9752481Y5518481D01*
X9777075Y5488515D01*
X9795343Y5454337D01*
X9806596Y5417242D01*
X9811000Y5372526D01*
X9811000Y4279474D01*
X9806596Y4234758D01*
X9795343Y4197663D01*
X9777075Y4163485D01*
X9752481Y4133519D01*
X9722515Y4108925D01*
X9688337Y4090657D01*
X9651242Y4079404D01*
X9606526Y4075000D01*
X8713474Y4075000D01*
X8668758Y4079404D01*
X8631663Y4090657D01*
X8597485Y4108925D01*
X8567519Y4133519D01*
X8542925Y4163485D01*
X8524657Y4197663D01*
X8513404Y4234758D01*
X8509000Y4279474D01*
X8509000Y5372526D01*
X8513404Y5417242D01*
X8524657Y5454337D01*
X8542925Y5488515D01*
X8567519Y5518481D01*
X8597485Y5543075D01*
X8631663Y5561343D01*
X8668758Y5572596D01*
X8713474Y5577000D01*
X9606526Y5577000D01*
X9651242Y5572596D01*
G37*
G36*
X68741000Y6363400D02*
G01*
X65139000Y6363400D01*
X65139000Y8165400D01*
X68741000Y8165400D01*
X68741000Y6363400D01*
G37*
G36*
X49161000Y6363400D02*
G01*
X45559000Y6363400D01*
X45559000Y8165400D01*
X49161000Y8165400D01*
X49161000Y6363400D01*
G37*
G36*
X54958642Y9954619D02*
G01*
X55104414Y9894238D01*
X55104416Y9894237D01*
X55235608Y9806578D01*
X55347178Y9695008D01*
X55434837Y9563816D01*
X55434838Y9563814D01*
X55495219Y9418042D01*
X55526000Y9263293D01*
X55526000Y9105507D01*
X55495219Y8950758D01*
X55434838Y8804986D01*
X55434837Y8804984D01*
X55347178Y8673792D01*
X55235608Y8562222D01*
X55104416Y8474563D01*
X55104415Y8474562D01*
X55104414Y8474562D01*
X54958642Y8414181D01*
X54803893Y8383400D01*
X54646107Y8383400D01*
X54491358Y8414181D01*
X54345586Y8474562D01*
X54345585Y8474562D01*
X54345584Y8474563D01*
X54214392Y8562222D01*
X54102822Y8673792D01*
X54015163Y8804984D01*
X54015162Y8804986D01*
X53954781Y8950758D01*
X53924000Y9105507D01*
X53924000Y9263293D01*
X53954781Y9418042D01*
X54015162Y9563814D01*
X54015163Y9563816D01*
X54102822Y9695008D01*
X54214392Y9806578D01*
X54345584Y9894237D01*
X54345586Y9894238D01*
X54491358Y9954619D01*
X54646107Y9985400D01*
X54803893Y9985400D01*
X54958642Y9954619D01*
G37*
G36*
X59808642Y9954619D02*
G01*
X59954414Y9894238D01*
X59954416Y9894237D01*
X60085608Y9806578D01*
X60197178Y9695008D01*
X60284837Y9563816D01*
X60284838Y9563814D01*
X60345219Y9418042D01*
X60376000Y9263293D01*
X60376000Y9105507D01*
X60345219Y8950758D01*
X60284838Y8804986D01*
X60284837Y8804984D01*
X60197178Y8673792D01*
X60085608Y8562222D01*
X59954416Y8474563D01*
X59954415Y8474562D01*
X59954414Y8474562D01*
X59808642Y8414181D01*
X59653893Y8383400D01*
X59496107Y8383400D01*
X59341358Y8414181D01*
X59195586Y8474562D01*
X59195585Y8474562D01*
X59195584Y8474563D01*
X59064392Y8562222D01*
X58952822Y8673792D01*
X58865163Y8804984D01*
X58865162Y8804986D01*
X58804781Y8950758D01*
X58774000Y9105507D01*
X58774000Y9263293D01*
X58804781Y9418042D01*
X58865162Y9563814D01*
X58865163Y9563816D01*
X58952822Y9695008D01*
X59064392Y9806578D01*
X59195584Y9894237D01*
X59195586Y9894238D01*
X59341358Y9954619D01*
X59496107Y9985400D01*
X59653893Y9985400D01*
X59808642Y9954619D01*
G37*
G36*
X49161000Y8903400D02*
G01*
X45559000Y8903400D01*
X45559000Y10705400D01*
X49161000Y10705400D01*
X49161000Y8903400D01*
G37*
G36*
X68741000Y8903400D02*
G01*
X65139000Y8903400D01*
X65139000Y10705400D01*
X68741000Y10705400D01*
X68741000Y8903400D01*
G37*
G36*
X54702395Y13128854D02*
G01*
X54875466Y13057166D01*
X54952818Y13005481D01*
X55031227Y12953090D01*
X55163690Y12820627D01*
X55216081Y12742218D01*
X55267766Y12664866D01*
X55339454Y12491795D01*
X55376000Y12308067D01*
X55376000Y12120733D01*
X55339454Y11937005D01*
X55267766Y11763934D01*
X55267765Y11763933D01*
X55163690Y11608173D01*
X55031227Y11475710D01*
X54982871Y11443400D01*
X54875466Y11371634D01*
X54702395Y11299946D01*
X54518667Y11263400D01*
X54331333Y11263400D01*
X54147605Y11299946D01*
X53974534Y11371634D01*
X53867129Y11443400D01*
X53818773Y11475710D01*
X53686310Y11608173D01*
X53582235Y11763933D01*
X53582234Y11763934D01*
X53510546Y11937005D01*
X53474000Y12120733D01*
X53474000Y12308067D01*
X53510546Y12491795D01*
X53582234Y12664866D01*
X53633919Y12742218D01*
X53686310Y12820627D01*
X53818773Y12953090D01*
X53897182Y13005481D01*
X53974534Y13057166D01*
X54147605Y13128854D01*
X54331333Y13165400D01*
X54518667Y13165400D01*
X54702395Y13128854D01*
G37*
G36*
X60152395Y13128854D02*
G01*
X60325466Y13057166D01*
X60402818Y13005481D01*
X60481227Y12953090D01*
X60613690Y12820627D01*
X60666081Y12742218D01*
X60717766Y12664866D01*
X60789454Y12491795D01*
X60826000Y12308067D01*
X60826000Y12120733D01*
X60789454Y11937005D01*
X60717766Y11763934D01*
X60717765Y11763933D01*
X60613690Y11608173D01*
X60481227Y11475710D01*
X60432871Y11443400D01*
X60325466Y11371634D01*
X60152395Y11299946D01*
X59968667Y11263400D01*
X59781333Y11263400D01*
X59597605Y11299946D01*
X59424534Y11371634D01*
X59317129Y11443400D01*
X59268773Y11475710D01*
X59136310Y11608173D01*
X59032235Y11763933D01*
X59032234Y11763934D01*
X58960546Y11937005D01*
X58924000Y12120733D01*
X58924000Y12308067D01*
X58960546Y12491795D01*
X59032234Y12664866D01*
X59083919Y12742218D01*
X59136310Y12820627D01*
X59268773Y12953090D01*
X59347182Y13005481D01*
X59424534Y13057166D01*
X59597605Y13128854D01*
X59781333Y13165400D01*
X59968667Y13165400D01*
X60152395Y13128854D01*
G37*
G36*
X49161000Y11443400D02*
G01*
X45559000Y11443400D01*
X45559000Y13245400D01*
X49161000Y13245400D01*
X49161000Y11443400D01*
G37*
G36*
X68741000Y11443400D02*
G01*
X65139000Y11443400D01*
X65139000Y13245400D01*
X68741000Y13245400D01*
X68741000Y11443400D01*
G37*
M02*
