M48
; DRILL file {KiCad 5.1.5+dfsg1-2build2} date Sun 08 Jan 2023 20:57:22 GMT
; FORMAT={-:-/ absolute / inch / decimal}
; #@! TF.CreationDate,2023-01-08T20:57:22+00:00
; #@! TF.GenerationSoftware,Kicad,Pcbnew,5.1.5+dfsg1-2build2
; #@! TF.FileFunction,Plated,1,2,PTH
FMAT,2
INCH
T1C0.0157
T2C0.0315
T3C0.0394
T4C0.0402
%
G90
G05
T1
X0.1Y0.48
X0.1Y-0.61
X0.1285Y0.39
X0.13Y-0.71
X0.16Y0.15
X0.16Y-0.81
X0.19Y-0.01
X0.19Y-1.09
X0.22Y-0.11
X0.25Y-0.21
X0.27Y-1.03
X0.32Y-0.97
X0.59Y-1.21
X0.66Y0.04
X0.67Y-1.29
X0.72Y-0.37
X0.73Y-0.64
X0.77Y-0.32
X0.77Y-0.82
X0.78Y0.25
X0.81Y-1.4
X1.14Y-1.17
X1.18Y0.58
X1.24Y-1.26
X1.41Y0.24
X1.48Y0.09
X1.56Y-0.71
X1.57Y-0.16
X1.62Y-0.81
X1.65Y-0.02
X1.65Y-0.61
X1.66Y-0.34
X1.73Y0.09
X1.73Y-0.91
X2.04Y0.29
X2.04Y-0.21
X2.05Y-0.71
X2.05Y-1.21
X2.14Y-1.33
X2.23Y-1.3
X2.27Y-0.29
X2.28Y-1.08
X2.33Y-0.39
X2.33Y-1.16
X2.34Y0.1
X2.36Y-1.01
X2.41Y-0.09
X2.43Y-0.9
X2.43Y-1.41
X2.46Y-0.01
X2.46Y-1.31
X2.48Y-0.14
X2.49Y-0.82
X2.59Y0.59
T2
X0.5883Y0.188
X0.5883Y0.088
X0.5883Y-0.012
X0.5883Y-0.112
X0.5883Y-0.212
X0.5883Y-0.312
X0.5883Y-0.412
X0.5883Y-0.512
X0.5883Y-0.612
X0.5883Y-0.712
X0.5883Y-0.812
X0.5883Y-0.912
X1.1883Y0.188
X1.1883Y0.088
X1.1883Y-0.012
X1.1883Y-0.112
X1.1883Y-0.212
X1.1883Y-0.312
X1.1883Y-0.412
X1.1883Y-0.512
X1.1883Y-0.612
X1.1883Y-0.712
X1.1883Y-0.812
X1.1883Y-0.912
T3
X1.15Y-1.36
X1.25Y-1.36
X1.35Y-1.36
T4
X1.9Y0.486
X1.9Y0.386
X1.9Y0.286
X1.9Y0.186
X1.9Y0.086
X1.9Y-0.014
X1.9Y-0.114
X1.9Y-0.214
X1.9Y-0.314
X1.9Y-0.414
X1.9Y-0.514
X1.9Y-0.614
X1.9Y-0.714
X1.9Y-0.814
X1.9Y-0.914
X1.9Y-1.014
X1.9Y-1.114
X1.9Y-1.214
X1.9Y-1.314
X1.9Y-1.414
X2.15Y-1.4049
X2.25Y-1.4049
X2.35Y-1.4049
X2.6Y0.486
X2.6Y0.386
X2.6Y0.286
X2.6Y0.186
X2.6Y0.086
X2.6Y-0.014
X2.6Y-0.114
X2.6Y-0.214
X2.6Y-0.314
X2.6Y-0.414
X2.6Y-0.514
X2.6Y-0.614
X2.6Y-0.714
X2.6Y-0.814
X2.6Y-0.914
X2.6Y-1.014
X2.6Y-1.114
X2.6Y-1.214
X2.6Y-1.314
X2.6Y-1.414
T0
M30
