G04 #@! TF.GenerationSoftware,KiCad,Pcbnew,5.1.5+dfsg1-2build2*
G04 #@! TF.CreationDate,2023-01-08T20:57:23+00:00*
G04 #@! TF.ProjectId,rom-reader,726f6d2d-7265-4616-9465-722e6b696361,rev?*
G04 #@! TF.SameCoordinates,Original*
G04 #@! TF.FileFunction,Copper,L2,Bot*
G04 #@! TF.FilePolarity,Positive*
%FSLAX46Y46*%
G04 Gerber Fmt 4.6, Leading zero omitted, Abs format (unit mm)*
G04 Created by KiCad (PCBNEW 5.1.5+dfsg1-2build2) date 2023-01-08 20:57:23*
%MOMM*%
%LPD*%
G04 APERTURE LIST*
%ADD10O,1.700000X1.700000*%
%ADD11R,1.700000X1.700000*%
%ADD12O,1.600000X1.600000*%
%ADD13R,1.600000X1.600000*%
%ADD14C,0.800000*%
%ADD15C,0.250000*%
G04 APERTURE END LIST*
D10*
X34290000Y-34544000D03*
X31750000Y-34544000D03*
D11*
X29210000Y-34544000D03*
D10*
X59690000Y-35685600D03*
D11*
X57150000Y-35685600D03*
D10*
X54610000Y-35685600D03*
X66040000Y12344400D03*
X66040000Y9804400D03*
D11*
X66040000Y7264400D03*
D10*
X66040000Y4724400D03*
X66040000Y2184400D03*
X66040000Y-355600D03*
X66040000Y-2895600D03*
D11*
X66040000Y-5435600D03*
D10*
X66040000Y-7975600D03*
X66040000Y-10515600D03*
X66040000Y-13055600D03*
X66040000Y-15595600D03*
D11*
X66040000Y-18135600D03*
D10*
X66040000Y-20675600D03*
X66040000Y-23215600D03*
X66040000Y-25755600D03*
X66040000Y-28295600D03*
D11*
X66040000Y-30835600D03*
D10*
X66040000Y-33375600D03*
X66040000Y-35915600D03*
X48260000Y-35915600D03*
X48260000Y-33375600D03*
D11*
X48260000Y-30835600D03*
D10*
X48260000Y-28295600D03*
X48260000Y-25755600D03*
X48260000Y-23215600D03*
X48260000Y-20675600D03*
D11*
X48260000Y-18135600D03*
D10*
X48260000Y-15595600D03*
X48260000Y-13055600D03*
X48260000Y-10515600D03*
X48260000Y-7975600D03*
D11*
X48260000Y-5435600D03*
D10*
X48260000Y-2895600D03*
X48260000Y-355600D03*
X48260000Y2184400D03*
X48260000Y4724400D03*
D11*
X48260000Y7264400D03*
D10*
X48260000Y9804400D03*
X48260000Y12344400D03*
D12*
X30183401Y4774999D03*
X14943401Y-23165001D03*
X30183401Y2234999D03*
X14943401Y-20625001D03*
X30183401Y-305001D03*
X14943401Y-18085001D03*
X30183401Y-2845001D03*
X14943401Y-15545001D03*
X30183401Y-5385001D03*
X14943401Y-13005001D03*
X30183401Y-7925001D03*
X14943401Y-10465001D03*
X30183401Y-10465001D03*
X14943401Y-7925001D03*
X30183401Y-13005001D03*
X14943401Y-5385001D03*
X30183401Y-15545001D03*
X14943401Y-2845001D03*
X30183401Y-18085001D03*
X14943401Y-305001D03*
X30183401Y-20625001D03*
X14943401Y2234999D03*
X30183401Y-23165001D03*
D13*
X14943401Y4774999D03*
D14*
X20574000Y-35560000D03*
X19812000Y6350000D03*
X17018000Y-32766000D03*
X16764000Y1016000D03*
X4826000Y-27686000D03*
X4826000Y-254000D03*
X6858000Y-26162000D03*
X5588000Y-2794000D03*
X8128000Y-24638000D03*
X6350000Y-5334000D03*
X19558000Y-20828000D03*
X19558000Y-8128000D03*
X18542000Y-16256000D03*
X18288000Y-9398000D03*
X2540000Y12192000D03*
X2540000Y-15494000D03*
X3265000Y9906000D03*
X3302000Y-18034000D03*
X4064000Y3810000D03*
X4064000Y-20574000D03*
X61722000Y-35814000D03*
X59436000Y2540000D03*
X35814000Y6096000D03*
X37592000Y2286000D03*
X62484000Y-33274000D03*
X62484000Y-254000D03*
X61722000Y-22860000D03*
X61214000Y-2286000D03*
X63246000Y-20828000D03*
X62992000Y-3556000D03*
X57912000Y-27432000D03*
X57658000Y-7366000D03*
X59944000Y-25654000D03*
X59182000Y-9906000D03*
X42164000Y-8636000D03*
X41910000Y-15494000D03*
X39878000Y-4064000D03*
X39624000Y-18034000D03*
X41910000Y-508000D03*
X41148000Y-20574000D03*
X43942000Y2286000D03*
X43942000Y-23114000D03*
X65786000Y14986000D03*
X29972000Y14732000D03*
X14986000Y-30734000D03*
X51816000Y7366000D03*
X51816000Y-5334000D03*
X52070000Y-18034000D03*
X52070000Y-30734000D03*
X59182000Y-29464000D03*
X28956000Y-29718000D03*
X56642000Y-33020000D03*
X31496000Y-32004000D03*
X54356000Y-33782000D03*
D15*
X20574000Y5588000D02*
X19812000Y6350000D01*
X20574000Y-35560000D02*
X20574000Y5588000D01*
X17018000Y762000D02*
X16764000Y1016000D01*
X17018000Y-32766000D02*
X17018000Y762000D01*
X4826000Y-27686000D02*
X4826000Y-254000D01*
X5624999Y-2830999D02*
X5588000Y-2794000D01*
X5624999Y-24928999D02*
X5624999Y-2830999D01*
X6858000Y-26162000D02*
X5624999Y-24928999D01*
X8128000Y-7112000D02*
X6350000Y-5334000D01*
X8128000Y-24638000D02*
X8128000Y-7112000D01*
X19558000Y-20828000D02*
X19558000Y-8128000D01*
X18542000Y-9652000D02*
X18288000Y-9398000D01*
X18542000Y-16256000D02*
X18542000Y-9652000D01*
X2540000Y12192000D02*
X2540000Y-15494000D01*
X3265000Y-17997000D02*
X3302000Y-18034000D01*
X3265000Y9906000D02*
X3265000Y-17997000D01*
X4064000Y3810000D02*
X4064000Y-20574000D01*
X60292001Y1683999D02*
X59436000Y2540000D01*
X60292001Y-24928999D02*
X60292001Y1683999D01*
X61722000Y-26358998D02*
X60292001Y-24928999D01*
X61722000Y-35814000D02*
X61722000Y-26358998D01*
X37592000Y4318000D02*
X37592000Y2286000D01*
X35814000Y6096000D02*
X37592000Y4318000D01*
X62266999Y-471001D02*
X62484000Y-254000D01*
X62266999Y-3904001D02*
X62266999Y-471001D01*
X62484000Y-4121002D02*
X62266999Y-3904001D01*
X62484000Y-33274000D02*
X62484000Y-4121002D01*
X61214000Y-22352000D02*
X61214000Y-2286000D01*
X61722000Y-22860000D02*
X61214000Y-22352000D01*
X63246000Y-3810000D02*
X62992000Y-3556000D01*
X63246000Y-20828000D02*
X63246000Y-3810000D01*
X57912000Y-7620000D02*
X57658000Y-7366000D01*
X57912000Y-27432000D02*
X57912000Y-7620000D01*
X59182000Y-24892000D02*
X59182000Y-9906000D01*
X59944000Y-25654000D02*
X59182000Y-24892000D01*
X42164000Y-15240000D02*
X41910000Y-15494000D01*
X42164000Y-8636000D02*
X42164000Y-15240000D01*
X39878000Y-17780000D02*
X39624000Y-18034000D01*
X39878000Y-4064000D02*
X39878000Y-17780000D01*
X41148000Y-1270000D02*
X41148000Y-20574000D01*
X41910000Y-508000D02*
X41148000Y-1270000D01*
X43942000Y2286000D02*
X43942000Y-23114000D01*
X66040000Y14732000D02*
X65786000Y14986000D01*
X66040000Y12344400D02*
X66040000Y14732000D01*
X29972000Y4986400D02*
X30183401Y4774999D01*
X29972000Y14732000D02*
X29972000Y4986400D01*
X14943401Y-30691401D02*
X14986000Y-30734000D01*
X14943401Y-23165001D02*
X14943401Y-30691401D01*
X51816000Y7366000D02*
X51816000Y-5334000D01*
X51816000Y-17780000D02*
X52070000Y-18034000D01*
X51816000Y-5334000D02*
X51816000Y-17780000D01*
X52070000Y-18034000D02*
X52070000Y-30734000D01*
X59690000Y-29972000D02*
X59182000Y-29464000D01*
X59690000Y-35685600D02*
X59690000Y-29972000D01*
X28956000Y-34290000D02*
X29210000Y-34544000D01*
X28956000Y-29718000D02*
X28956000Y-34290000D01*
X57150000Y-33528000D02*
X56642000Y-33020000D01*
X57150000Y-35685600D02*
X57150000Y-33528000D01*
X31496000Y-34290000D02*
X31750000Y-34544000D01*
X31496000Y-32004000D02*
X31496000Y-34290000D01*
X54610000Y-34036000D02*
X54356000Y-33782000D01*
X54610000Y-35685600D02*
X54610000Y-34036000D01*
M02*
