G04 #@! TF.GenerationSoftware,KiCad,Pcbnew,5.1.5+dfsg1-2build2*
G04 #@! TF.CreationDate,2023-01-08T20:57:23+00:00*
G04 #@! TF.ProjectId,rom-reader,726f6d2d-7265-4616-9465-722e6b696361,rev?*
G04 #@! TF.SameCoordinates,Original*
G04 #@! TF.FileFunction,Paste,Top*
G04 #@! TF.FilePolarity,Positive*
%FSLAX46Y46*%
G04 Gerber Fmt 4.6, Leading zero omitted, Abs format (unit mm)*
G04 Created by KiCad (PCBNEW 5.1.5+dfsg1-2build2) date 2023-01-08 20:57:23*
%MOMM*%
%LPD*%
G04 APERTURE LIST*
%ADD10C,0.100000*%
G04 APERTURE END LIST*
D10*
G36*
X34426505Y-22415204D02*
G01*
X34450773Y-22418804D01*
X34474572Y-22424765D01*
X34497671Y-22433030D01*
X34519850Y-22443520D01*
X34540893Y-22456132D01*
X34560599Y-22470747D01*
X34578777Y-22487223D01*
X34595253Y-22505401D01*
X34609868Y-22525107D01*
X34622480Y-22546150D01*
X34632970Y-22568329D01*
X34641235Y-22591428D01*
X34647196Y-22615227D01*
X34650796Y-22639495D01*
X34652000Y-22663999D01*
X34652000Y-23564001D01*
X34650796Y-23588505D01*
X34647196Y-23612773D01*
X34641235Y-23636572D01*
X34632970Y-23659671D01*
X34622480Y-23681850D01*
X34609868Y-23702893D01*
X34595253Y-23722599D01*
X34578777Y-23740777D01*
X34560599Y-23757253D01*
X34540893Y-23771868D01*
X34519850Y-23784480D01*
X34497671Y-23794970D01*
X34474572Y-23803235D01*
X34450773Y-23809196D01*
X34426505Y-23812796D01*
X34402001Y-23814000D01*
X33701999Y-23814000D01*
X33677495Y-23812796D01*
X33653227Y-23809196D01*
X33629428Y-23803235D01*
X33606329Y-23794970D01*
X33584150Y-23784480D01*
X33563107Y-23771868D01*
X33543401Y-23757253D01*
X33525223Y-23740777D01*
X33508747Y-23722599D01*
X33494132Y-23702893D01*
X33481520Y-23681850D01*
X33471030Y-23659671D01*
X33462765Y-23636572D01*
X33456804Y-23612773D01*
X33453204Y-23588505D01*
X33452000Y-23564001D01*
X33452000Y-22663999D01*
X33453204Y-22639495D01*
X33456804Y-22615227D01*
X33462765Y-22591428D01*
X33471030Y-22568329D01*
X33481520Y-22546150D01*
X33494132Y-22525107D01*
X33508747Y-22505401D01*
X33525223Y-22487223D01*
X33543401Y-22470747D01*
X33563107Y-22456132D01*
X33584150Y-22443520D01*
X33606329Y-22433030D01*
X33629428Y-22424765D01*
X33653227Y-22418804D01*
X33677495Y-22415204D01*
X33701999Y-22414000D01*
X34402001Y-22414000D01*
X34426505Y-22415204D01*
G37*
G36*
X36426505Y-22415204D02*
G01*
X36450773Y-22418804D01*
X36474572Y-22424765D01*
X36497671Y-22433030D01*
X36519850Y-22443520D01*
X36540893Y-22456132D01*
X36560599Y-22470747D01*
X36578777Y-22487223D01*
X36595253Y-22505401D01*
X36609868Y-22525107D01*
X36622480Y-22546150D01*
X36632970Y-22568329D01*
X36641235Y-22591428D01*
X36647196Y-22615227D01*
X36650796Y-22639495D01*
X36652000Y-22663999D01*
X36652000Y-23564001D01*
X36650796Y-23588505D01*
X36647196Y-23612773D01*
X36641235Y-23636572D01*
X36632970Y-23659671D01*
X36622480Y-23681850D01*
X36609868Y-23702893D01*
X36595253Y-23722599D01*
X36578777Y-23740777D01*
X36560599Y-23757253D01*
X36540893Y-23771868D01*
X36519850Y-23784480D01*
X36497671Y-23794970D01*
X36474572Y-23803235D01*
X36450773Y-23809196D01*
X36426505Y-23812796D01*
X36402001Y-23814000D01*
X35701999Y-23814000D01*
X35677495Y-23812796D01*
X35653227Y-23809196D01*
X35629428Y-23803235D01*
X35606329Y-23794970D01*
X35584150Y-23784480D01*
X35563107Y-23771868D01*
X35543401Y-23757253D01*
X35525223Y-23740777D01*
X35508747Y-23722599D01*
X35494132Y-23702893D01*
X35481520Y-23681850D01*
X35471030Y-23659671D01*
X35462765Y-23636572D01*
X35456804Y-23612773D01*
X35453204Y-23588505D01*
X35452000Y-23564001D01*
X35452000Y-22663999D01*
X35453204Y-22639495D01*
X35456804Y-22615227D01*
X35462765Y-22591428D01*
X35471030Y-22568329D01*
X35481520Y-22546150D01*
X35494132Y-22525107D01*
X35508747Y-22505401D01*
X35525223Y-22487223D01*
X35543401Y-22470747D01*
X35563107Y-22456132D01*
X35584150Y-22443520D01*
X35606329Y-22433030D01*
X35629428Y-22424765D01*
X35653227Y-22418804D01*
X35677495Y-22415204D01*
X35701999Y-22414000D01*
X36402001Y-22414000D01*
X36426505Y-22415204D01*
G37*
G36*
X34426505Y-19875204D02*
G01*
X34450773Y-19878804D01*
X34474572Y-19884765D01*
X34497671Y-19893030D01*
X34519850Y-19903520D01*
X34540893Y-19916132D01*
X34560599Y-19930747D01*
X34578777Y-19947223D01*
X34595253Y-19965401D01*
X34609868Y-19985107D01*
X34622480Y-20006150D01*
X34632970Y-20028329D01*
X34641235Y-20051428D01*
X34647196Y-20075227D01*
X34650796Y-20099495D01*
X34652000Y-20123999D01*
X34652000Y-21024001D01*
X34650796Y-21048505D01*
X34647196Y-21072773D01*
X34641235Y-21096572D01*
X34632970Y-21119671D01*
X34622480Y-21141850D01*
X34609868Y-21162893D01*
X34595253Y-21182599D01*
X34578777Y-21200777D01*
X34560599Y-21217253D01*
X34540893Y-21231868D01*
X34519850Y-21244480D01*
X34497671Y-21254970D01*
X34474572Y-21263235D01*
X34450773Y-21269196D01*
X34426505Y-21272796D01*
X34402001Y-21274000D01*
X33701999Y-21274000D01*
X33677495Y-21272796D01*
X33653227Y-21269196D01*
X33629428Y-21263235D01*
X33606329Y-21254970D01*
X33584150Y-21244480D01*
X33563107Y-21231868D01*
X33543401Y-21217253D01*
X33525223Y-21200777D01*
X33508747Y-21182599D01*
X33494132Y-21162893D01*
X33481520Y-21141850D01*
X33471030Y-21119671D01*
X33462765Y-21096572D01*
X33456804Y-21072773D01*
X33453204Y-21048505D01*
X33452000Y-21024001D01*
X33452000Y-20123999D01*
X33453204Y-20099495D01*
X33456804Y-20075227D01*
X33462765Y-20051428D01*
X33471030Y-20028329D01*
X33481520Y-20006150D01*
X33494132Y-19985107D01*
X33508747Y-19965401D01*
X33525223Y-19947223D01*
X33543401Y-19930747D01*
X33563107Y-19916132D01*
X33584150Y-19903520D01*
X33606329Y-19893030D01*
X33629428Y-19884765D01*
X33653227Y-19878804D01*
X33677495Y-19875204D01*
X33701999Y-19874000D01*
X34402001Y-19874000D01*
X34426505Y-19875204D01*
G37*
G36*
X36426505Y-19875204D02*
G01*
X36450773Y-19878804D01*
X36474572Y-19884765D01*
X36497671Y-19893030D01*
X36519850Y-19903520D01*
X36540893Y-19916132D01*
X36560599Y-19930747D01*
X36578777Y-19947223D01*
X36595253Y-19965401D01*
X36609868Y-19985107D01*
X36622480Y-20006150D01*
X36632970Y-20028329D01*
X36641235Y-20051428D01*
X36647196Y-20075227D01*
X36650796Y-20099495D01*
X36652000Y-20123999D01*
X36652000Y-21024001D01*
X36650796Y-21048505D01*
X36647196Y-21072773D01*
X36641235Y-21096572D01*
X36632970Y-21119671D01*
X36622480Y-21141850D01*
X36609868Y-21162893D01*
X36595253Y-21182599D01*
X36578777Y-21200777D01*
X36560599Y-21217253D01*
X36540893Y-21231868D01*
X36519850Y-21244480D01*
X36497671Y-21254970D01*
X36474572Y-21263235D01*
X36450773Y-21269196D01*
X36426505Y-21272796D01*
X36402001Y-21274000D01*
X35701999Y-21274000D01*
X35677495Y-21272796D01*
X35653227Y-21269196D01*
X35629428Y-21263235D01*
X35606329Y-21254970D01*
X35584150Y-21244480D01*
X35563107Y-21231868D01*
X35543401Y-21217253D01*
X35525223Y-21200777D01*
X35508747Y-21182599D01*
X35494132Y-21162893D01*
X35481520Y-21141850D01*
X35471030Y-21119671D01*
X35462765Y-21096572D01*
X35456804Y-21072773D01*
X35453204Y-21048505D01*
X35452000Y-21024001D01*
X35452000Y-20123999D01*
X35453204Y-20099495D01*
X35456804Y-20075227D01*
X35462765Y-20051428D01*
X35471030Y-20028329D01*
X35481520Y-20006150D01*
X35494132Y-19985107D01*
X35508747Y-19965401D01*
X35525223Y-19947223D01*
X35543401Y-19930747D01*
X35563107Y-19916132D01*
X35584150Y-19903520D01*
X35606329Y-19893030D01*
X35629428Y-19884765D01*
X35653227Y-19878804D01*
X35677495Y-19875204D01*
X35701999Y-19874000D01*
X36402001Y-19874000D01*
X36426505Y-19875204D01*
G37*
G36*
X34426505Y-17335204D02*
G01*
X34450773Y-17338804D01*
X34474572Y-17344765D01*
X34497671Y-17353030D01*
X34519850Y-17363520D01*
X34540893Y-17376132D01*
X34560599Y-17390747D01*
X34578777Y-17407223D01*
X34595253Y-17425401D01*
X34609868Y-17445107D01*
X34622480Y-17466150D01*
X34632970Y-17488329D01*
X34641235Y-17511428D01*
X34647196Y-17535227D01*
X34650796Y-17559495D01*
X34652000Y-17583999D01*
X34652000Y-18484001D01*
X34650796Y-18508505D01*
X34647196Y-18532773D01*
X34641235Y-18556572D01*
X34632970Y-18579671D01*
X34622480Y-18601850D01*
X34609868Y-18622893D01*
X34595253Y-18642599D01*
X34578777Y-18660777D01*
X34560599Y-18677253D01*
X34540893Y-18691868D01*
X34519850Y-18704480D01*
X34497671Y-18714970D01*
X34474572Y-18723235D01*
X34450773Y-18729196D01*
X34426505Y-18732796D01*
X34402001Y-18734000D01*
X33701999Y-18734000D01*
X33677495Y-18732796D01*
X33653227Y-18729196D01*
X33629428Y-18723235D01*
X33606329Y-18714970D01*
X33584150Y-18704480D01*
X33563107Y-18691868D01*
X33543401Y-18677253D01*
X33525223Y-18660777D01*
X33508747Y-18642599D01*
X33494132Y-18622893D01*
X33481520Y-18601850D01*
X33471030Y-18579671D01*
X33462765Y-18556572D01*
X33456804Y-18532773D01*
X33453204Y-18508505D01*
X33452000Y-18484001D01*
X33452000Y-17583999D01*
X33453204Y-17559495D01*
X33456804Y-17535227D01*
X33462765Y-17511428D01*
X33471030Y-17488329D01*
X33481520Y-17466150D01*
X33494132Y-17445107D01*
X33508747Y-17425401D01*
X33525223Y-17407223D01*
X33543401Y-17390747D01*
X33563107Y-17376132D01*
X33584150Y-17363520D01*
X33606329Y-17353030D01*
X33629428Y-17344765D01*
X33653227Y-17338804D01*
X33677495Y-17335204D01*
X33701999Y-17334000D01*
X34402001Y-17334000D01*
X34426505Y-17335204D01*
G37*
G36*
X36426505Y-17335204D02*
G01*
X36450773Y-17338804D01*
X36474572Y-17344765D01*
X36497671Y-17353030D01*
X36519850Y-17363520D01*
X36540893Y-17376132D01*
X36560599Y-17390747D01*
X36578777Y-17407223D01*
X36595253Y-17425401D01*
X36609868Y-17445107D01*
X36622480Y-17466150D01*
X36632970Y-17488329D01*
X36641235Y-17511428D01*
X36647196Y-17535227D01*
X36650796Y-17559495D01*
X36652000Y-17583999D01*
X36652000Y-18484001D01*
X36650796Y-18508505D01*
X36647196Y-18532773D01*
X36641235Y-18556572D01*
X36632970Y-18579671D01*
X36622480Y-18601850D01*
X36609868Y-18622893D01*
X36595253Y-18642599D01*
X36578777Y-18660777D01*
X36560599Y-18677253D01*
X36540893Y-18691868D01*
X36519850Y-18704480D01*
X36497671Y-18714970D01*
X36474572Y-18723235D01*
X36450773Y-18729196D01*
X36426505Y-18732796D01*
X36402001Y-18734000D01*
X35701999Y-18734000D01*
X35677495Y-18732796D01*
X35653227Y-18729196D01*
X35629428Y-18723235D01*
X35606329Y-18714970D01*
X35584150Y-18704480D01*
X35563107Y-18691868D01*
X35543401Y-18677253D01*
X35525223Y-18660777D01*
X35508747Y-18642599D01*
X35494132Y-18622893D01*
X35481520Y-18601850D01*
X35471030Y-18579671D01*
X35462765Y-18556572D01*
X35456804Y-18532773D01*
X35453204Y-18508505D01*
X35452000Y-18484001D01*
X35452000Y-17583999D01*
X35453204Y-17559495D01*
X35456804Y-17535227D01*
X35462765Y-17511428D01*
X35471030Y-17488329D01*
X35481520Y-17466150D01*
X35494132Y-17445107D01*
X35508747Y-17425401D01*
X35525223Y-17407223D01*
X35543401Y-17390747D01*
X35563107Y-17376132D01*
X35584150Y-17363520D01*
X35606329Y-17353030D01*
X35629428Y-17344765D01*
X35653227Y-17338804D01*
X35677495Y-17335204D01*
X35701999Y-17334000D01*
X36402001Y-17334000D01*
X36426505Y-17335204D01*
G37*
G36*
X34426505Y-14795204D02*
G01*
X34450773Y-14798804D01*
X34474572Y-14804765D01*
X34497671Y-14813030D01*
X34519850Y-14823520D01*
X34540893Y-14836132D01*
X34560599Y-14850747D01*
X34578777Y-14867223D01*
X34595253Y-14885401D01*
X34609868Y-14905107D01*
X34622480Y-14926150D01*
X34632970Y-14948329D01*
X34641235Y-14971428D01*
X34647196Y-14995227D01*
X34650796Y-15019495D01*
X34652000Y-15043999D01*
X34652000Y-15944001D01*
X34650796Y-15968505D01*
X34647196Y-15992773D01*
X34641235Y-16016572D01*
X34632970Y-16039671D01*
X34622480Y-16061850D01*
X34609868Y-16082893D01*
X34595253Y-16102599D01*
X34578777Y-16120777D01*
X34560599Y-16137253D01*
X34540893Y-16151868D01*
X34519850Y-16164480D01*
X34497671Y-16174970D01*
X34474572Y-16183235D01*
X34450773Y-16189196D01*
X34426505Y-16192796D01*
X34402001Y-16194000D01*
X33701999Y-16194000D01*
X33677495Y-16192796D01*
X33653227Y-16189196D01*
X33629428Y-16183235D01*
X33606329Y-16174970D01*
X33584150Y-16164480D01*
X33563107Y-16151868D01*
X33543401Y-16137253D01*
X33525223Y-16120777D01*
X33508747Y-16102599D01*
X33494132Y-16082893D01*
X33481520Y-16061850D01*
X33471030Y-16039671D01*
X33462765Y-16016572D01*
X33456804Y-15992773D01*
X33453204Y-15968505D01*
X33452000Y-15944001D01*
X33452000Y-15043999D01*
X33453204Y-15019495D01*
X33456804Y-14995227D01*
X33462765Y-14971428D01*
X33471030Y-14948329D01*
X33481520Y-14926150D01*
X33494132Y-14905107D01*
X33508747Y-14885401D01*
X33525223Y-14867223D01*
X33543401Y-14850747D01*
X33563107Y-14836132D01*
X33584150Y-14823520D01*
X33606329Y-14813030D01*
X33629428Y-14804765D01*
X33653227Y-14798804D01*
X33677495Y-14795204D01*
X33701999Y-14794000D01*
X34402001Y-14794000D01*
X34426505Y-14795204D01*
G37*
G36*
X36426505Y-14795204D02*
G01*
X36450773Y-14798804D01*
X36474572Y-14804765D01*
X36497671Y-14813030D01*
X36519850Y-14823520D01*
X36540893Y-14836132D01*
X36560599Y-14850747D01*
X36578777Y-14867223D01*
X36595253Y-14885401D01*
X36609868Y-14905107D01*
X36622480Y-14926150D01*
X36632970Y-14948329D01*
X36641235Y-14971428D01*
X36647196Y-14995227D01*
X36650796Y-15019495D01*
X36652000Y-15043999D01*
X36652000Y-15944001D01*
X36650796Y-15968505D01*
X36647196Y-15992773D01*
X36641235Y-16016572D01*
X36632970Y-16039671D01*
X36622480Y-16061850D01*
X36609868Y-16082893D01*
X36595253Y-16102599D01*
X36578777Y-16120777D01*
X36560599Y-16137253D01*
X36540893Y-16151868D01*
X36519850Y-16164480D01*
X36497671Y-16174970D01*
X36474572Y-16183235D01*
X36450773Y-16189196D01*
X36426505Y-16192796D01*
X36402001Y-16194000D01*
X35701999Y-16194000D01*
X35677495Y-16192796D01*
X35653227Y-16189196D01*
X35629428Y-16183235D01*
X35606329Y-16174970D01*
X35584150Y-16164480D01*
X35563107Y-16151868D01*
X35543401Y-16137253D01*
X35525223Y-16120777D01*
X35508747Y-16102599D01*
X35494132Y-16082893D01*
X35481520Y-16061850D01*
X35471030Y-16039671D01*
X35462765Y-16016572D01*
X35456804Y-15992773D01*
X35453204Y-15968505D01*
X35452000Y-15944001D01*
X35452000Y-15043999D01*
X35453204Y-15019495D01*
X35456804Y-14995227D01*
X35462765Y-14971428D01*
X35471030Y-14948329D01*
X35481520Y-14926150D01*
X35494132Y-14905107D01*
X35508747Y-14885401D01*
X35525223Y-14867223D01*
X35543401Y-14850747D01*
X35563107Y-14836132D01*
X35584150Y-14823520D01*
X35606329Y-14813030D01*
X35629428Y-14804765D01*
X35653227Y-14798804D01*
X35677495Y-14795204D01*
X35701999Y-14794000D01*
X36402001Y-14794000D01*
X36426505Y-14795204D01*
G37*
G36*
X34172505Y-12255204D02*
G01*
X34196773Y-12258804D01*
X34220572Y-12264765D01*
X34243671Y-12273030D01*
X34265850Y-12283520D01*
X34286893Y-12296132D01*
X34306599Y-12310747D01*
X34324777Y-12327223D01*
X34341253Y-12345401D01*
X34355868Y-12365107D01*
X34368480Y-12386150D01*
X34378970Y-12408329D01*
X34387235Y-12431428D01*
X34393196Y-12455227D01*
X34396796Y-12479495D01*
X34398000Y-12503999D01*
X34398000Y-13404001D01*
X34396796Y-13428505D01*
X34393196Y-13452773D01*
X34387235Y-13476572D01*
X34378970Y-13499671D01*
X34368480Y-13521850D01*
X34355868Y-13542893D01*
X34341253Y-13562599D01*
X34324777Y-13580777D01*
X34306599Y-13597253D01*
X34286893Y-13611868D01*
X34265850Y-13624480D01*
X34243671Y-13634970D01*
X34220572Y-13643235D01*
X34196773Y-13649196D01*
X34172505Y-13652796D01*
X34148001Y-13654000D01*
X33447999Y-13654000D01*
X33423495Y-13652796D01*
X33399227Y-13649196D01*
X33375428Y-13643235D01*
X33352329Y-13634970D01*
X33330150Y-13624480D01*
X33309107Y-13611868D01*
X33289401Y-13597253D01*
X33271223Y-13580777D01*
X33254747Y-13562599D01*
X33240132Y-13542893D01*
X33227520Y-13521850D01*
X33217030Y-13499671D01*
X33208765Y-13476572D01*
X33202804Y-13452773D01*
X33199204Y-13428505D01*
X33198000Y-13404001D01*
X33198000Y-12503999D01*
X33199204Y-12479495D01*
X33202804Y-12455227D01*
X33208765Y-12431428D01*
X33217030Y-12408329D01*
X33227520Y-12386150D01*
X33240132Y-12365107D01*
X33254747Y-12345401D01*
X33271223Y-12327223D01*
X33289401Y-12310747D01*
X33309107Y-12296132D01*
X33330150Y-12283520D01*
X33352329Y-12273030D01*
X33375428Y-12264765D01*
X33399227Y-12258804D01*
X33423495Y-12255204D01*
X33447999Y-12254000D01*
X34148001Y-12254000D01*
X34172505Y-12255204D01*
G37*
G36*
X36172505Y-12255204D02*
G01*
X36196773Y-12258804D01*
X36220572Y-12264765D01*
X36243671Y-12273030D01*
X36265850Y-12283520D01*
X36286893Y-12296132D01*
X36306599Y-12310747D01*
X36324777Y-12327223D01*
X36341253Y-12345401D01*
X36355868Y-12365107D01*
X36368480Y-12386150D01*
X36378970Y-12408329D01*
X36387235Y-12431428D01*
X36393196Y-12455227D01*
X36396796Y-12479495D01*
X36398000Y-12503999D01*
X36398000Y-13404001D01*
X36396796Y-13428505D01*
X36393196Y-13452773D01*
X36387235Y-13476572D01*
X36378970Y-13499671D01*
X36368480Y-13521850D01*
X36355868Y-13542893D01*
X36341253Y-13562599D01*
X36324777Y-13580777D01*
X36306599Y-13597253D01*
X36286893Y-13611868D01*
X36265850Y-13624480D01*
X36243671Y-13634970D01*
X36220572Y-13643235D01*
X36196773Y-13649196D01*
X36172505Y-13652796D01*
X36148001Y-13654000D01*
X35447999Y-13654000D01*
X35423495Y-13652796D01*
X35399227Y-13649196D01*
X35375428Y-13643235D01*
X35352329Y-13634970D01*
X35330150Y-13624480D01*
X35309107Y-13611868D01*
X35289401Y-13597253D01*
X35271223Y-13580777D01*
X35254747Y-13562599D01*
X35240132Y-13542893D01*
X35227520Y-13521850D01*
X35217030Y-13499671D01*
X35208765Y-13476572D01*
X35202804Y-13452773D01*
X35199204Y-13428505D01*
X35198000Y-13404001D01*
X35198000Y-12503999D01*
X35199204Y-12479495D01*
X35202804Y-12455227D01*
X35208765Y-12431428D01*
X35217030Y-12408329D01*
X35227520Y-12386150D01*
X35240132Y-12365107D01*
X35254747Y-12345401D01*
X35271223Y-12327223D01*
X35289401Y-12310747D01*
X35309107Y-12296132D01*
X35330150Y-12283520D01*
X35352329Y-12273030D01*
X35375428Y-12264765D01*
X35399227Y-12258804D01*
X35423495Y-12255204D01*
X35447999Y-12254000D01*
X36148001Y-12254000D01*
X36172505Y-12255204D01*
G37*
G36*
X34172505Y-9715204D02*
G01*
X34196773Y-9718804D01*
X34220572Y-9724765D01*
X34243671Y-9733030D01*
X34265850Y-9743520D01*
X34286893Y-9756132D01*
X34306599Y-9770747D01*
X34324777Y-9787223D01*
X34341253Y-9805401D01*
X34355868Y-9825107D01*
X34368480Y-9846150D01*
X34378970Y-9868329D01*
X34387235Y-9891428D01*
X34393196Y-9915227D01*
X34396796Y-9939495D01*
X34398000Y-9963999D01*
X34398000Y-10864001D01*
X34396796Y-10888505D01*
X34393196Y-10912773D01*
X34387235Y-10936572D01*
X34378970Y-10959671D01*
X34368480Y-10981850D01*
X34355868Y-11002893D01*
X34341253Y-11022599D01*
X34324777Y-11040777D01*
X34306599Y-11057253D01*
X34286893Y-11071868D01*
X34265850Y-11084480D01*
X34243671Y-11094970D01*
X34220572Y-11103235D01*
X34196773Y-11109196D01*
X34172505Y-11112796D01*
X34148001Y-11114000D01*
X33447999Y-11114000D01*
X33423495Y-11112796D01*
X33399227Y-11109196D01*
X33375428Y-11103235D01*
X33352329Y-11094970D01*
X33330150Y-11084480D01*
X33309107Y-11071868D01*
X33289401Y-11057253D01*
X33271223Y-11040777D01*
X33254747Y-11022599D01*
X33240132Y-11002893D01*
X33227520Y-10981850D01*
X33217030Y-10959671D01*
X33208765Y-10936572D01*
X33202804Y-10912773D01*
X33199204Y-10888505D01*
X33198000Y-10864001D01*
X33198000Y-9963999D01*
X33199204Y-9939495D01*
X33202804Y-9915227D01*
X33208765Y-9891428D01*
X33217030Y-9868329D01*
X33227520Y-9846150D01*
X33240132Y-9825107D01*
X33254747Y-9805401D01*
X33271223Y-9787223D01*
X33289401Y-9770747D01*
X33309107Y-9756132D01*
X33330150Y-9743520D01*
X33352329Y-9733030D01*
X33375428Y-9724765D01*
X33399227Y-9718804D01*
X33423495Y-9715204D01*
X33447999Y-9714000D01*
X34148001Y-9714000D01*
X34172505Y-9715204D01*
G37*
G36*
X36172505Y-9715204D02*
G01*
X36196773Y-9718804D01*
X36220572Y-9724765D01*
X36243671Y-9733030D01*
X36265850Y-9743520D01*
X36286893Y-9756132D01*
X36306599Y-9770747D01*
X36324777Y-9787223D01*
X36341253Y-9805401D01*
X36355868Y-9825107D01*
X36368480Y-9846150D01*
X36378970Y-9868329D01*
X36387235Y-9891428D01*
X36393196Y-9915227D01*
X36396796Y-9939495D01*
X36398000Y-9963999D01*
X36398000Y-10864001D01*
X36396796Y-10888505D01*
X36393196Y-10912773D01*
X36387235Y-10936572D01*
X36378970Y-10959671D01*
X36368480Y-10981850D01*
X36355868Y-11002893D01*
X36341253Y-11022599D01*
X36324777Y-11040777D01*
X36306599Y-11057253D01*
X36286893Y-11071868D01*
X36265850Y-11084480D01*
X36243671Y-11094970D01*
X36220572Y-11103235D01*
X36196773Y-11109196D01*
X36172505Y-11112796D01*
X36148001Y-11114000D01*
X35447999Y-11114000D01*
X35423495Y-11112796D01*
X35399227Y-11109196D01*
X35375428Y-11103235D01*
X35352329Y-11094970D01*
X35330150Y-11084480D01*
X35309107Y-11071868D01*
X35289401Y-11057253D01*
X35271223Y-11040777D01*
X35254747Y-11022599D01*
X35240132Y-11002893D01*
X35227520Y-10981850D01*
X35217030Y-10959671D01*
X35208765Y-10936572D01*
X35202804Y-10912773D01*
X35199204Y-10888505D01*
X35198000Y-10864001D01*
X35198000Y-9963999D01*
X35199204Y-9939495D01*
X35202804Y-9915227D01*
X35208765Y-9891428D01*
X35217030Y-9868329D01*
X35227520Y-9846150D01*
X35240132Y-9825107D01*
X35254747Y-9805401D01*
X35271223Y-9787223D01*
X35289401Y-9770747D01*
X35309107Y-9756132D01*
X35330150Y-9743520D01*
X35352329Y-9733030D01*
X35375428Y-9724765D01*
X35399227Y-9718804D01*
X35423495Y-9715204D01*
X35447999Y-9714000D01*
X36148001Y-9714000D01*
X36172505Y-9715204D01*
G37*
G36*
X34172505Y-7175204D02*
G01*
X34196773Y-7178804D01*
X34220572Y-7184765D01*
X34243671Y-7193030D01*
X34265850Y-7203520D01*
X34286893Y-7216132D01*
X34306599Y-7230747D01*
X34324777Y-7247223D01*
X34341253Y-7265401D01*
X34355868Y-7285107D01*
X34368480Y-7306150D01*
X34378970Y-7328329D01*
X34387235Y-7351428D01*
X34393196Y-7375227D01*
X34396796Y-7399495D01*
X34398000Y-7423999D01*
X34398000Y-8324001D01*
X34396796Y-8348505D01*
X34393196Y-8372773D01*
X34387235Y-8396572D01*
X34378970Y-8419671D01*
X34368480Y-8441850D01*
X34355868Y-8462893D01*
X34341253Y-8482599D01*
X34324777Y-8500777D01*
X34306599Y-8517253D01*
X34286893Y-8531868D01*
X34265850Y-8544480D01*
X34243671Y-8554970D01*
X34220572Y-8563235D01*
X34196773Y-8569196D01*
X34172505Y-8572796D01*
X34148001Y-8574000D01*
X33447999Y-8574000D01*
X33423495Y-8572796D01*
X33399227Y-8569196D01*
X33375428Y-8563235D01*
X33352329Y-8554970D01*
X33330150Y-8544480D01*
X33309107Y-8531868D01*
X33289401Y-8517253D01*
X33271223Y-8500777D01*
X33254747Y-8482599D01*
X33240132Y-8462893D01*
X33227520Y-8441850D01*
X33217030Y-8419671D01*
X33208765Y-8396572D01*
X33202804Y-8372773D01*
X33199204Y-8348505D01*
X33198000Y-8324001D01*
X33198000Y-7423999D01*
X33199204Y-7399495D01*
X33202804Y-7375227D01*
X33208765Y-7351428D01*
X33217030Y-7328329D01*
X33227520Y-7306150D01*
X33240132Y-7285107D01*
X33254747Y-7265401D01*
X33271223Y-7247223D01*
X33289401Y-7230747D01*
X33309107Y-7216132D01*
X33330150Y-7203520D01*
X33352329Y-7193030D01*
X33375428Y-7184765D01*
X33399227Y-7178804D01*
X33423495Y-7175204D01*
X33447999Y-7174000D01*
X34148001Y-7174000D01*
X34172505Y-7175204D01*
G37*
G36*
X36172505Y-7175204D02*
G01*
X36196773Y-7178804D01*
X36220572Y-7184765D01*
X36243671Y-7193030D01*
X36265850Y-7203520D01*
X36286893Y-7216132D01*
X36306599Y-7230747D01*
X36324777Y-7247223D01*
X36341253Y-7265401D01*
X36355868Y-7285107D01*
X36368480Y-7306150D01*
X36378970Y-7328329D01*
X36387235Y-7351428D01*
X36393196Y-7375227D01*
X36396796Y-7399495D01*
X36398000Y-7423999D01*
X36398000Y-8324001D01*
X36396796Y-8348505D01*
X36393196Y-8372773D01*
X36387235Y-8396572D01*
X36378970Y-8419671D01*
X36368480Y-8441850D01*
X36355868Y-8462893D01*
X36341253Y-8482599D01*
X36324777Y-8500777D01*
X36306599Y-8517253D01*
X36286893Y-8531868D01*
X36265850Y-8544480D01*
X36243671Y-8554970D01*
X36220572Y-8563235D01*
X36196773Y-8569196D01*
X36172505Y-8572796D01*
X36148001Y-8574000D01*
X35447999Y-8574000D01*
X35423495Y-8572796D01*
X35399227Y-8569196D01*
X35375428Y-8563235D01*
X35352329Y-8554970D01*
X35330150Y-8544480D01*
X35309107Y-8531868D01*
X35289401Y-8517253D01*
X35271223Y-8500777D01*
X35254747Y-8482599D01*
X35240132Y-8462893D01*
X35227520Y-8441850D01*
X35217030Y-8419671D01*
X35208765Y-8396572D01*
X35202804Y-8372773D01*
X35199204Y-8348505D01*
X35198000Y-8324001D01*
X35198000Y-7423999D01*
X35199204Y-7399495D01*
X35202804Y-7375227D01*
X35208765Y-7351428D01*
X35217030Y-7328329D01*
X35227520Y-7306150D01*
X35240132Y-7285107D01*
X35254747Y-7265401D01*
X35271223Y-7247223D01*
X35289401Y-7230747D01*
X35309107Y-7216132D01*
X35330150Y-7203520D01*
X35352329Y-7193030D01*
X35375428Y-7184765D01*
X35399227Y-7178804D01*
X35423495Y-7175204D01*
X35447999Y-7174000D01*
X36148001Y-7174000D01*
X36172505Y-7175204D01*
G37*
G36*
X34172505Y-4635204D02*
G01*
X34196773Y-4638804D01*
X34220572Y-4644765D01*
X34243671Y-4653030D01*
X34265850Y-4663520D01*
X34286893Y-4676132D01*
X34306599Y-4690747D01*
X34324777Y-4707223D01*
X34341253Y-4725401D01*
X34355868Y-4745107D01*
X34368480Y-4766150D01*
X34378970Y-4788329D01*
X34387235Y-4811428D01*
X34393196Y-4835227D01*
X34396796Y-4859495D01*
X34398000Y-4883999D01*
X34398000Y-5784001D01*
X34396796Y-5808505D01*
X34393196Y-5832773D01*
X34387235Y-5856572D01*
X34378970Y-5879671D01*
X34368480Y-5901850D01*
X34355868Y-5922893D01*
X34341253Y-5942599D01*
X34324777Y-5960777D01*
X34306599Y-5977253D01*
X34286893Y-5991868D01*
X34265850Y-6004480D01*
X34243671Y-6014970D01*
X34220572Y-6023235D01*
X34196773Y-6029196D01*
X34172505Y-6032796D01*
X34148001Y-6034000D01*
X33447999Y-6034000D01*
X33423495Y-6032796D01*
X33399227Y-6029196D01*
X33375428Y-6023235D01*
X33352329Y-6014970D01*
X33330150Y-6004480D01*
X33309107Y-5991868D01*
X33289401Y-5977253D01*
X33271223Y-5960777D01*
X33254747Y-5942599D01*
X33240132Y-5922893D01*
X33227520Y-5901850D01*
X33217030Y-5879671D01*
X33208765Y-5856572D01*
X33202804Y-5832773D01*
X33199204Y-5808505D01*
X33198000Y-5784001D01*
X33198000Y-4883999D01*
X33199204Y-4859495D01*
X33202804Y-4835227D01*
X33208765Y-4811428D01*
X33217030Y-4788329D01*
X33227520Y-4766150D01*
X33240132Y-4745107D01*
X33254747Y-4725401D01*
X33271223Y-4707223D01*
X33289401Y-4690747D01*
X33309107Y-4676132D01*
X33330150Y-4663520D01*
X33352329Y-4653030D01*
X33375428Y-4644765D01*
X33399227Y-4638804D01*
X33423495Y-4635204D01*
X33447999Y-4634000D01*
X34148001Y-4634000D01*
X34172505Y-4635204D01*
G37*
G36*
X36172505Y-4635204D02*
G01*
X36196773Y-4638804D01*
X36220572Y-4644765D01*
X36243671Y-4653030D01*
X36265850Y-4663520D01*
X36286893Y-4676132D01*
X36306599Y-4690747D01*
X36324777Y-4707223D01*
X36341253Y-4725401D01*
X36355868Y-4745107D01*
X36368480Y-4766150D01*
X36378970Y-4788329D01*
X36387235Y-4811428D01*
X36393196Y-4835227D01*
X36396796Y-4859495D01*
X36398000Y-4883999D01*
X36398000Y-5784001D01*
X36396796Y-5808505D01*
X36393196Y-5832773D01*
X36387235Y-5856572D01*
X36378970Y-5879671D01*
X36368480Y-5901850D01*
X36355868Y-5922893D01*
X36341253Y-5942599D01*
X36324777Y-5960777D01*
X36306599Y-5977253D01*
X36286893Y-5991868D01*
X36265850Y-6004480D01*
X36243671Y-6014970D01*
X36220572Y-6023235D01*
X36196773Y-6029196D01*
X36172505Y-6032796D01*
X36148001Y-6034000D01*
X35447999Y-6034000D01*
X35423495Y-6032796D01*
X35399227Y-6029196D01*
X35375428Y-6023235D01*
X35352329Y-6014970D01*
X35330150Y-6004480D01*
X35309107Y-5991868D01*
X35289401Y-5977253D01*
X35271223Y-5960777D01*
X35254747Y-5942599D01*
X35240132Y-5922893D01*
X35227520Y-5901850D01*
X35217030Y-5879671D01*
X35208765Y-5856572D01*
X35202804Y-5832773D01*
X35199204Y-5808505D01*
X35198000Y-5784001D01*
X35198000Y-4883999D01*
X35199204Y-4859495D01*
X35202804Y-4835227D01*
X35208765Y-4811428D01*
X35217030Y-4788329D01*
X35227520Y-4766150D01*
X35240132Y-4745107D01*
X35254747Y-4725401D01*
X35271223Y-4707223D01*
X35289401Y-4690747D01*
X35309107Y-4676132D01*
X35330150Y-4663520D01*
X35352329Y-4653030D01*
X35375428Y-4644765D01*
X35399227Y-4638804D01*
X35423495Y-4635204D01*
X35447999Y-4634000D01*
X36148001Y-4634000D01*
X36172505Y-4635204D01*
G37*
G36*
X34188505Y-2095204D02*
G01*
X34212773Y-2098804D01*
X34236572Y-2104765D01*
X34259671Y-2113030D01*
X34281850Y-2123520D01*
X34302893Y-2136132D01*
X34322599Y-2150747D01*
X34340777Y-2167223D01*
X34357253Y-2185401D01*
X34371868Y-2205107D01*
X34384480Y-2226150D01*
X34394970Y-2248329D01*
X34403235Y-2271428D01*
X34409196Y-2295227D01*
X34412796Y-2319495D01*
X34414000Y-2343999D01*
X34414000Y-3244001D01*
X34412796Y-3268505D01*
X34409196Y-3292773D01*
X34403235Y-3316572D01*
X34394970Y-3339671D01*
X34384480Y-3361850D01*
X34371868Y-3382893D01*
X34357253Y-3402599D01*
X34340777Y-3420777D01*
X34322599Y-3437253D01*
X34302893Y-3451868D01*
X34281850Y-3464480D01*
X34259671Y-3474970D01*
X34236572Y-3483235D01*
X34212773Y-3489196D01*
X34188505Y-3492796D01*
X34164001Y-3494000D01*
X33463999Y-3494000D01*
X33439495Y-3492796D01*
X33415227Y-3489196D01*
X33391428Y-3483235D01*
X33368329Y-3474970D01*
X33346150Y-3464480D01*
X33325107Y-3451868D01*
X33305401Y-3437253D01*
X33287223Y-3420777D01*
X33270747Y-3402599D01*
X33256132Y-3382893D01*
X33243520Y-3361850D01*
X33233030Y-3339671D01*
X33224765Y-3316572D01*
X33218804Y-3292773D01*
X33215204Y-3268505D01*
X33214000Y-3244001D01*
X33214000Y-2343999D01*
X33215204Y-2319495D01*
X33218804Y-2295227D01*
X33224765Y-2271428D01*
X33233030Y-2248329D01*
X33243520Y-2226150D01*
X33256132Y-2205107D01*
X33270747Y-2185401D01*
X33287223Y-2167223D01*
X33305401Y-2150747D01*
X33325107Y-2136132D01*
X33346150Y-2123520D01*
X33368329Y-2113030D01*
X33391428Y-2104765D01*
X33415227Y-2098804D01*
X33439495Y-2095204D01*
X33463999Y-2094000D01*
X34164001Y-2094000D01*
X34188505Y-2095204D01*
G37*
G36*
X36188505Y-2095204D02*
G01*
X36212773Y-2098804D01*
X36236572Y-2104765D01*
X36259671Y-2113030D01*
X36281850Y-2123520D01*
X36302893Y-2136132D01*
X36322599Y-2150747D01*
X36340777Y-2167223D01*
X36357253Y-2185401D01*
X36371868Y-2205107D01*
X36384480Y-2226150D01*
X36394970Y-2248329D01*
X36403235Y-2271428D01*
X36409196Y-2295227D01*
X36412796Y-2319495D01*
X36414000Y-2343999D01*
X36414000Y-3244001D01*
X36412796Y-3268505D01*
X36409196Y-3292773D01*
X36403235Y-3316572D01*
X36394970Y-3339671D01*
X36384480Y-3361850D01*
X36371868Y-3382893D01*
X36357253Y-3402599D01*
X36340777Y-3420777D01*
X36322599Y-3437253D01*
X36302893Y-3451868D01*
X36281850Y-3464480D01*
X36259671Y-3474970D01*
X36236572Y-3483235D01*
X36212773Y-3489196D01*
X36188505Y-3492796D01*
X36164001Y-3494000D01*
X35463999Y-3494000D01*
X35439495Y-3492796D01*
X35415227Y-3489196D01*
X35391428Y-3483235D01*
X35368329Y-3474970D01*
X35346150Y-3464480D01*
X35325107Y-3451868D01*
X35305401Y-3437253D01*
X35287223Y-3420777D01*
X35270747Y-3402599D01*
X35256132Y-3382893D01*
X35243520Y-3361850D01*
X35233030Y-3339671D01*
X35224765Y-3316572D01*
X35218804Y-3292773D01*
X35215204Y-3268505D01*
X35214000Y-3244001D01*
X35214000Y-2343999D01*
X35215204Y-2319495D01*
X35218804Y-2295227D01*
X35224765Y-2271428D01*
X35233030Y-2248329D01*
X35243520Y-2226150D01*
X35256132Y-2205107D01*
X35270747Y-2185401D01*
X35287223Y-2167223D01*
X35305401Y-2150747D01*
X35325107Y-2136132D01*
X35346150Y-2123520D01*
X35368329Y-2113030D01*
X35391428Y-2104765D01*
X35415227Y-2098804D01*
X35439495Y-2095204D01*
X35463999Y-2094000D01*
X36164001Y-2094000D01*
X36188505Y-2095204D01*
G37*
G36*
X34172505Y444796D02*
G01*
X34196773Y441196D01*
X34220572Y435235D01*
X34243671Y426970D01*
X34265850Y416480D01*
X34286893Y403868D01*
X34306599Y389253D01*
X34324777Y372777D01*
X34341253Y354599D01*
X34355868Y334893D01*
X34368480Y313850D01*
X34378970Y291671D01*
X34387235Y268572D01*
X34393196Y244773D01*
X34396796Y220505D01*
X34398000Y196001D01*
X34398000Y-704001D01*
X34396796Y-728505D01*
X34393196Y-752773D01*
X34387235Y-776572D01*
X34378970Y-799671D01*
X34368480Y-821850D01*
X34355868Y-842893D01*
X34341253Y-862599D01*
X34324777Y-880777D01*
X34306599Y-897253D01*
X34286893Y-911868D01*
X34265850Y-924480D01*
X34243671Y-934970D01*
X34220572Y-943235D01*
X34196773Y-949196D01*
X34172505Y-952796D01*
X34148001Y-954000D01*
X33447999Y-954000D01*
X33423495Y-952796D01*
X33399227Y-949196D01*
X33375428Y-943235D01*
X33352329Y-934970D01*
X33330150Y-924480D01*
X33309107Y-911868D01*
X33289401Y-897253D01*
X33271223Y-880777D01*
X33254747Y-862599D01*
X33240132Y-842893D01*
X33227520Y-821850D01*
X33217030Y-799671D01*
X33208765Y-776572D01*
X33202804Y-752773D01*
X33199204Y-728505D01*
X33198000Y-704001D01*
X33198000Y196001D01*
X33199204Y220505D01*
X33202804Y244773D01*
X33208765Y268572D01*
X33217030Y291671D01*
X33227520Y313850D01*
X33240132Y334893D01*
X33254747Y354599D01*
X33271223Y372777D01*
X33289401Y389253D01*
X33309107Y403868D01*
X33330150Y416480D01*
X33352329Y426970D01*
X33375428Y435235D01*
X33399227Y441196D01*
X33423495Y444796D01*
X33447999Y446000D01*
X34148001Y446000D01*
X34172505Y444796D01*
G37*
G36*
X36172505Y444796D02*
G01*
X36196773Y441196D01*
X36220572Y435235D01*
X36243671Y426970D01*
X36265850Y416480D01*
X36286893Y403868D01*
X36306599Y389253D01*
X36324777Y372777D01*
X36341253Y354599D01*
X36355868Y334893D01*
X36368480Y313850D01*
X36378970Y291671D01*
X36387235Y268572D01*
X36393196Y244773D01*
X36396796Y220505D01*
X36398000Y196001D01*
X36398000Y-704001D01*
X36396796Y-728505D01*
X36393196Y-752773D01*
X36387235Y-776572D01*
X36378970Y-799671D01*
X36368480Y-821850D01*
X36355868Y-842893D01*
X36341253Y-862599D01*
X36324777Y-880777D01*
X36306599Y-897253D01*
X36286893Y-911868D01*
X36265850Y-924480D01*
X36243671Y-934970D01*
X36220572Y-943235D01*
X36196773Y-949196D01*
X36172505Y-952796D01*
X36148001Y-954000D01*
X35447999Y-954000D01*
X35423495Y-952796D01*
X35399227Y-949196D01*
X35375428Y-943235D01*
X35352329Y-934970D01*
X35330150Y-924480D01*
X35309107Y-911868D01*
X35289401Y-897253D01*
X35271223Y-880777D01*
X35254747Y-862599D01*
X35240132Y-842893D01*
X35227520Y-821850D01*
X35217030Y-799671D01*
X35208765Y-776572D01*
X35202804Y-752773D01*
X35199204Y-728505D01*
X35198000Y-704001D01*
X35198000Y196001D01*
X35199204Y220505D01*
X35202804Y244773D01*
X35208765Y268572D01*
X35217030Y291671D01*
X35227520Y313850D01*
X35240132Y334893D01*
X35254747Y354599D01*
X35271223Y372777D01*
X35289401Y389253D01*
X35309107Y403868D01*
X35330150Y416480D01*
X35352329Y426970D01*
X35375428Y435235D01*
X35399227Y441196D01*
X35423495Y444796D01*
X35447999Y446000D01*
X36148001Y446000D01*
X36172505Y444796D01*
G37*
G36*
X34172505Y2984796D02*
G01*
X34196773Y2981196D01*
X34220572Y2975235D01*
X34243671Y2966970D01*
X34265850Y2956480D01*
X34286893Y2943868D01*
X34306599Y2929253D01*
X34324777Y2912777D01*
X34341253Y2894599D01*
X34355868Y2874893D01*
X34368480Y2853850D01*
X34378970Y2831671D01*
X34387235Y2808572D01*
X34393196Y2784773D01*
X34396796Y2760505D01*
X34398000Y2736001D01*
X34398000Y1835999D01*
X34396796Y1811495D01*
X34393196Y1787227D01*
X34387235Y1763428D01*
X34378970Y1740329D01*
X34368480Y1718150D01*
X34355868Y1697107D01*
X34341253Y1677401D01*
X34324777Y1659223D01*
X34306599Y1642747D01*
X34286893Y1628132D01*
X34265850Y1615520D01*
X34243671Y1605030D01*
X34220572Y1596765D01*
X34196773Y1590804D01*
X34172505Y1587204D01*
X34148001Y1586000D01*
X33447999Y1586000D01*
X33423495Y1587204D01*
X33399227Y1590804D01*
X33375428Y1596765D01*
X33352329Y1605030D01*
X33330150Y1615520D01*
X33309107Y1628132D01*
X33289401Y1642747D01*
X33271223Y1659223D01*
X33254747Y1677401D01*
X33240132Y1697107D01*
X33227520Y1718150D01*
X33217030Y1740329D01*
X33208765Y1763428D01*
X33202804Y1787227D01*
X33199204Y1811495D01*
X33198000Y1835999D01*
X33198000Y2736001D01*
X33199204Y2760505D01*
X33202804Y2784773D01*
X33208765Y2808572D01*
X33217030Y2831671D01*
X33227520Y2853850D01*
X33240132Y2874893D01*
X33254747Y2894599D01*
X33271223Y2912777D01*
X33289401Y2929253D01*
X33309107Y2943868D01*
X33330150Y2956480D01*
X33352329Y2966970D01*
X33375428Y2975235D01*
X33399227Y2981196D01*
X33423495Y2984796D01*
X33447999Y2986000D01*
X34148001Y2986000D01*
X34172505Y2984796D01*
G37*
G36*
X36172505Y2984796D02*
G01*
X36196773Y2981196D01*
X36220572Y2975235D01*
X36243671Y2966970D01*
X36265850Y2956480D01*
X36286893Y2943868D01*
X36306599Y2929253D01*
X36324777Y2912777D01*
X36341253Y2894599D01*
X36355868Y2874893D01*
X36368480Y2853850D01*
X36378970Y2831671D01*
X36387235Y2808572D01*
X36393196Y2784773D01*
X36396796Y2760505D01*
X36398000Y2736001D01*
X36398000Y1835999D01*
X36396796Y1811495D01*
X36393196Y1787227D01*
X36387235Y1763428D01*
X36378970Y1740329D01*
X36368480Y1718150D01*
X36355868Y1697107D01*
X36341253Y1677401D01*
X36324777Y1659223D01*
X36306599Y1642747D01*
X36286893Y1628132D01*
X36265850Y1615520D01*
X36243671Y1605030D01*
X36220572Y1596765D01*
X36196773Y1590804D01*
X36172505Y1587204D01*
X36148001Y1586000D01*
X35447999Y1586000D01*
X35423495Y1587204D01*
X35399227Y1590804D01*
X35375428Y1596765D01*
X35352329Y1605030D01*
X35330150Y1615520D01*
X35309107Y1628132D01*
X35289401Y1642747D01*
X35271223Y1659223D01*
X35254747Y1677401D01*
X35240132Y1697107D01*
X35227520Y1718150D01*
X35217030Y1740329D01*
X35208765Y1763428D01*
X35202804Y1787227D01*
X35199204Y1811495D01*
X35198000Y1835999D01*
X35198000Y2736001D01*
X35199204Y2760505D01*
X35202804Y2784773D01*
X35208765Y2808572D01*
X35217030Y2831671D01*
X35227520Y2853850D01*
X35240132Y2874893D01*
X35254747Y2894599D01*
X35271223Y2912777D01*
X35289401Y2929253D01*
X35309107Y2943868D01*
X35330150Y2956480D01*
X35352329Y2966970D01*
X35375428Y2975235D01*
X35399227Y2981196D01*
X35423495Y2984796D01*
X35447999Y2986000D01*
X36148001Y2986000D01*
X36172505Y2984796D01*
G37*
G36*
X9788505Y-19875204D02*
G01*
X9812773Y-19878804D01*
X9836572Y-19884765D01*
X9859671Y-19893030D01*
X9881850Y-19903520D01*
X9902893Y-19916132D01*
X9922599Y-19930747D01*
X9940777Y-19947223D01*
X9957253Y-19965401D01*
X9971868Y-19985107D01*
X9984480Y-20006150D01*
X9994970Y-20028329D01*
X10003235Y-20051428D01*
X10009196Y-20075227D01*
X10012796Y-20099495D01*
X10014000Y-20123999D01*
X10014000Y-21024001D01*
X10012796Y-21048505D01*
X10009196Y-21072773D01*
X10003235Y-21096572D01*
X9994970Y-21119671D01*
X9984480Y-21141850D01*
X9971868Y-21162893D01*
X9957253Y-21182599D01*
X9940777Y-21200777D01*
X9922599Y-21217253D01*
X9902893Y-21231868D01*
X9881850Y-21244480D01*
X9859671Y-21254970D01*
X9836572Y-21263235D01*
X9812773Y-21269196D01*
X9788505Y-21272796D01*
X9764001Y-21274000D01*
X9063999Y-21274000D01*
X9039495Y-21272796D01*
X9015227Y-21269196D01*
X8991428Y-21263235D01*
X8968329Y-21254970D01*
X8946150Y-21244480D01*
X8925107Y-21231868D01*
X8905401Y-21217253D01*
X8887223Y-21200777D01*
X8870747Y-21182599D01*
X8856132Y-21162893D01*
X8843520Y-21141850D01*
X8833030Y-21119671D01*
X8824765Y-21096572D01*
X8818804Y-21072773D01*
X8815204Y-21048505D01*
X8814000Y-21024001D01*
X8814000Y-20123999D01*
X8815204Y-20099495D01*
X8818804Y-20075227D01*
X8824765Y-20051428D01*
X8833030Y-20028329D01*
X8843520Y-20006150D01*
X8856132Y-19985107D01*
X8870747Y-19965401D01*
X8887223Y-19947223D01*
X8905401Y-19930747D01*
X8925107Y-19916132D01*
X8946150Y-19903520D01*
X8968329Y-19893030D01*
X8991428Y-19884765D01*
X9015227Y-19878804D01*
X9039495Y-19875204D01*
X9063999Y-19874000D01*
X9764001Y-19874000D01*
X9788505Y-19875204D01*
G37*
G36*
X11788505Y-19875204D02*
G01*
X11812773Y-19878804D01*
X11836572Y-19884765D01*
X11859671Y-19893030D01*
X11881850Y-19903520D01*
X11902893Y-19916132D01*
X11922599Y-19930747D01*
X11940777Y-19947223D01*
X11957253Y-19965401D01*
X11971868Y-19985107D01*
X11984480Y-20006150D01*
X11994970Y-20028329D01*
X12003235Y-20051428D01*
X12009196Y-20075227D01*
X12012796Y-20099495D01*
X12014000Y-20123999D01*
X12014000Y-21024001D01*
X12012796Y-21048505D01*
X12009196Y-21072773D01*
X12003235Y-21096572D01*
X11994970Y-21119671D01*
X11984480Y-21141850D01*
X11971868Y-21162893D01*
X11957253Y-21182599D01*
X11940777Y-21200777D01*
X11922599Y-21217253D01*
X11902893Y-21231868D01*
X11881850Y-21244480D01*
X11859671Y-21254970D01*
X11836572Y-21263235D01*
X11812773Y-21269196D01*
X11788505Y-21272796D01*
X11764001Y-21274000D01*
X11063999Y-21274000D01*
X11039495Y-21272796D01*
X11015227Y-21269196D01*
X10991428Y-21263235D01*
X10968329Y-21254970D01*
X10946150Y-21244480D01*
X10925107Y-21231868D01*
X10905401Y-21217253D01*
X10887223Y-21200777D01*
X10870747Y-21182599D01*
X10856132Y-21162893D01*
X10843520Y-21141850D01*
X10833030Y-21119671D01*
X10824765Y-21096572D01*
X10818804Y-21072773D01*
X10815204Y-21048505D01*
X10814000Y-21024001D01*
X10814000Y-20123999D01*
X10815204Y-20099495D01*
X10818804Y-20075227D01*
X10824765Y-20051428D01*
X10833030Y-20028329D01*
X10843520Y-20006150D01*
X10856132Y-19985107D01*
X10870747Y-19965401D01*
X10887223Y-19947223D01*
X10905401Y-19930747D01*
X10925107Y-19916132D01*
X10946150Y-19903520D01*
X10968329Y-19893030D01*
X10991428Y-19884765D01*
X11015227Y-19878804D01*
X11039495Y-19875204D01*
X11063999Y-19874000D01*
X11764001Y-19874000D01*
X11788505Y-19875204D01*
G37*
G36*
X9788505Y-17335204D02*
G01*
X9812773Y-17338804D01*
X9836572Y-17344765D01*
X9859671Y-17353030D01*
X9881850Y-17363520D01*
X9902893Y-17376132D01*
X9922599Y-17390747D01*
X9940777Y-17407223D01*
X9957253Y-17425401D01*
X9971868Y-17445107D01*
X9984480Y-17466150D01*
X9994970Y-17488329D01*
X10003235Y-17511428D01*
X10009196Y-17535227D01*
X10012796Y-17559495D01*
X10014000Y-17583999D01*
X10014000Y-18484001D01*
X10012796Y-18508505D01*
X10009196Y-18532773D01*
X10003235Y-18556572D01*
X9994970Y-18579671D01*
X9984480Y-18601850D01*
X9971868Y-18622893D01*
X9957253Y-18642599D01*
X9940777Y-18660777D01*
X9922599Y-18677253D01*
X9902893Y-18691868D01*
X9881850Y-18704480D01*
X9859671Y-18714970D01*
X9836572Y-18723235D01*
X9812773Y-18729196D01*
X9788505Y-18732796D01*
X9764001Y-18734000D01*
X9063999Y-18734000D01*
X9039495Y-18732796D01*
X9015227Y-18729196D01*
X8991428Y-18723235D01*
X8968329Y-18714970D01*
X8946150Y-18704480D01*
X8925107Y-18691868D01*
X8905401Y-18677253D01*
X8887223Y-18660777D01*
X8870747Y-18642599D01*
X8856132Y-18622893D01*
X8843520Y-18601850D01*
X8833030Y-18579671D01*
X8824765Y-18556572D01*
X8818804Y-18532773D01*
X8815204Y-18508505D01*
X8814000Y-18484001D01*
X8814000Y-17583999D01*
X8815204Y-17559495D01*
X8818804Y-17535227D01*
X8824765Y-17511428D01*
X8833030Y-17488329D01*
X8843520Y-17466150D01*
X8856132Y-17445107D01*
X8870747Y-17425401D01*
X8887223Y-17407223D01*
X8905401Y-17390747D01*
X8925107Y-17376132D01*
X8946150Y-17363520D01*
X8968329Y-17353030D01*
X8991428Y-17344765D01*
X9015227Y-17338804D01*
X9039495Y-17335204D01*
X9063999Y-17334000D01*
X9764001Y-17334000D01*
X9788505Y-17335204D01*
G37*
G36*
X11788505Y-17335204D02*
G01*
X11812773Y-17338804D01*
X11836572Y-17344765D01*
X11859671Y-17353030D01*
X11881850Y-17363520D01*
X11902893Y-17376132D01*
X11922599Y-17390747D01*
X11940777Y-17407223D01*
X11957253Y-17425401D01*
X11971868Y-17445107D01*
X11984480Y-17466150D01*
X11994970Y-17488329D01*
X12003235Y-17511428D01*
X12009196Y-17535227D01*
X12012796Y-17559495D01*
X12014000Y-17583999D01*
X12014000Y-18484001D01*
X12012796Y-18508505D01*
X12009196Y-18532773D01*
X12003235Y-18556572D01*
X11994970Y-18579671D01*
X11984480Y-18601850D01*
X11971868Y-18622893D01*
X11957253Y-18642599D01*
X11940777Y-18660777D01*
X11922599Y-18677253D01*
X11902893Y-18691868D01*
X11881850Y-18704480D01*
X11859671Y-18714970D01*
X11836572Y-18723235D01*
X11812773Y-18729196D01*
X11788505Y-18732796D01*
X11764001Y-18734000D01*
X11063999Y-18734000D01*
X11039495Y-18732796D01*
X11015227Y-18729196D01*
X10991428Y-18723235D01*
X10968329Y-18714970D01*
X10946150Y-18704480D01*
X10925107Y-18691868D01*
X10905401Y-18677253D01*
X10887223Y-18660777D01*
X10870747Y-18642599D01*
X10856132Y-18622893D01*
X10843520Y-18601850D01*
X10833030Y-18579671D01*
X10824765Y-18556572D01*
X10818804Y-18532773D01*
X10815204Y-18508505D01*
X10814000Y-18484001D01*
X10814000Y-17583999D01*
X10815204Y-17559495D01*
X10818804Y-17535227D01*
X10824765Y-17511428D01*
X10833030Y-17488329D01*
X10843520Y-17466150D01*
X10856132Y-17445107D01*
X10870747Y-17425401D01*
X10887223Y-17407223D01*
X10905401Y-17390747D01*
X10925107Y-17376132D01*
X10946150Y-17363520D01*
X10968329Y-17353030D01*
X10991428Y-17344765D01*
X11015227Y-17338804D01*
X11039495Y-17335204D01*
X11063999Y-17334000D01*
X11764001Y-17334000D01*
X11788505Y-17335204D01*
G37*
G36*
X9788505Y-14795204D02*
G01*
X9812773Y-14798804D01*
X9836572Y-14804765D01*
X9859671Y-14813030D01*
X9881850Y-14823520D01*
X9902893Y-14836132D01*
X9922599Y-14850747D01*
X9940777Y-14867223D01*
X9957253Y-14885401D01*
X9971868Y-14905107D01*
X9984480Y-14926150D01*
X9994970Y-14948329D01*
X10003235Y-14971428D01*
X10009196Y-14995227D01*
X10012796Y-15019495D01*
X10014000Y-15043999D01*
X10014000Y-15944001D01*
X10012796Y-15968505D01*
X10009196Y-15992773D01*
X10003235Y-16016572D01*
X9994970Y-16039671D01*
X9984480Y-16061850D01*
X9971868Y-16082893D01*
X9957253Y-16102599D01*
X9940777Y-16120777D01*
X9922599Y-16137253D01*
X9902893Y-16151868D01*
X9881850Y-16164480D01*
X9859671Y-16174970D01*
X9836572Y-16183235D01*
X9812773Y-16189196D01*
X9788505Y-16192796D01*
X9764001Y-16194000D01*
X9063999Y-16194000D01*
X9039495Y-16192796D01*
X9015227Y-16189196D01*
X8991428Y-16183235D01*
X8968329Y-16174970D01*
X8946150Y-16164480D01*
X8925107Y-16151868D01*
X8905401Y-16137253D01*
X8887223Y-16120777D01*
X8870747Y-16102599D01*
X8856132Y-16082893D01*
X8843520Y-16061850D01*
X8833030Y-16039671D01*
X8824765Y-16016572D01*
X8818804Y-15992773D01*
X8815204Y-15968505D01*
X8814000Y-15944001D01*
X8814000Y-15043999D01*
X8815204Y-15019495D01*
X8818804Y-14995227D01*
X8824765Y-14971428D01*
X8833030Y-14948329D01*
X8843520Y-14926150D01*
X8856132Y-14905107D01*
X8870747Y-14885401D01*
X8887223Y-14867223D01*
X8905401Y-14850747D01*
X8925107Y-14836132D01*
X8946150Y-14823520D01*
X8968329Y-14813030D01*
X8991428Y-14804765D01*
X9015227Y-14798804D01*
X9039495Y-14795204D01*
X9063999Y-14794000D01*
X9764001Y-14794000D01*
X9788505Y-14795204D01*
G37*
G36*
X11788505Y-14795204D02*
G01*
X11812773Y-14798804D01*
X11836572Y-14804765D01*
X11859671Y-14813030D01*
X11881850Y-14823520D01*
X11902893Y-14836132D01*
X11922599Y-14850747D01*
X11940777Y-14867223D01*
X11957253Y-14885401D01*
X11971868Y-14905107D01*
X11984480Y-14926150D01*
X11994970Y-14948329D01*
X12003235Y-14971428D01*
X12009196Y-14995227D01*
X12012796Y-15019495D01*
X12014000Y-15043999D01*
X12014000Y-15944001D01*
X12012796Y-15968505D01*
X12009196Y-15992773D01*
X12003235Y-16016572D01*
X11994970Y-16039671D01*
X11984480Y-16061850D01*
X11971868Y-16082893D01*
X11957253Y-16102599D01*
X11940777Y-16120777D01*
X11922599Y-16137253D01*
X11902893Y-16151868D01*
X11881850Y-16164480D01*
X11859671Y-16174970D01*
X11836572Y-16183235D01*
X11812773Y-16189196D01*
X11788505Y-16192796D01*
X11764001Y-16194000D01*
X11063999Y-16194000D01*
X11039495Y-16192796D01*
X11015227Y-16189196D01*
X10991428Y-16183235D01*
X10968329Y-16174970D01*
X10946150Y-16164480D01*
X10925107Y-16151868D01*
X10905401Y-16137253D01*
X10887223Y-16120777D01*
X10870747Y-16102599D01*
X10856132Y-16082893D01*
X10843520Y-16061850D01*
X10833030Y-16039671D01*
X10824765Y-16016572D01*
X10818804Y-15992773D01*
X10815204Y-15968505D01*
X10814000Y-15944001D01*
X10814000Y-15043999D01*
X10815204Y-15019495D01*
X10818804Y-14995227D01*
X10824765Y-14971428D01*
X10833030Y-14948329D01*
X10843520Y-14926150D01*
X10856132Y-14905107D01*
X10870747Y-14885401D01*
X10887223Y-14867223D01*
X10905401Y-14850747D01*
X10925107Y-14836132D01*
X10946150Y-14823520D01*
X10968329Y-14813030D01*
X10991428Y-14804765D01*
X11015227Y-14798804D01*
X11039495Y-14795204D01*
X11063999Y-14794000D01*
X11764001Y-14794000D01*
X11788505Y-14795204D01*
G37*
G36*
X9788505Y-12255204D02*
G01*
X9812773Y-12258804D01*
X9836572Y-12264765D01*
X9859671Y-12273030D01*
X9881850Y-12283520D01*
X9902893Y-12296132D01*
X9922599Y-12310747D01*
X9940777Y-12327223D01*
X9957253Y-12345401D01*
X9971868Y-12365107D01*
X9984480Y-12386150D01*
X9994970Y-12408329D01*
X10003235Y-12431428D01*
X10009196Y-12455227D01*
X10012796Y-12479495D01*
X10014000Y-12503999D01*
X10014000Y-13404001D01*
X10012796Y-13428505D01*
X10009196Y-13452773D01*
X10003235Y-13476572D01*
X9994970Y-13499671D01*
X9984480Y-13521850D01*
X9971868Y-13542893D01*
X9957253Y-13562599D01*
X9940777Y-13580777D01*
X9922599Y-13597253D01*
X9902893Y-13611868D01*
X9881850Y-13624480D01*
X9859671Y-13634970D01*
X9836572Y-13643235D01*
X9812773Y-13649196D01*
X9788505Y-13652796D01*
X9764001Y-13654000D01*
X9063999Y-13654000D01*
X9039495Y-13652796D01*
X9015227Y-13649196D01*
X8991428Y-13643235D01*
X8968329Y-13634970D01*
X8946150Y-13624480D01*
X8925107Y-13611868D01*
X8905401Y-13597253D01*
X8887223Y-13580777D01*
X8870747Y-13562599D01*
X8856132Y-13542893D01*
X8843520Y-13521850D01*
X8833030Y-13499671D01*
X8824765Y-13476572D01*
X8818804Y-13452773D01*
X8815204Y-13428505D01*
X8814000Y-13404001D01*
X8814000Y-12503999D01*
X8815204Y-12479495D01*
X8818804Y-12455227D01*
X8824765Y-12431428D01*
X8833030Y-12408329D01*
X8843520Y-12386150D01*
X8856132Y-12365107D01*
X8870747Y-12345401D01*
X8887223Y-12327223D01*
X8905401Y-12310747D01*
X8925107Y-12296132D01*
X8946150Y-12283520D01*
X8968329Y-12273030D01*
X8991428Y-12264765D01*
X9015227Y-12258804D01*
X9039495Y-12255204D01*
X9063999Y-12254000D01*
X9764001Y-12254000D01*
X9788505Y-12255204D01*
G37*
G36*
X11788505Y-12255204D02*
G01*
X11812773Y-12258804D01*
X11836572Y-12264765D01*
X11859671Y-12273030D01*
X11881850Y-12283520D01*
X11902893Y-12296132D01*
X11922599Y-12310747D01*
X11940777Y-12327223D01*
X11957253Y-12345401D01*
X11971868Y-12365107D01*
X11984480Y-12386150D01*
X11994970Y-12408329D01*
X12003235Y-12431428D01*
X12009196Y-12455227D01*
X12012796Y-12479495D01*
X12014000Y-12503999D01*
X12014000Y-13404001D01*
X12012796Y-13428505D01*
X12009196Y-13452773D01*
X12003235Y-13476572D01*
X11994970Y-13499671D01*
X11984480Y-13521850D01*
X11971868Y-13542893D01*
X11957253Y-13562599D01*
X11940777Y-13580777D01*
X11922599Y-13597253D01*
X11902893Y-13611868D01*
X11881850Y-13624480D01*
X11859671Y-13634970D01*
X11836572Y-13643235D01*
X11812773Y-13649196D01*
X11788505Y-13652796D01*
X11764001Y-13654000D01*
X11063999Y-13654000D01*
X11039495Y-13652796D01*
X11015227Y-13649196D01*
X10991428Y-13643235D01*
X10968329Y-13634970D01*
X10946150Y-13624480D01*
X10925107Y-13611868D01*
X10905401Y-13597253D01*
X10887223Y-13580777D01*
X10870747Y-13562599D01*
X10856132Y-13542893D01*
X10843520Y-13521850D01*
X10833030Y-13499671D01*
X10824765Y-13476572D01*
X10818804Y-13452773D01*
X10815204Y-13428505D01*
X10814000Y-13404001D01*
X10814000Y-12503999D01*
X10815204Y-12479495D01*
X10818804Y-12455227D01*
X10824765Y-12431428D01*
X10833030Y-12408329D01*
X10843520Y-12386150D01*
X10856132Y-12365107D01*
X10870747Y-12345401D01*
X10887223Y-12327223D01*
X10905401Y-12310747D01*
X10925107Y-12296132D01*
X10946150Y-12283520D01*
X10968329Y-12273030D01*
X10991428Y-12264765D01*
X11015227Y-12258804D01*
X11039495Y-12255204D01*
X11063999Y-12254000D01*
X11764001Y-12254000D01*
X11788505Y-12255204D01*
G37*
G36*
X9788505Y-9715204D02*
G01*
X9812773Y-9718804D01*
X9836572Y-9724765D01*
X9859671Y-9733030D01*
X9881850Y-9743520D01*
X9902893Y-9756132D01*
X9922599Y-9770747D01*
X9940777Y-9787223D01*
X9957253Y-9805401D01*
X9971868Y-9825107D01*
X9984480Y-9846150D01*
X9994970Y-9868329D01*
X10003235Y-9891428D01*
X10009196Y-9915227D01*
X10012796Y-9939495D01*
X10014000Y-9963999D01*
X10014000Y-10864001D01*
X10012796Y-10888505D01*
X10009196Y-10912773D01*
X10003235Y-10936572D01*
X9994970Y-10959671D01*
X9984480Y-10981850D01*
X9971868Y-11002893D01*
X9957253Y-11022599D01*
X9940777Y-11040777D01*
X9922599Y-11057253D01*
X9902893Y-11071868D01*
X9881850Y-11084480D01*
X9859671Y-11094970D01*
X9836572Y-11103235D01*
X9812773Y-11109196D01*
X9788505Y-11112796D01*
X9764001Y-11114000D01*
X9063999Y-11114000D01*
X9039495Y-11112796D01*
X9015227Y-11109196D01*
X8991428Y-11103235D01*
X8968329Y-11094970D01*
X8946150Y-11084480D01*
X8925107Y-11071868D01*
X8905401Y-11057253D01*
X8887223Y-11040777D01*
X8870747Y-11022599D01*
X8856132Y-11002893D01*
X8843520Y-10981850D01*
X8833030Y-10959671D01*
X8824765Y-10936572D01*
X8818804Y-10912773D01*
X8815204Y-10888505D01*
X8814000Y-10864001D01*
X8814000Y-9963999D01*
X8815204Y-9939495D01*
X8818804Y-9915227D01*
X8824765Y-9891428D01*
X8833030Y-9868329D01*
X8843520Y-9846150D01*
X8856132Y-9825107D01*
X8870747Y-9805401D01*
X8887223Y-9787223D01*
X8905401Y-9770747D01*
X8925107Y-9756132D01*
X8946150Y-9743520D01*
X8968329Y-9733030D01*
X8991428Y-9724765D01*
X9015227Y-9718804D01*
X9039495Y-9715204D01*
X9063999Y-9714000D01*
X9764001Y-9714000D01*
X9788505Y-9715204D01*
G37*
G36*
X11788505Y-9715204D02*
G01*
X11812773Y-9718804D01*
X11836572Y-9724765D01*
X11859671Y-9733030D01*
X11881850Y-9743520D01*
X11902893Y-9756132D01*
X11922599Y-9770747D01*
X11940777Y-9787223D01*
X11957253Y-9805401D01*
X11971868Y-9825107D01*
X11984480Y-9846150D01*
X11994970Y-9868329D01*
X12003235Y-9891428D01*
X12009196Y-9915227D01*
X12012796Y-9939495D01*
X12014000Y-9963999D01*
X12014000Y-10864001D01*
X12012796Y-10888505D01*
X12009196Y-10912773D01*
X12003235Y-10936572D01*
X11994970Y-10959671D01*
X11984480Y-10981850D01*
X11971868Y-11002893D01*
X11957253Y-11022599D01*
X11940777Y-11040777D01*
X11922599Y-11057253D01*
X11902893Y-11071868D01*
X11881850Y-11084480D01*
X11859671Y-11094970D01*
X11836572Y-11103235D01*
X11812773Y-11109196D01*
X11788505Y-11112796D01*
X11764001Y-11114000D01*
X11063999Y-11114000D01*
X11039495Y-11112796D01*
X11015227Y-11109196D01*
X10991428Y-11103235D01*
X10968329Y-11094970D01*
X10946150Y-11084480D01*
X10925107Y-11071868D01*
X10905401Y-11057253D01*
X10887223Y-11040777D01*
X10870747Y-11022599D01*
X10856132Y-11002893D01*
X10843520Y-10981850D01*
X10833030Y-10959671D01*
X10824765Y-10936572D01*
X10818804Y-10912773D01*
X10815204Y-10888505D01*
X10814000Y-10864001D01*
X10814000Y-9963999D01*
X10815204Y-9939495D01*
X10818804Y-9915227D01*
X10824765Y-9891428D01*
X10833030Y-9868329D01*
X10843520Y-9846150D01*
X10856132Y-9825107D01*
X10870747Y-9805401D01*
X10887223Y-9787223D01*
X10905401Y-9770747D01*
X10925107Y-9756132D01*
X10946150Y-9743520D01*
X10968329Y-9733030D01*
X10991428Y-9724765D01*
X11015227Y-9718804D01*
X11039495Y-9715204D01*
X11063999Y-9714000D01*
X11764001Y-9714000D01*
X11788505Y-9715204D01*
G37*
G36*
X9788505Y-7175204D02*
G01*
X9812773Y-7178804D01*
X9836572Y-7184765D01*
X9859671Y-7193030D01*
X9881850Y-7203520D01*
X9902893Y-7216132D01*
X9922599Y-7230747D01*
X9940777Y-7247223D01*
X9957253Y-7265401D01*
X9971868Y-7285107D01*
X9984480Y-7306150D01*
X9994970Y-7328329D01*
X10003235Y-7351428D01*
X10009196Y-7375227D01*
X10012796Y-7399495D01*
X10014000Y-7423999D01*
X10014000Y-8324001D01*
X10012796Y-8348505D01*
X10009196Y-8372773D01*
X10003235Y-8396572D01*
X9994970Y-8419671D01*
X9984480Y-8441850D01*
X9971868Y-8462893D01*
X9957253Y-8482599D01*
X9940777Y-8500777D01*
X9922599Y-8517253D01*
X9902893Y-8531868D01*
X9881850Y-8544480D01*
X9859671Y-8554970D01*
X9836572Y-8563235D01*
X9812773Y-8569196D01*
X9788505Y-8572796D01*
X9764001Y-8574000D01*
X9063999Y-8574000D01*
X9039495Y-8572796D01*
X9015227Y-8569196D01*
X8991428Y-8563235D01*
X8968329Y-8554970D01*
X8946150Y-8544480D01*
X8925107Y-8531868D01*
X8905401Y-8517253D01*
X8887223Y-8500777D01*
X8870747Y-8482599D01*
X8856132Y-8462893D01*
X8843520Y-8441850D01*
X8833030Y-8419671D01*
X8824765Y-8396572D01*
X8818804Y-8372773D01*
X8815204Y-8348505D01*
X8814000Y-8324001D01*
X8814000Y-7423999D01*
X8815204Y-7399495D01*
X8818804Y-7375227D01*
X8824765Y-7351428D01*
X8833030Y-7328329D01*
X8843520Y-7306150D01*
X8856132Y-7285107D01*
X8870747Y-7265401D01*
X8887223Y-7247223D01*
X8905401Y-7230747D01*
X8925107Y-7216132D01*
X8946150Y-7203520D01*
X8968329Y-7193030D01*
X8991428Y-7184765D01*
X9015227Y-7178804D01*
X9039495Y-7175204D01*
X9063999Y-7174000D01*
X9764001Y-7174000D01*
X9788505Y-7175204D01*
G37*
G36*
X11788505Y-7175204D02*
G01*
X11812773Y-7178804D01*
X11836572Y-7184765D01*
X11859671Y-7193030D01*
X11881850Y-7203520D01*
X11902893Y-7216132D01*
X11922599Y-7230747D01*
X11940777Y-7247223D01*
X11957253Y-7265401D01*
X11971868Y-7285107D01*
X11984480Y-7306150D01*
X11994970Y-7328329D01*
X12003235Y-7351428D01*
X12009196Y-7375227D01*
X12012796Y-7399495D01*
X12014000Y-7423999D01*
X12014000Y-8324001D01*
X12012796Y-8348505D01*
X12009196Y-8372773D01*
X12003235Y-8396572D01*
X11994970Y-8419671D01*
X11984480Y-8441850D01*
X11971868Y-8462893D01*
X11957253Y-8482599D01*
X11940777Y-8500777D01*
X11922599Y-8517253D01*
X11902893Y-8531868D01*
X11881850Y-8544480D01*
X11859671Y-8554970D01*
X11836572Y-8563235D01*
X11812773Y-8569196D01*
X11788505Y-8572796D01*
X11764001Y-8574000D01*
X11063999Y-8574000D01*
X11039495Y-8572796D01*
X11015227Y-8569196D01*
X10991428Y-8563235D01*
X10968329Y-8554970D01*
X10946150Y-8544480D01*
X10925107Y-8531868D01*
X10905401Y-8517253D01*
X10887223Y-8500777D01*
X10870747Y-8482599D01*
X10856132Y-8462893D01*
X10843520Y-8441850D01*
X10833030Y-8419671D01*
X10824765Y-8396572D01*
X10818804Y-8372773D01*
X10815204Y-8348505D01*
X10814000Y-8324001D01*
X10814000Y-7423999D01*
X10815204Y-7399495D01*
X10818804Y-7375227D01*
X10824765Y-7351428D01*
X10833030Y-7328329D01*
X10843520Y-7306150D01*
X10856132Y-7285107D01*
X10870747Y-7265401D01*
X10887223Y-7247223D01*
X10905401Y-7230747D01*
X10925107Y-7216132D01*
X10946150Y-7203520D01*
X10968329Y-7193030D01*
X10991428Y-7184765D01*
X11015227Y-7178804D01*
X11039495Y-7175204D01*
X11063999Y-7174000D01*
X11764001Y-7174000D01*
X11788505Y-7175204D01*
G37*
G36*
X9534505Y-4635204D02*
G01*
X9558773Y-4638804D01*
X9582572Y-4644765D01*
X9605671Y-4653030D01*
X9627850Y-4663520D01*
X9648893Y-4676132D01*
X9668599Y-4690747D01*
X9686777Y-4707223D01*
X9703253Y-4725401D01*
X9717868Y-4745107D01*
X9730480Y-4766150D01*
X9740970Y-4788329D01*
X9749235Y-4811428D01*
X9755196Y-4835227D01*
X9758796Y-4859495D01*
X9760000Y-4883999D01*
X9760000Y-5784001D01*
X9758796Y-5808505D01*
X9755196Y-5832773D01*
X9749235Y-5856572D01*
X9740970Y-5879671D01*
X9730480Y-5901850D01*
X9717868Y-5922893D01*
X9703253Y-5942599D01*
X9686777Y-5960777D01*
X9668599Y-5977253D01*
X9648893Y-5991868D01*
X9627850Y-6004480D01*
X9605671Y-6014970D01*
X9582572Y-6023235D01*
X9558773Y-6029196D01*
X9534505Y-6032796D01*
X9510001Y-6034000D01*
X8809999Y-6034000D01*
X8785495Y-6032796D01*
X8761227Y-6029196D01*
X8737428Y-6023235D01*
X8714329Y-6014970D01*
X8692150Y-6004480D01*
X8671107Y-5991868D01*
X8651401Y-5977253D01*
X8633223Y-5960777D01*
X8616747Y-5942599D01*
X8602132Y-5922893D01*
X8589520Y-5901850D01*
X8579030Y-5879671D01*
X8570765Y-5856572D01*
X8564804Y-5832773D01*
X8561204Y-5808505D01*
X8560000Y-5784001D01*
X8560000Y-4883999D01*
X8561204Y-4859495D01*
X8564804Y-4835227D01*
X8570765Y-4811428D01*
X8579030Y-4788329D01*
X8589520Y-4766150D01*
X8602132Y-4745107D01*
X8616747Y-4725401D01*
X8633223Y-4707223D01*
X8651401Y-4690747D01*
X8671107Y-4676132D01*
X8692150Y-4663520D01*
X8714329Y-4653030D01*
X8737428Y-4644765D01*
X8761227Y-4638804D01*
X8785495Y-4635204D01*
X8809999Y-4634000D01*
X9510001Y-4634000D01*
X9534505Y-4635204D01*
G37*
G36*
X11534505Y-4635204D02*
G01*
X11558773Y-4638804D01*
X11582572Y-4644765D01*
X11605671Y-4653030D01*
X11627850Y-4663520D01*
X11648893Y-4676132D01*
X11668599Y-4690747D01*
X11686777Y-4707223D01*
X11703253Y-4725401D01*
X11717868Y-4745107D01*
X11730480Y-4766150D01*
X11740970Y-4788329D01*
X11749235Y-4811428D01*
X11755196Y-4835227D01*
X11758796Y-4859495D01*
X11760000Y-4883999D01*
X11760000Y-5784001D01*
X11758796Y-5808505D01*
X11755196Y-5832773D01*
X11749235Y-5856572D01*
X11740970Y-5879671D01*
X11730480Y-5901850D01*
X11717868Y-5922893D01*
X11703253Y-5942599D01*
X11686777Y-5960777D01*
X11668599Y-5977253D01*
X11648893Y-5991868D01*
X11627850Y-6004480D01*
X11605671Y-6014970D01*
X11582572Y-6023235D01*
X11558773Y-6029196D01*
X11534505Y-6032796D01*
X11510001Y-6034000D01*
X10809999Y-6034000D01*
X10785495Y-6032796D01*
X10761227Y-6029196D01*
X10737428Y-6023235D01*
X10714329Y-6014970D01*
X10692150Y-6004480D01*
X10671107Y-5991868D01*
X10651401Y-5977253D01*
X10633223Y-5960777D01*
X10616747Y-5942599D01*
X10602132Y-5922893D01*
X10589520Y-5901850D01*
X10579030Y-5879671D01*
X10570765Y-5856572D01*
X10564804Y-5832773D01*
X10561204Y-5808505D01*
X10560000Y-5784001D01*
X10560000Y-4883999D01*
X10561204Y-4859495D01*
X10564804Y-4835227D01*
X10570765Y-4811428D01*
X10579030Y-4788329D01*
X10589520Y-4766150D01*
X10602132Y-4745107D01*
X10616747Y-4725401D01*
X10633223Y-4707223D01*
X10651401Y-4690747D01*
X10671107Y-4676132D01*
X10692150Y-4663520D01*
X10714329Y-4653030D01*
X10737428Y-4644765D01*
X10761227Y-4638804D01*
X10785495Y-4635204D01*
X10809999Y-4634000D01*
X11510001Y-4634000D01*
X11534505Y-4635204D01*
G37*
G36*
X9407505Y-2095204D02*
G01*
X9431773Y-2098804D01*
X9455572Y-2104765D01*
X9478671Y-2113030D01*
X9500850Y-2123520D01*
X9521893Y-2136132D01*
X9541599Y-2150747D01*
X9559777Y-2167223D01*
X9576253Y-2185401D01*
X9590868Y-2205107D01*
X9603480Y-2226150D01*
X9613970Y-2248329D01*
X9622235Y-2271428D01*
X9628196Y-2295227D01*
X9631796Y-2319495D01*
X9633000Y-2343999D01*
X9633000Y-3244001D01*
X9631796Y-3268505D01*
X9628196Y-3292773D01*
X9622235Y-3316572D01*
X9613970Y-3339671D01*
X9603480Y-3361850D01*
X9590868Y-3382893D01*
X9576253Y-3402599D01*
X9559777Y-3420777D01*
X9541599Y-3437253D01*
X9521893Y-3451868D01*
X9500850Y-3464480D01*
X9478671Y-3474970D01*
X9455572Y-3483235D01*
X9431773Y-3489196D01*
X9407505Y-3492796D01*
X9383001Y-3494000D01*
X8682999Y-3494000D01*
X8658495Y-3492796D01*
X8634227Y-3489196D01*
X8610428Y-3483235D01*
X8587329Y-3474970D01*
X8565150Y-3464480D01*
X8544107Y-3451868D01*
X8524401Y-3437253D01*
X8506223Y-3420777D01*
X8489747Y-3402599D01*
X8475132Y-3382893D01*
X8462520Y-3361850D01*
X8452030Y-3339671D01*
X8443765Y-3316572D01*
X8437804Y-3292773D01*
X8434204Y-3268505D01*
X8433000Y-3244001D01*
X8433000Y-2343999D01*
X8434204Y-2319495D01*
X8437804Y-2295227D01*
X8443765Y-2271428D01*
X8452030Y-2248329D01*
X8462520Y-2226150D01*
X8475132Y-2205107D01*
X8489747Y-2185401D01*
X8506223Y-2167223D01*
X8524401Y-2150747D01*
X8544107Y-2136132D01*
X8565150Y-2123520D01*
X8587329Y-2113030D01*
X8610428Y-2104765D01*
X8634227Y-2098804D01*
X8658495Y-2095204D01*
X8682999Y-2094000D01*
X9383001Y-2094000D01*
X9407505Y-2095204D01*
G37*
G36*
X11407505Y-2095204D02*
G01*
X11431773Y-2098804D01*
X11455572Y-2104765D01*
X11478671Y-2113030D01*
X11500850Y-2123520D01*
X11521893Y-2136132D01*
X11541599Y-2150747D01*
X11559777Y-2167223D01*
X11576253Y-2185401D01*
X11590868Y-2205107D01*
X11603480Y-2226150D01*
X11613970Y-2248329D01*
X11622235Y-2271428D01*
X11628196Y-2295227D01*
X11631796Y-2319495D01*
X11633000Y-2343999D01*
X11633000Y-3244001D01*
X11631796Y-3268505D01*
X11628196Y-3292773D01*
X11622235Y-3316572D01*
X11613970Y-3339671D01*
X11603480Y-3361850D01*
X11590868Y-3382893D01*
X11576253Y-3402599D01*
X11559777Y-3420777D01*
X11541599Y-3437253D01*
X11521893Y-3451868D01*
X11500850Y-3464480D01*
X11478671Y-3474970D01*
X11455572Y-3483235D01*
X11431773Y-3489196D01*
X11407505Y-3492796D01*
X11383001Y-3494000D01*
X10682999Y-3494000D01*
X10658495Y-3492796D01*
X10634227Y-3489196D01*
X10610428Y-3483235D01*
X10587329Y-3474970D01*
X10565150Y-3464480D01*
X10544107Y-3451868D01*
X10524401Y-3437253D01*
X10506223Y-3420777D01*
X10489747Y-3402599D01*
X10475132Y-3382893D01*
X10462520Y-3361850D01*
X10452030Y-3339671D01*
X10443765Y-3316572D01*
X10437804Y-3292773D01*
X10434204Y-3268505D01*
X10433000Y-3244001D01*
X10433000Y-2343999D01*
X10434204Y-2319495D01*
X10437804Y-2295227D01*
X10443765Y-2271428D01*
X10452030Y-2248329D01*
X10462520Y-2226150D01*
X10475132Y-2205107D01*
X10489747Y-2185401D01*
X10506223Y-2167223D01*
X10524401Y-2150747D01*
X10544107Y-2136132D01*
X10565150Y-2123520D01*
X10587329Y-2113030D01*
X10610428Y-2104765D01*
X10634227Y-2098804D01*
X10658495Y-2095204D01*
X10682999Y-2094000D01*
X11383001Y-2094000D01*
X11407505Y-2095204D01*
G37*
G36*
X9534505Y444796D02*
G01*
X9558773Y441196D01*
X9582572Y435235D01*
X9605671Y426970D01*
X9627850Y416480D01*
X9648893Y403868D01*
X9668599Y389253D01*
X9686777Y372777D01*
X9703253Y354599D01*
X9717868Y334893D01*
X9730480Y313850D01*
X9740970Y291671D01*
X9749235Y268572D01*
X9755196Y244773D01*
X9758796Y220505D01*
X9760000Y196001D01*
X9760000Y-704001D01*
X9758796Y-728505D01*
X9755196Y-752773D01*
X9749235Y-776572D01*
X9740970Y-799671D01*
X9730480Y-821850D01*
X9717868Y-842893D01*
X9703253Y-862599D01*
X9686777Y-880777D01*
X9668599Y-897253D01*
X9648893Y-911868D01*
X9627850Y-924480D01*
X9605671Y-934970D01*
X9582572Y-943235D01*
X9558773Y-949196D01*
X9534505Y-952796D01*
X9510001Y-954000D01*
X8809999Y-954000D01*
X8785495Y-952796D01*
X8761227Y-949196D01*
X8737428Y-943235D01*
X8714329Y-934970D01*
X8692150Y-924480D01*
X8671107Y-911868D01*
X8651401Y-897253D01*
X8633223Y-880777D01*
X8616747Y-862599D01*
X8602132Y-842893D01*
X8589520Y-821850D01*
X8579030Y-799671D01*
X8570765Y-776572D01*
X8564804Y-752773D01*
X8561204Y-728505D01*
X8560000Y-704001D01*
X8560000Y196001D01*
X8561204Y220505D01*
X8564804Y244773D01*
X8570765Y268572D01*
X8579030Y291671D01*
X8589520Y313850D01*
X8602132Y334893D01*
X8616747Y354599D01*
X8633223Y372777D01*
X8651401Y389253D01*
X8671107Y403868D01*
X8692150Y416480D01*
X8714329Y426970D01*
X8737428Y435235D01*
X8761227Y441196D01*
X8785495Y444796D01*
X8809999Y446000D01*
X9510001Y446000D01*
X9534505Y444796D01*
G37*
G36*
X11534505Y444796D02*
G01*
X11558773Y441196D01*
X11582572Y435235D01*
X11605671Y426970D01*
X11627850Y416480D01*
X11648893Y403868D01*
X11668599Y389253D01*
X11686777Y372777D01*
X11703253Y354599D01*
X11717868Y334893D01*
X11730480Y313850D01*
X11740970Y291671D01*
X11749235Y268572D01*
X11755196Y244773D01*
X11758796Y220505D01*
X11760000Y196001D01*
X11760000Y-704001D01*
X11758796Y-728505D01*
X11755196Y-752773D01*
X11749235Y-776572D01*
X11740970Y-799671D01*
X11730480Y-821850D01*
X11717868Y-842893D01*
X11703253Y-862599D01*
X11686777Y-880777D01*
X11668599Y-897253D01*
X11648893Y-911868D01*
X11627850Y-924480D01*
X11605671Y-934970D01*
X11582572Y-943235D01*
X11558773Y-949196D01*
X11534505Y-952796D01*
X11510001Y-954000D01*
X10809999Y-954000D01*
X10785495Y-952796D01*
X10761227Y-949196D01*
X10737428Y-943235D01*
X10714329Y-934970D01*
X10692150Y-924480D01*
X10671107Y-911868D01*
X10651401Y-897253D01*
X10633223Y-880777D01*
X10616747Y-862599D01*
X10602132Y-842893D01*
X10589520Y-821850D01*
X10579030Y-799671D01*
X10570765Y-776572D01*
X10564804Y-752773D01*
X10561204Y-728505D01*
X10560000Y-704001D01*
X10560000Y196001D01*
X10561204Y220505D01*
X10564804Y244773D01*
X10570765Y268572D01*
X10579030Y291671D01*
X10589520Y313850D01*
X10602132Y334893D01*
X10616747Y354599D01*
X10633223Y372777D01*
X10651401Y389253D01*
X10671107Y403868D01*
X10692150Y416480D01*
X10714329Y426970D01*
X10737428Y435235D01*
X10761227Y441196D01*
X10785495Y444796D01*
X10809999Y446000D01*
X11510001Y446000D01*
X11534505Y444796D01*
G37*
G36*
X9585305Y2933996D02*
G01*
X9609573Y2930396D01*
X9633372Y2924435D01*
X9656471Y2916170D01*
X9678650Y2905680D01*
X9699693Y2893068D01*
X9719399Y2878453D01*
X9737577Y2861977D01*
X9754053Y2843799D01*
X9768668Y2824093D01*
X9781280Y2803050D01*
X9791770Y2780871D01*
X9800035Y2757772D01*
X9805996Y2733973D01*
X9809596Y2709705D01*
X9810800Y2685201D01*
X9810800Y1785199D01*
X9809596Y1760695D01*
X9805996Y1736427D01*
X9800035Y1712628D01*
X9791770Y1689529D01*
X9781280Y1667350D01*
X9768668Y1646307D01*
X9754053Y1626601D01*
X9737577Y1608423D01*
X9719399Y1591947D01*
X9699693Y1577332D01*
X9678650Y1564720D01*
X9656471Y1554230D01*
X9633372Y1545965D01*
X9609573Y1540004D01*
X9585305Y1536404D01*
X9560801Y1535200D01*
X8860799Y1535200D01*
X8836295Y1536404D01*
X8812027Y1540004D01*
X8788228Y1545965D01*
X8765129Y1554230D01*
X8742950Y1564720D01*
X8721907Y1577332D01*
X8702201Y1591947D01*
X8684023Y1608423D01*
X8667547Y1626601D01*
X8652932Y1646307D01*
X8640320Y1667350D01*
X8629830Y1689529D01*
X8621565Y1712628D01*
X8615604Y1736427D01*
X8612004Y1760695D01*
X8610800Y1785199D01*
X8610800Y2685201D01*
X8612004Y2709705D01*
X8615604Y2733973D01*
X8621565Y2757772D01*
X8629830Y2780871D01*
X8640320Y2803050D01*
X8652932Y2824093D01*
X8667547Y2843799D01*
X8684023Y2861977D01*
X8702201Y2878453D01*
X8721907Y2893068D01*
X8742950Y2905680D01*
X8765129Y2916170D01*
X8788228Y2924435D01*
X8812027Y2930396D01*
X8836295Y2933996D01*
X8860799Y2935200D01*
X9560801Y2935200D01*
X9585305Y2933996D01*
G37*
G36*
X11585305Y2933996D02*
G01*
X11609573Y2930396D01*
X11633372Y2924435D01*
X11656471Y2916170D01*
X11678650Y2905680D01*
X11699693Y2893068D01*
X11719399Y2878453D01*
X11737577Y2861977D01*
X11754053Y2843799D01*
X11768668Y2824093D01*
X11781280Y2803050D01*
X11791770Y2780871D01*
X11800035Y2757772D01*
X11805996Y2733973D01*
X11809596Y2709705D01*
X11810800Y2685201D01*
X11810800Y1785199D01*
X11809596Y1760695D01*
X11805996Y1736427D01*
X11800035Y1712628D01*
X11791770Y1689529D01*
X11781280Y1667350D01*
X11768668Y1646307D01*
X11754053Y1626601D01*
X11737577Y1608423D01*
X11719399Y1591947D01*
X11699693Y1577332D01*
X11678650Y1564720D01*
X11656471Y1554230D01*
X11633372Y1545965D01*
X11609573Y1540004D01*
X11585305Y1536404D01*
X11560801Y1535200D01*
X10860799Y1535200D01*
X10836295Y1536404D01*
X10812027Y1540004D01*
X10788228Y1545965D01*
X10765129Y1554230D01*
X10742950Y1564720D01*
X10721907Y1577332D01*
X10702201Y1591947D01*
X10684023Y1608423D01*
X10667547Y1626601D01*
X10652932Y1646307D01*
X10640320Y1667350D01*
X10629830Y1689529D01*
X10621565Y1712628D01*
X10615604Y1736427D01*
X10612004Y1760695D01*
X10610800Y1785199D01*
X10610800Y2685201D01*
X10612004Y2709705D01*
X10615604Y2733973D01*
X10621565Y2757772D01*
X10629830Y2780871D01*
X10640320Y2803050D01*
X10652932Y2824093D01*
X10667547Y2843799D01*
X10684023Y2861977D01*
X10702201Y2878453D01*
X10721907Y2893068D01*
X10742950Y2905680D01*
X10765129Y2916170D01*
X10788228Y2924435D01*
X10812027Y2930396D01*
X10836295Y2933996D01*
X10860799Y2935200D01*
X11560801Y2935200D01*
X11585305Y2933996D01*
G37*
G36*
X9534505Y5524796D02*
G01*
X9558773Y5521196D01*
X9582572Y5515235D01*
X9605671Y5506970D01*
X9627850Y5496480D01*
X9648893Y5483868D01*
X9668599Y5469253D01*
X9686777Y5452777D01*
X9703253Y5434599D01*
X9717868Y5414893D01*
X9730480Y5393850D01*
X9740970Y5371671D01*
X9749235Y5348572D01*
X9755196Y5324773D01*
X9758796Y5300505D01*
X9760000Y5276001D01*
X9760000Y4375999D01*
X9758796Y4351495D01*
X9755196Y4327227D01*
X9749235Y4303428D01*
X9740970Y4280329D01*
X9730480Y4258150D01*
X9717868Y4237107D01*
X9703253Y4217401D01*
X9686777Y4199223D01*
X9668599Y4182747D01*
X9648893Y4168132D01*
X9627850Y4155520D01*
X9605671Y4145030D01*
X9582572Y4136765D01*
X9558773Y4130804D01*
X9534505Y4127204D01*
X9510001Y4126000D01*
X8809999Y4126000D01*
X8785495Y4127204D01*
X8761227Y4130804D01*
X8737428Y4136765D01*
X8714329Y4145030D01*
X8692150Y4155520D01*
X8671107Y4168132D01*
X8651401Y4182747D01*
X8633223Y4199223D01*
X8616747Y4217401D01*
X8602132Y4237107D01*
X8589520Y4258150D01*
X8579030Y4280329D01*
X8570765Y4303428D01*
X8564804Y4327227D01*
X8561204Y4351495D01*
X8560000Y4375999D01*
X8560000Y5276001D01*
X8561204Y5300505D01*
X8564804Y5324773D01*
X8570765Y5348572D01*
X8579030Y5371671D01*
X8589520Y5393850D01*
X8602132Y5414893D01*
X8616747Y5434599D01*
X8633223Y5452777D01*
X8651401Y5469253D01*
X8671107Y5483868D01*
X8692150Y5496480D01*
X8714329Y5506970D01*
X8737428Y5515235D01*
X8761227Y5521196D01*
X8785495Y5524796D01*
X8809999Y5526000D01*
X9510001Y5526000D01*
X9534505Y5524796D01*
G37*
G36*
X11534505Y5524796D02*
G01*
X11558773Y5521196D01*
X11582572Y5515235D01*
X11605671Y5506970D01*
X11627850Y5496480D01*
X11648893Y5483868D01*
X11668599Y5469253D01*
X11686777Y5452777D01*
X11703253Y5434599D01*
X11717868Y5414893D01*
X11730480Y5393850D01*
X11740970Y5371671D01*
X11749235Y5348572D01*
X11755196Y5324773D01*
X11758796Y5300505D01*
X11760000Y5276001D01*
X11760000Y4375999D01*
X11758796Y4351495D01*
X11755196Y4327227D01*
X11749235Y4303428D01*
X11740970Y4280329D01*
X11730480Y4258150D01*
X11717868Y4237107D01*
X11703253Y4217401D01*
X11686777Y4199223D01*
X11668599Y4182747D01*
X11648893Y4168132D01*
X11627850Y4155520D01*
X11605671Y4145030D01*
X11582572Y4136765D01*
X11558773Y4130804D01*
X11534505Y4127204D01*
X11510001Y4126000D01*
X10809999Y4126000D01*
X10785495Y4127204D01*
X10761227Y4130804D01*
X10737428Y4136765D01*
X10714329Y4145030D01*
X10692150Y4155520D01*
X10671107Y4168132D01*
X10651401Y4182747D01*
X10633223Y4199223D01*
X10616747Y4217401D01*
X10602132Y4237107D01*
X10589520Y4258150D01*
X10579030Y4280329D01*
X10570765Y4303428D01*
X10564804Y4327227D01*
X10561204Y4351495D01*
X10560000Y4375999D01*
X10560000Y5276001D01*
X10561204Y5300505D01*
X10564804Y5324773D01*
X10570765Y5348572D01*
X10579030Y5371671D01*
X10589520Y5393850D01*
X10602132Y5414893D01*
X10616747Y5434599D01*
X10633223Y5452777D01*
X10651401Y5469253D01*
X10671107Y5483868D01*
X10692150Y5496480D01*
X10714329Y5506970D01*
X10737428Y5515235D01*
X10761227Y5521196D01*
X10785495Y5524796D01*
X10809999Y5526000D01*
X11510001Y5526000D01*
X11534505Y5524796D01*
G37*
M02*
